M48
; DRILL file {KiCad (5.1.4)-1} date 10/14/21 18:00:05
; FORMAT={-:-/ absolute / inch / decimal}
; #@! TF.CreationDate,2021-10-14T18:00:05+07:00
; #@! TF.GenerationSoftware,Kicad,Pcbnew,(5.1.4)-1
; #@! TF.FileFunction,NonPlated,1,2,NPTH
FMAT,2
INCH
T1C0.0669
T2C0.1201
T3C0.1575
%
G90
G05
T1
X2.9812Y-5.2938
X3.3813Y-5.2938
X3.7312Y-3.7937
X4.1312Y-3.7937
X1.8562Y-6.7938
X2.2563Y-6.7938
X2.2312Y-3.7937
X2.6313Y-3.7937
X2.9812Y-6.7938
X3.3813Y-6.7938
X1.4812Y-6.0438
X1.8812Y-6.0438
X2.9812Y-4.5438
X3.3813Y-4.5438
X1.4812Y-3.7937
X1.8812Y-3.7937
X1.4812Y-5.2938
X1.8812Y-5.2938
X1.4812Y-4.5438
X1.8812Y-4.5438
X3.7312Y-6.4188
X4.1312Y-6.4188
X2.2312Y-6.0438
X2.6313Y-6.0438
X3.7312Y-4.9188
X4.1312Y-4.9188
X2.9812Y-3.7937
X3.3813Y-3.7937
X2.2312Y-4.5438
X2.6313Y-4.5438
X2.9812Y-6.0438
X3.3813Y-6.0438
X2.2312Y-5.2938
X2.6313Y-5.2938
T2
X3.6557Y-5.9502
X3.6557Y-6.8873
X3.6557Y-4.4502
X3.6557Y-5.3873
X1.5877Y-6.5182
X2.5248Y-6.5182
T3
X3.1812Y-5.2938
X3.9312Y-3.7937
X1.5877Y-7.1182
X2.0562Y-6.7938
X2.5248Y-7.1182
X2.4312Y-3.7937
X3.1812Y-6.7938
X1.6812Y-6.0438
X3.1812Y-4.5438
X1.6812Y-3.7937
X1.6812Y-5.2938
X1.6812Y-4.5438
X3.9312Y-6.4188
X4.2557Y-5.9502
X4.2557Y-6.8873
X2.4312Y-6.0438
X3.9312Y-4.9188
X4.2557Y-4.4502
X4.2557Y-5.3873
X3.1812Y-3.7937
X2.4312Y-4.5438
X3.1812Y-6.0438
X2.4312Y-5.2938
T0
M30
