M48
; DRILL file {KiCad (5.1.4)-1} date 10/14/21 18:00:05
; FORMAT={-:-/ absolute / inch / decimal}
; #@! TF.CreationDate,2021-10-14T18:00:05+07:00
; #@! TF.GenerationSoftware,Kicad,Pcbnew,(5.1.4)-1
; #@! TF.FileFunction,Plated,1,2,PTH
FMAT,2
INCH
T1C0.0118
T2C0.0433
T3C0.0591
%
G90
G05
T1
X1.7812Y-3.5938
T2
X1.35Y-2.4
X1.35Y-3.0
X1.45Y-2.4
X1.45Y-3.0
X1.55Y-2.4
X1.55Y-3.0
X1.65Y-2.4
X1.65Y-3.0
X1.75Y-2.4
X1.75Y-3.0
X1.85Y-2.4
X1.85Y-3.0
X1.95Y-2.4
X1.95Y-3.0
X2.05Y-2.4
X2.05Y-3.0
X2.15Y-2.4
X2.15Y-3.0
X2.25Y-2.4
X2.25Y-3.0
X2.35Y-2.4
X2.35Y-3.0
X2.45Y-2.4
X2.45Y-3.0
T3
X3.0312Y-5.1937
X3.2812Y-5.0938
X3.7812Y-3.6938
X4.0312Y-3.5938
X1.9062Y-6.6937
X2.1562Y-6.5938
X2.2812Y-3.6938
X2.5312Y-3.5938
X3.0312Y-6.6937
X3.2812Y-6.5938
X1.5312Y-5.9437
X1.7812Y-5.8438
X3.0312Y-4.4437
X3.2812Y-4.3438
X1.5312Y-3.6938
X1.7812Y-3.5938
X1.5312Y-5.1937
X1.7812Y-5.0938
X1.5312Y-4.4437
X1.7812Y-4.3438
X3.7812Y-6.3187
X4.0312Y-6.2188
X2.2812Y-5.9437
X2.5312Y-5.8438
X3.7812Y-4.8187
X4.0312Y-4.7188
X3.0312Y-3.6938
X3.2812Y-3.5938
X2.2812Y-4.4437
X2.5312Y-4.3438
X3.0312Y-5.9437
X3.2812Y-5.8438
X2.2812Y-5.1937
X2.5312Y-5.0938
T0
M30
