G04 #@! TF.GenerationSoftware,KiCad,Pcbnew,(5.1.4)-1*
G04 #@! TF.CreationDate,2021-10-14T17:59:47+07:00*
G04 #@! TF.ProjectId,Keypad_pcb,4b657970-6164-45f7-9063-622e6b696361,rev?*
G04 #@! TF.SameCoordinates,Original*
G04 #@! TF.FileFunction,Copper,L2,Bot*
G04 #@! TF.FilePolarity,Positive*
%FSLAX46Y46*%
G04 Gerber Fmt 4.6, Leading zero omitted, Abs format (unit mm)*
G04 Created by KiCad (PCBNEW (5.1.4)-1) date 2021-10-14 17:59:47*
%MOMM*%
%LPD*%
G04 APERTURE LIST*
%ADD10C,2.200000*%
%ADD11C,1.600000*%
%ADD12R,1.600000X1.600000*%
%ADD13C,0.400000*%
%ADD14C,0.200000*%
G04 APERTURE END LIST*
D10*
X45243750Y-110331250D03*
X38893750Y-112871250D03*
D11*
X34290000Y-60960000D03*
X36830000Y-60960000D03*
X39370000Y-60960000D03*
X41910000Y-60960000D03*
X44450000Y-60960000D03*
X46990000Y-60960000D03*
X49530000Y-60960000D03*
X52070000Y-60960000D03*
X54610000Y-60960000D03*
X57150000Y-60960000D03*
X59690000Y-60960000D03*
X62230000Y-60960000D03*
X62230000Y-76200000D03*
X59690000Y-76200000D03*
X57150000Y-76200000D03*
X54610000Y-76200000D03*
X52070000Y-76200000D03*
X49530000Y-76200000D03*
X46990000Y-76200000D03*
X44450000Y-76200000D03*
X41910000Y-76200000D03*
X39370000Y-76200000D03*
X36830000Y-76200000D03*
D12*
X34290000Y-76200000D03*
D10*
X76993750Y-170021250D03*
X83343750Y-167481250D03*
X48418750Y-170021250D03*
X54768750Y-167481250D03*
X96043750Y-160496250D03*
X102393750Y-157956250D03*
X96043750Y-122396250D03*
X102393750Y-119856250D03*
X45243750Y-91281250D03*
X38893750Y-93821250D03*
X57943750Y-93821250D03*
X64293750Y-91281250D03*
X83343750Y-91281250D03*
X76993750Y-93821250D03*
X96043750Y-93821250D03*
X102393750Y-91281250D03*
X57943750Y-112871250D03*
X64293750Y-110331250D03*
X83343750Y-110331250D03*
X76993750Y-112871250D03*
X38893750Y-131921250D03*
X45243750Y-129381250D03*
X64293750Y-129381250D03*
X57943750Y-131921250D03*
X76993750Y-131921250D03*
X83343750Y-129381250D03*
X45243750Y-148431250D03*
X38893750Y-150971250D03*
X57943750Y-150971250D03*
X64293750Y-148431250D03*
X83343750Y-148431250D03*
X76993750Y-150971250D03*
D13*
X45243750Y-91281250D03*
D14*
X64293750Y-91281250D02*
X64293750Y-110331250D01*
X64293750Y-110331250D02*
X64293750Y-129381250D01*
X64293750Y-129381250D02*
X64293750Y-148431250D01*
X83343750Y-91281250D02*
X83343750Y-110331250D01*
X83343750Y-110331250D02*
X83343750Y-129381250D01*
X83343750Y-129381250D02*
X83343750Y-148431250D01*
X83343750Y-148431250D02*
X83343750Y-167481250D01*
X102393750Y-91281250D02*
X102393750Y-119856250D01*
X102393750Y-119856250D02*
X102393750Y-157956250D01*
X45243750Y-91281250D02*
X45243750Y-110331250D01*
X45243750Y-110331250D02*
X45243750Y-129381250D01*
X45243750Y-129381250D02*
X45243750Y-148431250D01*
X54768750Y-157956250D02*
X54768750Y-167481250D01*
X45243750Y-148431250D02*
X54768750Y-157956250D01*
M02*
