G04 #@! TF.GenerationSoftware,KiCad,Pcbnew,(5.1.4)-1*
G04 #@! TF.CreationDate,2021-10-14T17:59:47+07:00*
G04 #@! TF.ProjectId,Keypad_pcb,4b657970-6164-45f7-9063-622e6b696361,rev?*
G04 #@! TF.SameCoordinates,Original*
G04 #@! TF.FileFunction,Copper,L1,Top*
G04 #@! TF.FilePolarity,Positive*
%FSLAX46Y46*%
G04 Gerber Fmt 4.6, Leading zero omitted, Abs format (unit mm)*
G04 Created by KiCad (PCBNEW (5.1.4)-1) date 2021-10-14 17:59:47*
%MOMM*%
%LPD*%
G04 APERTURE LIST*
%ADD10C,2.200000*%
%ADD11C,1.600000*%
%ADD12R,1.600000X1.600000*%
%ADD13R,1.200000X0.900000*%
%ADD14C,0.400000*%
%ADD15C,0.200000*%
G04 APERTURE END LIST*
D10*
X45243750Y-110331250D03*
X38893750Y-112871250D03*
D11*
X34290000Y-60960000D03*
X36830000Y-60960000D03*
X39370000Y-60960000D03*
X41910000Y-60960000D03*
X44450000Y-60960000D03*
X46990000Y-60960000D03*
X49530000Y-60960000D03*
X52070000Y-60960000D03*
X54610000Y-60960000D03*
X57150000Y-60960000D03*
X59690000Y-60960000D03*
X62230000Y-60960000D03*
X62230000Y-76200000D03*
X59690000Y-76200000D03*
X57150000Y-76200000D03*
X54610000Y-76200000D03*
X52070000Y-76200000D03*
X49530000Y-76200000D03*
X46990000Y-76200000D03*
X44450000Y-76200000D03*
X41910000Y-76200000D03*
X39370000Y-76200000D03*
X36830000Y-76200000D03*
D12*
X34290000Y-76200000D03*
D10*
X76993750Y-170021250D03*
X83343750Y-167481250D03*
D13*
X109220000Y-160910000D03*
X109220000Y-164210000D03*
X90170000Y-171070000D03*
X90170000Y-174370000D03*
X62230000Y-171070000D03*
X62230000Y-174370000D03*
X90170000Y-152020000D03*
X90170000Y-155320000D03*
X71120000Y-152020000D03*
X71120000Y-155320000D03*
X52070000Y-152020000D03*
X52070000Y-155320000D03*
X90170000Y-132970000D03*
X90170000Y-136270000D03*
X71120000Y-132970000D03*
X71120000Y-136270000D03*
X52070000Y-132970000D03*
X52070000Y-136270000D03*
X109220000Y-122810000D03*
X109220000Y-126110000D03*
X90170000Y-113920000D03*
X90170000Y-117220000D03*
X71120000Y-113920000D03*
X71120000Y-117220000D03*
X52070000Y-113920000D03*
X52070000Y-117220000D03*
X109220000Y-94870000D03*
X109220000Y-98170000D03*
X90170000Y-94870000D03*
X90170000Y-98170000D03*
X71120000Y-94870000D03*
X71120000Y-98170000D03*
X52070000Y-94870000D03*
X52070000Y-98170000D03*
D10*
X48418750Y-170021250D03*
X54768750Y-167481250D03*
X96043750Y-160496250D03*
X102393750Y-157956250D03*
X96043750Y-122396250D03*
X102393750Y-119856250D03*
X45243750Y-91281250D03*
X38893750Y-93821250D03*
X57943750Y-93821250D03*
X64293750Y-91281250D03*
X83343750Y-91281250D03*
X76993750Y-93821250D03*
X96043750Y-93821250D03*
X102393750Y-91281250D03*
X57943750Y-112871250D03*
X64293750Y-110331250D03*
X83343750Y-110331250D03*
X76993750Y-112871250D03*
X38893750Y-131921250D03*
X45243750Y-129381250D03*
X64293750Y-129381250D03*
X57943750Y-131921250D03*
X76993750Y-131921250D03*
X83343750Y-129381250D03*
X45243750Y-148431250D03*
X38893750Y-150971250D03*
X57943750Y-150971250D03*
X64293750Y-148431250D03*
X83343750Y-148431250D03*
X76993750Y-150971250D03*
D14*
X45243750Y-91281250D03*
D15*
X38893750Y-93821250D02*
X33178750Y-93821250D01*
X33178750Y-93821250D02*
X31750000Y-95250000D01*
X31750000Y-95250000D02*
X31750000Y-100330000D01*
X31750000Y-100330000D02*
X33020000Y-101600000D01*
X33020000Y-101600000D02*
X52070000Y-101600000D01*
X52070000Y-101600000D02*
X52070000Y-98170000D01*
X33239999Y-82769999D02*
X44450000Y-93980000D01*
X44450000Y-93980000D02*
X48260000Y-93980000D01*
X49150000Y-94870000D02*
X52070000Y-94870000D01*
X48260000Y-93980000D02*
X49150000Y-94870000D01*
X31750000Y-75199999D02*
X31750000Y-82769999D01*
X33289999Y-73660000D02*
X31750000Y-75199999D01*
X50800000Y-73660000D02*
X33289999Y-73660000D01*
X52070000Y-76200000D02*
X52070000Y-74930000D01*
X52070000Y-74930000D02*
X50800000Y-73660000D01*
X31750000Y-82769999D02*
X33239999Y-82769999D01*
X52070000Y-94870000D02*
X52070000Y-88900000D01*
X52070000Y-88900000D02*
X53340000Y-87630000D01*
X53340000Y-87630000D02*
X57150000Y-87630000D01*
X64390000Y-94870000D02*
X65150000Y-94870000D01*
X57150000Y-87630000D02*
X64390000Y-94870000D01*
X65150000Y-94870000D02*
X67310000Y-92710000D01*
X67310000Y-92710000D02*
X69850000Y-92710000D01*
X71120000Y-93980000D02*
X71120000Y-94870000D01*
X69850000Y-92710000D02*
X71120000Y-93980000D01*
X84200000Y-94870000D02*
X85090000Y-93980000D01*
X69850000Y-92710000D02*
X72390000Y-92710000D01*
X72390000Y-92710000D02*
X73660000Y-91440000D01*
X83440000Y-94870000D02*
X84200000Y-94870000D01*
X80010000Y-91440000D02*
X83440000Y-94870000D01*
X73660000Y-91440000D02*
X80010000Y-91440000D01*
X85090000Y-93980000D02*
X87630000Y-93980000D01*
X88520000Y-94870000D02*
X90170000Y-94870000D01*
X87630000Y-93980000D02*
X88520000Y-94870000D01*
X90320000Y-94870000D02*
X95020000Y-90170000D01*
X90170000Y-94870000D02*
X90320000Y-94870000D01*
X95020000Y-90170000D02*
X97790000Y-90170000D01*
X102490000Y-94870000D02*
X109220000Y-94870000D01*
X97790000Y-90170000D02*
X102490000Y-94870000D01*
X56388116Y-93821250D02*
X54610000Y-95599366D01*
X57943750Y-93821250D02*
X56388116Y-93821250D01*
X54610000Y-95599366D02*
X54610000Y-102870000D01*
X70320000Y-98170000D02*
X71120000Y-98170000D01*
X65620000Y-102870000D02*
X70320000Y-98170000D01*
X54610000Y-102870000D02*
X65620000Y-102870000D01*
X90020000Y-98170000D02*
X90170000Y-98170000D01*
X86590000Y-101600000D02*
X90020000Y-98170000D01*
X73660000Y-101600000D02*
X86590000Y-101600000D01*
X73660000Y-95250000D02*
X73660000Y-101600000D01*
X75088750Y-93821250D02*
X73660000Y-95250000D01*
X76993750Y-93821250D02*
X75088750Y-93821250D01*
X94488116Y-93821250D02*
X92710000Y-95599366D01*
X96043750Y-93821250D02*
X94488116Y-93821250D01*
X92710000Y-95599366D02*
X92710000Y-99060000D01*
X92710000Y-99060000D02*
X95250000Y-101600000D01*
X108420000Y-98170000D02*
X109220000Y-98170000D01*
X104990000Y-101600000D02*
X108420000Y-98170000D01*
X95250000Y-101600000D02*
X104990000Y-101600000D01*
X51270000Y-117220000D02*
X52070000Y-117220000D01*
X37338116Y-112871250D02*
X35560000Y-114649366D01*
X38893750Y-112871250D02*
X37338116Y-112871250D01*
X35560000Y-114649366D02*
X35560000Y-119380000D01*
X35560000Y-119380000D02*
X36830000Y-120650000D01*
X47840000Y-120650000D02*
X49320000Y-119170000D01*
X36830000Y-120650000D02*
X47840000Y-120650000D01*
X49110000Y-119380000D02*
X49320000Y-119170000D01*
X49320000Y-119170000D02*
X51270000Y-117220000D01*
X52070000Y-107950000D02*
X52070000Y-113920000D01*
X50800000Y-72390000D02*
X33020000Y-72390000D01*
X54610000Y-76200000D02*
X50800000Y-72390000D01*
X49530000Y-105410000D02*
X52070000Y-107950000D01*
X33020000Y-72390000D02*
X30480000Y-74930000D01*
X30480000Y-74930000D02*
X30480000Y-99554988D01*
X30480000Y-99554988D02*
X36335012Y-105410000D01*
X36335012Y-105410000D02*
X49530000Y-105410000D01*
X49530000Y-105410000D02*
X68580000Y-105410000D01*
X71120000Y-107950000D02*
X71120000Y-113920000D01*
X68580000Y-105410000D02*
X71120000Y-107950000D01*
X68580000Y-105410000D02*
X87630000Y-105410000D01*
X87630000Y-105410000D02*
X90170000Y-107950000D01*
X90170000Y-107950000D02*
X90170000Y-113920000D01*
X70970000Y-117220000D02*
X71120000Y-117220000D01*
X57943750Y-112871250D02*
X56388116Y-112871250D01*
X56388116Y-112871250D02*
X54610000Y-114649366D01*
X54610000Y-114649366D02*
X54610000Y-119380000D01*
X54610000Y-119380000D02*
X55880000Y-120650000D01*
X55880000Y-120650000D02*
X67540000Y-120650000D01*
X67540000Y-120650000D02*
X70970000Y-117220000D01*
X76993750Y-112871250D02*
X75088750Y-112871250D01*
X75088750Y-112871250D02*
X73660000Y-114300000D01*
X73660000Y-114300000D02*
X73660000Y-118110000D01*
X73660000Y-118110000D02*
X74930000Y-119380000D01*
X89370000Y-117220000D02*
X90170000Y-117220000D01*
X87210000Y-119380000D02*
X89370000Y-117220000D01*
X74930000Y-119380000D02*
X87210000Y-119380000D01*
X96043750Y-122396250D02*
X92233750Y-122396250D01*
X92233750Y-122396250D02*
X91440000Y-123190000D01*
X91440000Y-123190000D02*
X91440000Y-128270000D01*
X91440000Y-128270000D02*
X93980000Y-130810000D01*
X108420000Y-126110000D02*
X109220000Y-126110000D01*
X103720000Y-130810000D02*
X108420000Y-126110000D01*
X93980000Y-130810000D02*
X103720000Y-130810000D01*
X37338116Y-131921250D02*
X35560000Y-133699366D01*
X38893750Y-131921250D02*
X37338116Y-131921250D01*
X35560000Y-133699366D02*
X35560000Y-137160000D01*
X35560000Y-137160000D02*
X36830000Y-138430000D01*
X51270000Y-136270000D02*
X52070000Y-136270000D01*
X49110000Y-138430000D02*
X51270000Y-136270000D01*
X36830000Y-138430000D02*
X49110000Y-138430000D01*
X29210000Y-74930000D02*
X29210000Y-115345502D01*
X33020000Y-71120000D02*
X29210000Y-74930000D01*
X57150000Y-76200000D02*
X52070000Y-71120000D01*
X52070000Y-71120000D02*
X33020000Y-71120000D01*
X52070000Y-132970000D02*
X52070000Y-127000000D01*
X52070000Y-127000000D02*
X49530000Y-124460000D01*
X29210000Y-115345502D02*
X29210000Y-119380000D01*
X29210000Y-119380000D02*
X34290000Y-124460000D01*
X49530000Y-124460000D02*
X34290000Y-124460000D01*
X71120000Y-127000000D02*
X71120000Y-132970000D01*
X49530000Y-124460000D02*
X68580000Y-124460000D01*
X68580000Y-124460000D02*
X71120000Y-127000000D01*
X68580000Y-124460000D02*
X87630000Y-124460000D01*
X87630000Y-124460000D02*
X90170000Y-127000000D01*
X90170000Y-127000000D02*
X90170000Y-132970000D01*
X87630000Y-124460000D02*
X87630000Y-123190000D01*
X87630000Y-123190000D02*
X93980000Y-116840000D01*
X108420000Y-122810000D02*
X109220000Y-122810000D01*
X102450000Y-116840000D02*
X108420000Y-122810000D01*
X93980000Y-116840000D02*
X102450000Y-116840000D01*
X70320000Y-136270000D02*
X71120000Y-136270000D01*
X56388116Y-131921250D02*
X54610000Y-133699366D01*
X54610000Y-133699366D02*
X54610000Y-138430000D01*
X57943750Y-131921250D02*
X56388116Y-131921250D01*
X54610000Y-138430000D02*
X55880000Y-139700000D01*
X55880000Y-139700000D02*
X66890000Y-139700000D01*
X66890000Y-139700000D02*
X70320000Y-136270000D01*
X75438116Y-131921250D02*
X73660000Y-133699366D01*
X76993750Y-131921250D02*
X75438116Y-131921250D01*
X73660000Y-133699366D02*
X73660000Y-137160000D01*
X73660000Y-137160000D02*
X74930000Y-138430000D01*
X89370000Y-136270000D02*
X90170000Y-136270000D01*
X87210000Y-138430000D02*
X89370000Y-136270000D01*
X74930000Y-138430000D02*
X87210000Y-138430000D01*
X37338116Y-150971250D02*
X34290000Y-154019366D01*
X38893750Y-150971250D02*
X37338116Y-150971250D01*
X34290000Y-154019366D02*
X34290000Y-156210000D01*
X34290000Y-156210000D02*
X36830000Y-158750000D01*
X51270000Y-155320000D02*
X52070000Y-155320000D01*
X47840000Y-158750000D02*
X51270000Y-155320000D01*
X36830000Y-158750000D02*
X47840000Y-158750000D01*
X52070000Y-146050000D02*
X52070000Y-152020000D01*
X49530000Y-143510000D02*
X52070000Y-146050000D01*
X53340000Y-69850000D02*
X31750000Y-69850000D01*
X59690000Y-76200000D02*
X53340000Y-69850000D01*
X31750000Y-69850000D02*
X27940000Y-73660000D01*
X27940000Y-73660000D02*
X27940000Y-135890000D01*
X27940000Y-135890000D02*
X35560000Y-143510000D01*
X35560000Y-143510000D02*
X49530000Y-143510000D01*
X49530000Y-143510000D02*
X67310000Y-143510000D01*
X71120000Y-147320000D02*
X71120000Y-152020000D01*
X67310000Y-143510000D02*
X71120000Y-147320000D01*
X67310000Y-143510000D02*
X87630000Y-143510000D01*
X87630000Y-143510000D02*
X90170000Y-146050000D01*
X90170000Y-146050000D02*
X90170000Y-152020000D01*
X56388116Y-150971250D02*
X54610000Y-152749366D01*
X57943750Y-150971250D02*
X56388116Y-150971250D01*
X54610000Y-152749366D02*
X54610000Y-154940000D01*
X54610000Y-154940000D02*
X58420000Y-158750000D01*
X70320000Y-155320000D02*
X71120000Y-155320000D01*
X66890000Y-158750000D02*
X70320000Y-155320000D01*
X58420000Y-158750000D02*
X66890000Y-158750000D01*
X88520000Y-155320000D02*
X90170000Y-155320000D01*
X86360000Y-157480000D02*
X88520000Y-155320000D01*
X73660000Y-157480000D02*
X86360000Y-157480000D01*
X73660000Y-152749366D02*
X73660000Y-157480000D01*
X76993750Y-150971250D02*
X75438116Y-150971250D01*
X75438116Y-150971250D02*
X73660000Y-152749366D01*
X62230000Y-76200000D02*
X54610000Y-68580000D01*
X54610000Y-68580000D02*
X30480000Y-68580000D01*
X30480000Y-68580000D02*
X26670000Y-72390000D01*
X26670000Y-72390000D02*
X26670000Y-156210000D01*
X26670000Y-156210000D02*
X33020000Y-162560000D01*
X61430000Y-171070000D02*
X62230000Y-171070000D01*
X52920000Y-162560000D02*
X61430000Y-171070000D01*
X33020000Y-162560000D02*
X52920000Y-162560000D01*
X90170000Y-166370000D02*
X90170000Y-171070000D01*
X52920000Y-162560000D02*
X86360000Y-162560000D01*
X86360000Y-162560000D02*
X90170000Y-166370000D01*
X86360000Y-162560000D02*
X87630000Y-162560000D01*
X87630000Y-162560000D02*
X96520000Y-153670000D01*
X96520000Y-153670000D02*
X105410000Y-153670000D01*
X109220000Y-157480000D02*
X109220000Y-160910000D01*
X105410000Y-153670000D02*
X109220000Y-157480000D01*
X48418750Y-170021250D02*
X43338750Y-170021250D01*
X43338750Y-170021250D02*
X41910000Y-171450000D01*
X41910000Y-171450000D02*
X41910000Y-173990000D01*
X41910000Y-173990000D02*
X45720000Y-177800000D01*
X61430000Y-174370000D02*
X62230000Y-174370000D01*
X58000000Y-177800000D02*
X61430000Y-174370000D01*
X45720000Y-177800000D02*
X58000000Y-177800000D01*
X76993750Y-170021250D02*
X72548750Y-170021250D01*
X72548750Y-170021250D02*
X71120000Y-171450000D01*
X71120000Y-171450000D02*
X71120000Y-176530000D01*
X71120000Y-176530000D02*
X72390000Y-177800000D01*
X89370000Y-174370000D02*
X90170000Y-174370000D01*
X85940000Y-177800000D02*
X89370000Y-174370000D01*
X72390000Y-177800000D02*
X85940000Y-177800000D01*
X94488116Y-160496250D02*
X91440000Y-163544366D01*
X96043750Y-160496250D02*
X94488116Y-160496250D01*
X91440000Y-163544366D02*
X91440000Y-167640000D01*
X91440000Y-167640000D02*
X93980000Y-170180000D01*
X108420000Y-164210000D02*
X109220000Y-164210000D01*
X102450000Y-170180000D02*
X108420000Y-164210000D01*
X93980000Y-170180000D02*
X102450000Y-170180000D01*
X57150000Y-62091370D02*
X63638630Y-68580000D01*
X57150000Y-60960000D02*
X57150000Y-62091370D01*
X63638630Y-68580000D02*
X71120000Y-68580000D01*
X71120000Y-68580000D02*
X72390000Y-69850000D01*
X72390000Y-83185000D02*
X64293750Y-91281250D01*
X72390000Y-69850000D02*
X72390000Y-83185000D01*
X59690000Y-60960000D02*
X59690000Y-63500000D01*
X59690000Y-63500000D02*
X63500000Y-67310000D01*
X63500000Y-67310000D02*
X72390000Y-67310000D01*
X83343750Y-78263750D02*
X83343750Y-91281250D01*
X72390000Y-67310000D02*
X83343750Y-78263750D01*
X62230000Y-60960000D02*
X69850000Y-60960000D01*
X69850000Y-60960000D02*
X88900000Y-80010000D01*
X91122500Y-80010000D02*
X102393750Y-91281250D01*
X88900000Y-80010000D02*
X91122500Y-80010000D01*
X54610000Y-60960000D02*
X63500000Y-69850000D01*
X63500000Y-69850000D02*
X69850000Y-69850000D01*
X69850000Y-69850000D02*
X71120000Y-71120000D01*
X71120000Y-71120000D02*
X71120000Y-81280000D01*
X71120000Y-81280000D02*
X69850000Y-82550000D01*
X53975000Y-82550000D02*
X45243750Y-91281250D01*
X69850000Y-82550000D02*
X53975000Y-82550000D01*
M02*
