G04 #@! TF.GenerationSoftware,KiCad,Pcbnew,(5.1.4)-1*
G04 #@! TF.CreationDate,2021-10-14T17:59:47+07:00*
G04 #@! TF.ProjectId,Keypad_pcb,4b657970-6164-45f7-9063-622e6b696361,rev?*
G04 #@! TF.SameCoordinates,Original*
G04 #@! TF.FileFunction,Soldermask,Bot*
G04 #@! TF.FilePolarity,Negative*
%FSLAX46Y46*%
G04 Gerber Fmt 4.6, Leading zero omitted, Abs format (unit mm)*
G04 Created by KiCad (PCBNEW (5.1.4)-1) date 2021-10-14 17:59:47*
%MOMM*%
%LPD*%
G04 APERTURE LIST*
%ADD10C,0.100000*%
G04 APERTURE END LIST*
D10*
G36*
X64727004Y-178829068D02*
G01*
X65100261Y-178983676D01*
X65100263Y-178983677D01*
X65436186Y-179208134D01*
X65721866Y-179493814D01*
X65946324Y-179829739D01*
X66100932Y-180202996D01*
X66179750Y-180599243D01*
X66179750Y-181003257D01*
X66100932Y-181399504D01*
X65946324Y-181772761D01*
X65946323Y-181772763D01*
X65721866Y-182108686D01*
X65436186Y-182394366D01*
X65100263Y-182618823D01*
X65100262Y-182618824D01*
X65100261Y-182618824D01*
X64727004Y-182773432D01*
X64330757Y-182852250D01*
X63926743Y-182852250D01*
X63530496Y-182773432D01*
X63157239Y-182618824D01*
X63157238Y-182618824D01*
X63157237Y-182618823D01*
X62821314Y-182394366D01*
X62535634Y-182108686D01*
X62311177Y-181772763D01*
X62311176Y-181772761D01*
X62156568Y-181399504D01*
X62077750Y-181003257D01*
X62077750Y-180599243D01*
X62156568Y-180202996D01*
X62311176Y-179829739D01*
X62535634Y-179493814D01*
X62821314Y-179208134D01*
X63157237Y-178983677D01*
X63157239Y-178983676D01*
X63530496Y-178829068D01*
X63926743Y-178750250D01*
X64330757Y-178750250D01*
X64727004Y-178829068D01*
X64727004Y-178829068D01*
G37*
G36*
X40927004Y-178829068D02*
G01*
X41300261Y-178983676D01*
X41300263Y-178983677D01*
X41636186Y-179208134D01*
X41921866Y-179493814D01*
X42146324Y-179829739D01*
X42300932Y-180202996D01*
X42379750Y-180599243D01*
X42379750Y-181003257D01*
X42300932Y-181399504D01*
X42146324Y-181772761D01*
X42146323Y-181772763D01*
X41921866Y-182108686D01*
X41636186Y-182394366D01*
X41300263Y-182618823D01*
X41300262Y-182618824D01*
X41300261Y-182618824D01*
X40927004Y-182773432D01*
X40530757Y-182852250D01*
X40126743Y-182852250D01*
X39730496Y-182773432D01*
X39357239Y-182618824D01*
X39357238Y-182618824D01*
X39357237Y-182618823D01*
X39021314Y-182394366D01*
X38735634Y-182108686D01*
X38511177Y-181772763D01*
X38511176Y-181772761D01*
X38356568Y-181399504D01*
X38277750Y-181003257D01*
X38277750Y-180599243D01*
X38356568Y-180202996D01*
X38511176Y-179829739D01*
X38735634Y-179493814D01*
X39021314Y-179208134D01*
X39357237Y-178983677D01*
X39357239Y-178983676D01*
X39730496Y-178829068D01*
X40126743Y-178750250D01*
X40530757Y-178750250D01*
X40927004Y-178829068D01*
X40927004Y-178829068D01*
G37*
G36*
X108692004Y-172964068D02*
G01*
X109065261Y-173118676D01*
X109065263Y-173118677D01*
X109401186Y-173343134D01*
X109686866Y-173628814D01*
X109847144Y-173868686D01*
X109911324Y-173964739D01*
X110065932Y-174337996D01*
X110144750Y-174734243D01*
X110144750Y-175138257D01*
X110065932Y-175534504D01*
X109911324Y-175907761D01*
X109911323Y-175907763D01*
X109686866Y-176243686D01*
X109401186Y-176529366D01*
X109065263Y-176753823D01*
X109065262Y-176753824D01*
X109065261Y-176753824D01*
X108692004Y-176908432D01*
X108295757Y-176987250D01*
X107891743Y-176987250D01*
X107495496Y-176908432D01*
X107122239Y-176753824D01*
X107122238Y-176753824D01*
X107122237Y-176753823D01*
X106786314Y-176529366D01*
X106500634Y-176243686D01*
X106276177Y-175907763D01*
X106276176Y-175907761D01*
X106121568Y-175534504D01*
X106042750Y-175138257D01*
X106042750Y-174734243D01*
X106121568Y-174337996D01*
X106276176Y-173964739D01*
X106340357Y-173868686D01*
X106500634Y-173628814D01*
X106786314Y-173343134D01*
X107122237Y-173118677D01*
X107122239Y-173118676D01*
X107495496Y-172964068D01*
X107891743Y-172885250D01*
X108295757Y-172885250D01*
X108692004Y-172964068D01*
X108692004Y-172964068D01*
G37*
G36*
X93084833Y-173375340D02*
G01*
X93313452Y-173420814D01*
X93600266Y-173539617D01*
X93858392Y-173712091D01*
X94077909Y-173931608D01*
X94250383Y-174189734D01*
X94369186Y-174476548D01*
X94429750Y-174781028D01*
X94429750Y-175091472D01*
X94369186Y-175395952D01*
X94250383Y-175682766D01*
X94077909Y-175940892D01*
X93858392Y-176160409D01*
X93600266Y-176332883D01*
X93313452Y-176451686D01*
X93084833Y-176497160D01*
X93008974Y-176512250D01*
X92698526Y-176512250D01*
X92622667Y-176497160D01*
X92394048Y-176451686D01*
X92107234Y-176332883D01*
X91849108Y-176160409D01*
X91629591Y-175940892D01*
X91457117Y-175682766D01*
X91338314Y-175395952D01*
X91277750Y-175091472D01*
X91277750Y-174781028D01*
X91338314Y-174476548D01*
X91457117Y-174189734D01*
X91629591Y-173931608D01*
X91849108Y-173712091D01*
X92107234Y-173539617D01*
X92394048Y-173420814D01*
X92622667Y-173375340D01*
X92698526Y-173360250D01*
X93008974Y-173360250D01*
X93084833Y-173375340D01*
X93084833Y-173375340D01*
G37*
G36*
X81402004Y-170589068D02*
G01*
X81775261Y-170743676D01*
X81775263Y-170743677D01*
X82111186Y-170968134D01*
X82396866Y-171253814D01*
X82621324Y-171589739D01*
X82775932Y-171962996D01*
X82854750Y-172359243D01*
X82854750Y-172763257D01*
X82775932Y-173159504D01*
X82621324Y-173532761D01*
X82621323Y-173532763D01*
X82396866Y-173868686D01*
X82111186Y-174154366D01*
X81775263Y-174378823D01*
X81775262Y-174378824D01*
X81775261Y-174378824D01*
X81402004Y-174533432D01*
X81005757Y-174612250D01*
X80601743Y-174612250D01*
X80205496Y-174533432D01*
X79832239Y-174378824D01*
X79832238Y-174378824D01*
X79832237Y-174378823D01*
X79496314Y-174154366D01*
X79210634Y-173868686D01*
X78986177Y-173532763D01*
X78986176Y-173532761D01*
X78831568Y-173159504D01*
X78752750Y-172763257D01*
X78752750Y-172359243D01*
X78831568Y-171962996D01*
X78986176Y-171589739D01*
X79210634Y-171253814D01*
X79496314Y-170968134D01*
X79832237Y-170743677D01*
X79832239Y-170743676D01*
X80205496Y-170589068D01*
X80601743Y-170510250D01*
X81005757Y-170510250D01*
X81402004Y-170589068D01*
X81402004Y-170589068D01*
G37*
G36*
X52827004Y-170589068D02*
G01*
X53200261Y-170743676D01*
X53200263Y-170743677D01*
X53536186Y-170968134D01*
X53821866Y-171253814D01*
X54046324Y-171589739D01*
X54200932Y-171962996D01*
X54279750Y-172359243D01*
X54279750Y-172763257D01*
X54200932Y-173159504D01*
X54046324Y-173532761D01*
X54046323Y-173532763D01*
X53821866Y-173868686D01*
X53536186Y-174154366D01*
X53200263Y-174378823D01*
X53200262Y-174378824D01*
X53200261Y-174378824D01*
X52827004Y-174533432D01*
X52430757Y-174612250D01*
X52026743Y-174612250D01*
X51630496Y-174533432D01*
X51257239Y-174378824D01*
X51257238Y-174378824D01*
X51257237Y-174378823D01*
X50921314Y-174154366D01*
X50635634Y-173868686D01*
X50411177Y-173532763D01*
X50411176Y-173532761D01*
X50256568Y-173159504D01*
X50177750Y-172763257D01*
X50177750Y-172359243D01*
X50256568Y-171962996D01*
X50411176Y-171589739D01*
X50635634Y-171253814D01*
X50921314Y-170968134D01*
X51257237Y-170743677D01*
X51257239Y-170743676D01*
X51630496Y-170589068D01*
X52026743Y-170510250D01*
X52430757Y-170510250D01*
X52827004Y-170589068D01*
X52827004Y-170589068D01*
G37*
G36*
X85997262Y-171665177D02*
G01*
X86146562Y-171694874D01*
X86310534Y-171762794D01*
X86458104Y-171861397D01*
X86583603Y-171986896D01*
X86682206Y-172134466D01*
X86750126Y-172298438D01*
X86784750Y-172472509D01*
X86784750Y-172649991D01*
X86750126Y-172824062D01*
X86682206Y-172988034D01*
X86583603Y-173135604D01*
X86458104Y-173261103D01*
X86310534Y-173359706D01*
X86146562Y-173427626D01*
X85997262Y-173457323D01*
X85972492Y-173462250D01*
X85795008Y-173462250D01*
X85770238Y-173457323D01*
X85620938Y-173427626D01*
X85456966Y-173359706D01*
X85309396Y-173261103D01*
X85183897Y-173135604D01*
X85085294Y-172988034D01*
X85017374Y-172824062D01*
X84982750Y-172649991D01*
X84982750Y-172472509D01*
X85017374Y-172298438D01*
X85085294Y-172134466D01*
X85183897Y-171986896D01*
X85309396Y-171861397D01*
X85456966Y-171762794D01*
X85620938Y-171694874D01*
X85770238Y-171665177D01*
X85795008Y-171660250D01*
X85972492Y-171660250D01*
X85997262Y-171665177D01*
X85997262Y-171665177D01*
G37*
G36*
X75837262Y-171665177D02*
G01*
X75986562Y-171694874D01*
X76150534Y-171762794D01*
X76298104Y-171861397D01*
X76423603Y-171986896D01*
X76522206Y-172134466D01*
X76590126Y-172298438D01*
X76624750Y-172472509D01*
X76624750Y-172649991D01*
X76590126Y-172824062D01*
X76522206Y-172988034D01*
X76423603Y-173135604D01*
X76298104Y-173261103D01*
X76150534Y-173359706D01*
X75986562Y-173427626D01*
X75837262Y-173457323D01*
X75812492Y-173462250D01*
X75635008Y-173462250D01*
X75610238Y-173457323D01*
X75460938Y-173427626D01*
X75296966Y-173359706D01*
X75149396Y-173261103D01*
X75023897Y-173135604D01*
X74925294Y-172988034D01*
X74857374Y-172824062D01*
X74822750Y-172649991D01*
X74822750Y-172472509D01*
X74857374Y-172298438D01*
X74925294Y-172134466D01*
X75023897Y-171986896D01*
X75149396Y-171861397D01*
X75296966Y-171762794D01*
X75460938Y-171694874D01*
X75610238Y-171665177D01*
X75635008Y-171660250D01*
X75812492Y-171660250D01*
X75837262Y-171665177D01*
X75837262Y-171665177D01*
G37*
G36*
X57422262Y-171665177D02*
G01*
X57571562Y-171694874D01*
X57735534Y-171762794D01*
X57883104Y-171861397D01*
X58008603Y-171986896D01*
X58107206Y-172134466D01*
X58175126Y-172298438D01*
X58209750Y-172472509D01*
X58209750Y-172649991D01*
X58175126Y-172824062D01*
X58107206Y-172988034D01*
X58008603Y-173135604D01*
X57883104Y-173261103D01*
X57735534Y-173359706D01*
X57571562Y-173427626D01*
X57422262Y-173457323D01*
X57397492Y-173462250D01*
X57220008Y-173462250D01*
X57195238Y-173457323D01*
X57045938Y-173427626D01*
X56881966Y-173359706D01*
X56734396Y-173261103D01*
X56608897Y-173135604D01*
X56510294Y-172988034D01*
X56442374Y-172824062D01*
X56407750Y-172649991D01*
X56407750Y-172472509D01*
X56442374Y-172298438D01*
X56510294Y-172134466D01*
X56608897Y-171986896D01*
X56734396Y-171861397D01*
X56881966Y-171762794D01*
X57045938Y-171694874D01*
X57195238Y-171665177D01*
X57220008Y-171660250D01*
X57397492Y-171660250D01*
X57422262Y-171665177D01*
X57422262Y-171665177D01*
G37*
G36*
X47262262Y-171665177D02*
G01*
X47411562Y-171694874D01*
X47575534Y-171762794D01*
X47723104Y-171861397D01*
X47848603Y-171986896D01*
X47947206Y-172134466D01*
X48015126Y-172298438D01*
X48049750Y-172472509D01*
X48049750Y-172649991D01*
X48015126Y-172824062D01*
X47947206Y-172988034D01*
X47848603Y-173135604D01*
X47723104Y-173261103D01*
X47575534Y-173359706D01*
X47411562Y-173427626D01*
X47262262Y-173457323D01*
X47237492Y-173462250D01*
X47060008Y-173462250D01*
X47035238Y-173457323D01*
X46885938Y-173427626D01*
X46721966Y-173359706D01*
X46574396Y-173261103D01*
X46448897Y-173135604D01*
X46350294Y-172988034D01*
X46282374Y-172824062D01*
X46247750Y-172649991D01*
X46247750Y-172472509D01*
X46282374Y-172298438D01*
X46350294Y-172134466D01*
X46448897Y-171986896D01*
X46574396Y-171861397D01*
X46721966Y-171762794D01*
X46885938Y-171694874D01*
X47035238Y-171665177D01*
X47060008Y-171660250D01*
X47237492Y-171660250D01*
X47262262Y-171665177D01*
X47262262Y-171665177D01*
G37*
G36*
X77218299Y-168892366D02*
G01*
X77329484Y-168914482D01*
X77538953Y-169001247D01*
X77727470Y-169127210D01*
X77887790Y-169287530D01*
X78013753Y-169476047D01*
X78100518Y-169685516D01*
X78144750Y-169907886D01*
X78144750Y-170134614D01*
X78100518Y-170356984D01*
X78013753Y-170566453D01*
X77887790Y-170754970D01*
X77727470Y-170915290D01*
X77538953Y-171041253D01*
X77329484Y-171128018D01*
X77218299Y-171150134D01*
X77107115Y-171172250D01*
X76880385Y-171172250D01*
X76769201Y-171150134D01*
X76658016Y-171128018D01*
X76448547Y-171041253D01*
X76260030Y-170915290D01*
X76099710Y-170754970D01*
X75973747Y-170566453D01*
X75886982Y-170356984D01*
X75842750Y-170134614D01*
X75842750Y-169907886D01*
X75886982Y-169685516D01*
X75973747Y-169476047D01*
X76099710Y-169287530D01*
X76260030Y-169127210D01*
X76448547Y-169001247D01*
X76658016Y-168914482D01*
X76769201Y-168892366D01*
X76880385Y-168870250D01*
X77107115Y-168870250D01*
X77218299Y-168892366D01*
X77218299Y-168892366D01*
G37*
G36*
X48643299Y-168892366D02*
G01*
X48754484Y-168914482D01*
X48963953Y-169001247D01*
X49152470Y-169127210D01*
X49312790Y-169287530D01*
X49438753Y-169476047D01*
X49525518Y-169685516D01*
X49569750Y-169907886D01*
X49569750Y-170134614D01*
X49525518Y-170356984D01*
X49438753Y-170566453D01*
X49312790Y-170754970D01*
X49152470Y-170915290D01*
X48963953Y-171041253D01*
X48754484Y-171128018D01*
X48643299Y-171150134D01*
X48532115Y-171172250D01*
X48305385Y-171172250D01*
X48194201Y-171150134D01*
X48083016Y-171128018D01*
X47873547Y-171041253D01*
X47685030Y-170915290D01*
X47524710Y-170754970D01*
X47398747Y-170566453D01*
X47311982Y-170356984D01*
X47267750Y-170134614D01*
X47267750Y-169907886D01*
X47311982Y-169685516D01*
X47398747Y-169476047D01*
X47524710Y-169287530D01*
X47685030Y-169127210D01*
X47873547Y-169001247D01*
X48083016Y-168914482D01*
X48194201Y-168892366D01*
X48305385Y-168870250D01*
X48532115Y-168870250D01*
X48643299Y-168892366D01*
X48643299Y-168892366D01*
G37*
G36*
X54993299Y-166352366D02*
G01*
X55104484Y-166374482D01*
X55313953Y-166461247D01*
X55502470Y-166587210D01*
X55662790Y-166747530D01*
X55788753Y-166936047D01*
X55875518Y-167145516D01*
X55919750Y-167367886D01*
X55919750Y-167594614D01*
X55875518Y-167816984D01*
X55788753Y-168026453D01*
X55662790Y-168214970D01*
X55502470Y-168375290D01*
X55313953Y-168501253D01*
X55104484Y-168588018D01*
X54993299Y-168610134D01*
X54882115Y-168632250D01*
X54655385Y-168632250D01*
X54544201Y-168610134D01*
X54433016Y-168588018D01*
X54223547Y-168501253D01*
X54035030Y-168375290D01*
X53874710Y-168214970D01*
X53748747Y-168026453D01*
X53661982Y-167816984D01*
X53617750Y-167594614D01*
X53617750Y-167367886D01*
X53661982Y-167145516D01*
X53748747Y-166936047D01*
X53874710Y-166747530D01*
X54035030Y-166587210D01*
X54223547Y-166461247D01*
X54433016Y-166374482D01*
X54544201Y-166352366D01*
X54655385Y-166330250D01*
X54882115Y-166330250D01*
X54993299Y-166352366D01*
X54993299Y-166352366D01*
G37*
G36*
X83568299Y-166352366D02*
G01*
X83679484Y-166374482D01*
X83888953Y-166461247D01*
X84077470Y-166587210D01*
X84237790Y-166747530D01*
X84363753Y-166936047D01*
X84450518Y-167145516D01*
X84494750Y-167367886D01*
X84494750Y-167594614D01*
X84450518Y-167816984D01*
X84363753Y-168026453D01*
X84237790Y-168214970D01*
X84077470Y-168375290D01*
X83888953Y-168501253D01*
X83679484Y-168588018D01*
X83568299Y-168610134D01*
X83457115Y-168632250D01*
X83230385Y-168632250D01*
X83119201Y-168610134D01*
X83008016Y-168588018D01*
X82798547Y-168501253D01*
X82610030Y-168375290D01*
X82449710Y-168214970D01*
X82323747Y-168026453D01*
X82236982Y-167816984D01*
X82192750Y-167594614D01*
X82192750Y-167367886D01*
X82236982Y-167145516D01*
X82323747Y-166936047D01*
X82449710Y-166747530D01*
X82610030Y-166587210D01*
X82798547Y-166461247D01*
X83008016Y-166374482D01*
X83119201Y-166352366D01*
X83230385Y-166330250D01*
X83457115Y-166330250D01*
X83568299Y-166352366D01*
X83568299Y-166352366D01*
G37*
G36*
X40559833Y-164000340D02*
G01*
X40788452Y-164045814D01*
X41075266Y-164164617D01*
X41333392Y-164337091D01*
X41552909Y-164556608D01*
X41725383Y-164814734D01*
X41844186Y-165101548D01*
X41904750Y-165406028D01*
X41904750Y-165716472D01*
X41844186Y-166020952D01*
X41725383Y-166307766D01*
X41552909Y-166565892D01*
X41333392Y-166785409D01*
X41075266Y-166957883D01*
X40788452Y-167076686D01*
X40559833Y-167122160D01*
X40483974Y-167137250D01*
X40173526Y-167137250D01*
X40097667Y-167122160D01*
X39869048Y-167076686D01*
X39582234Y-166957883D01*
X39324108Y-166785409D01*
X39104591Y-166565892D01*
X38932117Y-166307766D01*
X38813314Y-166020952D01*
X38752750Y-165716472D01*
X38752750Y-165406028D01*
X38813314Y-165101548D01*
X38932117Y-164814734D01*
X39104591Y-164556608D01*
X39324108Y-164337091D01*
X39582234Y-164164617D01*
X39869048Y-164045814D01*
X40097667Y-164000340D01*
X40173526Y-163985250D01*
X40483974Y-163985250D01*
X40559833Y-164000340D01*
X40559833Y-164000340D01*
G37*
G36*
X64359833Y-164000340D02*
G01*
X64588452Y-164045814D01*
X64875266Y-164164617D01*
X65133392Y-164337091D01*
X65352909Y-164556608D01*
X65525383Y-164814734D01*
X65644186Y-165101548D01*
X65704750Y-165406028D01*
X65704750Y-165716472D01*
X65644186Y-166020952D01*
X65525383Y-166307766D01*
X65352909Y-166565892D01*
X65133392Y-166785409D01*
X64875266Y-166957883D01*
X64588452Y-167076686D01*
X64359833Y-167122160D01*
X64283974Y-167137250D01*
X63973526Y-167137250D01*
X63897667Y-167122160D01*
X63669048Y-167076686D01*
X63382234Y-166957883D01*
X63124108Y-166785409D01*
X62904591Y-166565892D01*
X62732117Y-166307766D01*
X62613314Y-166020952D01*
X62552750Y-165716472D01*
X62552750Y-165406028D01*
X62613314Y-165101548D01*
X62732117Y-164814734D01*
X62904591Y-164556608D01*
X63124108Y-164337091D01*
X63382234Y-164164617D01*
X63669048Y-164045814D01*
X63897667Y-164000340D01*
X63973526Y-163985250D01*
X64283974Y-163985250D01*
X64359833Y-164000340D01*
X64359833Y-164000340D01*
G37*
G36*
X100452004Y-161064068D02*
G01*
X100825261Y-161218676D01*
X100825263Y-161218677D01*
X101161186Y-161443134D01*
X101446866Y-161728814D01*
X101671324Y-162064739D01*
X101825932Y-162437996D01*
X101904750Y-162834243D01*
X101904750Y-163238257D01*
X101825932Y-163634504D01*
X101680648Y-163985250D01*
X101671323Y-164007763D01*
X101446866Y-164343686D01*
X101161186Y-164629366D01*
X100825263Y-164853823D01*
X100825262Y-164853824D01*
X100825261Y-164853824D01*
X100452004Y-165008432D01*
X100055757Y-165087250D01*
X99651743Y-165087250D01*
X99255496Y-165008432D01*
X98882239Y-164853824D01*
X98882238Y-164853824D01*
X98882237Y-164853823D01*
X98546314Y-164629366D01*
X98260634Y-164343686D01*
X98036177Y-164007763D01*
X98026852Y-163985250D01*
X97881568Y-163634504D01*
X97802750Y-163238257D01*
X97802750Y-162834243D01*
X97881568Y-162437996D01*
X98036176Y-162064739D01*
X98260634Y-161728814D01*
X98546314Y-161443134D01*
X98882237Y-161218677D01*
X98882239Y-161218676D01*
X99255496Y-161064068D01*
X99651743Y-160985250D01*
X100055757Y-160985250D01*
X100452004Y-161064068D01*
X100452004Y-161064068D01*
G37*
G36*
X105047262Y-162140177D02*
G01*
X105196562Y-162169874D01*
X105360534Y-162237794D01*
X105508104Y-162336397D01*
X105633603Y-162461896D01*
X105732206Y-162609466D01*
X105800126Y-162773438D01*
X105834750Y-162947509D01*
X105834750Y-163124991D01*
X105800126Y-163299062D01*
X105732206Y-163463034D01*
X105633603Y-163610604D01*
X105508104Y-163736103D01*
X105360534Y-163834706D01*
X105196562Y-163902626D01*
X105047262Y-163932323D01*
X105022492Y-163937250D01*
X104845008Y-163937250D01*
X104820238Y-163932323D01*
X104670938Y-163902626D01*
X104506966Y-163834706D01*
X104359396Y-163736103D01*
X104233897Y-163610604D01*
X104135294Y-163463034D01*
X104067374Y-163299062D01*
X104032750Y-163124991D01*
X104032750Y-162947509D01*
X104067374Y-162773438D01*
X104135294Y-162609466D01*
X104233897Y-162461896D01*
X104359396Y-162336397D01*
X104506966Y-162237794D01*
X104670938Y-162169874D01*
X104820238Y-162140177D01*
X104845008Y-162135250D01*
X105022492Y-162135250D01*
X105047262Y-162140177D01*
X105047262Y-162140177D01*
G37*
G36*
X94887262Y-162140177D02*
G01*
X95036562Y-162169874D01*
X95200534Y-162237794D01*
X95348104Y-162336397D01*
X95473603Y-162461896D01*
X95572206Y-162609466D01*
X95640126Y-162773438D01*
X95674750Y-162947509D01*
X95674750Y-163124991D01*
X95640126Y-163299062D01*
X95572206Y-163463034D01*
X95473603Y-163610604D01*
X95348104Y-163736103D01*
X95200534Y-163834706D01*
X95036562Y-163902626D01*
X94887262Y-163932323D01*
X94862492Y-163937250D01*
X94685008Y-163937250D01*
X94660238Y-163932323D01*
X94510938Y-163902626D01*
X94346966Y-163834706D01*
X94199396Y-163736103D01*
X94073897Y-163610604D01*
X93975294Y-163463034D01*
X93907374Y-163299062D01*
X93872750Y-163124991D01*
X93872750Y-162947509D01*
X93907374Y-162773438D01*
X93975294Y-162609466D01*
X94073897Y-162461896D01*
X94199396Y-162336397D01*
X94346966Y-162237794D01*
X94510938Y-162169874D01*
X94660238Y-162140177D01*
X94685008Y-162135250D01*
X94862492Y-162135250D01*
X94887262Y-162140177D01*
X94887262Y-162140177D01*
G37*
G36*
X96268299Y-159367366D02*
G01*
X96379484Y-159389482D01*
X96588953Y-159476247D01*
X96777470Y-159602210D01*
X96937790Y-159762530D01*
X97063753Y-159951047D01*
X97150518Y-160160516D01*
X97194750Y-160382886D01*
X97194750Y-160609614D01*
X97150518Y-160831984D01*
X97063753Y-161041453D01*
X96937790Y-161229970D01*
X96777470Y-161390290D01*
X96588953Y-161516253D01*
X96379484Y-161603018D01*
X96268299Y-161625134D01*
X96157115Y-161647250D01*
X95930385Y-161647250D01*
X95819201Y-161625134D01*
X95708016Y-161603018D01*
X95498547Y-161516253D01*
X95310030Y-161390290D01*
X95149710Y-161229970D01*
X95023747Y-161041453D01*
X94936982Y-160831984D01*
X94892750Y-160609614D01*
X94892750Y-160382886D01*
X94936982Y-160160516D01*
X95023747Y-159951047D01*
X95149710Y-159762530D01*
X95310030Y-159602210D01*
X95498547Y-159476247D01*
X95708016Y-159389482D01*
X95819201Y-159367366D01*
X95930385Y-159345250D01*
X96157115Y-159345250D01*
X96268299Y-159367366D01*
X96268299Y-159367366D01*
G37*
G36*
X102618299Y-156827366D02*
G01*
X102729484Y-156849482D01*
X102938953Y-156936247D01*
X103127470Y-157062210D01*
X103287790Y-157222530D01*
X103413753Y-157411047D01*
X103500518Y-157620516D01*
X103544750Y-157842886D01*
X103544750Y-158069614D01*
X103500518Y-158291984D01*
X103413753Y-158501453D01*
X103287790Y-158689970D01*
X103127470Y-158850290D01*
X102938953Y-158976253D01*
X102729484Y-159063018D01*
X102618299Y-159085134D01*
X102507115Y-159107250D01*
X102280385Y-159107250D01*
X102169201Y-159085134D01*
X102058016Y-159063018D01*
X101848547Y-158976253D01*
X101660030Y-158850290D01*
X101499710Y-158689970D01*
X101373747Y-158501453D01*
X101286982Y-158291984D01*
X101242750Y-158069614D01*
X101242750Y-157842886D01*
X101286982Y-157620516D01*
X101373747Y-157411047D01*
X101499710Y-157222530D01*
X101660030Y-157062210D01*
X101848547Y-156936247D01*
X102058016Y-156849482D01*
X102169201Y-156827366D01*
X102280385Y-156805250D01*
X102507115Y-156805250D01*
X102618299Y-156827366D01*
X102618299Y-156827366D01*
G37*
G36*
X81402004Y-151539068D02*
G01*
X81775261Y-151693676D01*
X81775263Y-151693677D01*
X82111186Y-151918134D01*
X82396866Y-152203814D01*
X82557144Y-152443686D01*
X82621324Y-152539739D01*
X82775932Y-152912996D01*
X82854750Y-153309243D01*
X82854750Y-153713257D01*
X82775932Y-154109504D01*
X82621324Y-154482761D01*
X82621323Y-154482763D01*
X82396866Y-154818686D01*
X82111186Y-155104366D01*
X81775263Y-155328823D01*
X81775262Y-155328824D01*
X81775261Y-155328824D01*
X81402004Y-155483432D01*
X81005757Y-155562250D01*
X80601743Y-155562250D01*
X80205496Y-155483432D01*
X79832239Y-155328824D01*
X79832238Y-155328824D01*
X79832237Y-155328823D01*
X79496314Y-155104366D01*
X79210634Y-154818686D01*
X78986177Y-154482763D01*
X78986176Y-154482761D01*
X78831568Y-154109504D01*
X78752750Y-153713257D01*
X78752750Y-153309243D01*
X78831568Y-152912996D01*
X78986176Y-152539739D01*
X79050357Y-152443686D01*
X79210634Y-152203814D01*
X79496314Y-151918134D01*
X79832237Y-151693677D01*
X79832239Y-151693676D01*
X80205496Y-151539068D01*
X80601743Y-151460250D01*
X81005757Y-151460250D01*
X81402004Y-151539068D01*
X81402004Y-151539068D01*
G37*
G36*
X62352004Y-151539068D02*
G01*
X62725261Y-151693676D01*
X62725263Y-151693677D01*
X63061186Y-151918134D01*
X63346866Y-152203814D01*
X63507144Y-152443686D01*
X63571324Y-152539739D01*
X63725932Y-152912996D01*
X63804750Y-153309243D01*
X63804750Y-153713257D01*
X63725932Y-154109504D01*
X63571324Y-154482761D01*
X63571323Y-154482763D01*
X63346866Y-154818686D01*
X63061186Y-155104366D01*
X62725263Y-155328823D01*
X62725262Y-155328824D01*
X62725261Y-155328824D01*
X62352004Y-155483432D01*
X61955757Y-155562250D01*
X61551743Y-155562250D01*
X61155496Y-155483432D01*
X60782239Y-155328824D01*
X60782238Y-155328824D01*
X60782237Y-155328823D01*
X60446314Y-155104366D01*
X60160634Y-154818686D01*
X59936177Y-154482763D01*
X59936176Y-154482761D01*
X59781568Y-154109504D01*
X59702750Y-153713257D01*
X59702750Y-153309243D01*
X59781568Y-152912996D01*
X59936176Y-152539739D01*
X60000357Y-152443686D01*
X60160634Y-152203814D01*
X60446314Y-151918134D01*
X60782237Y-151693677D01*
X60782239Y-151693676D01*
X61155496Y-151539068D01*
X61551743Y-151460250D01*
X61955757Y-151460250D01*
X62352004Y-151539068D01*
X62352004Y-151539068D01*
G37*
G36*
X43302004Y-151539068D02*
G01*
X43675261Y-151693676D01*
X43675263Y-151693677D01*
X44011186Y-151918134D01*
X44296866Y-152203814D01*
X44457144Y-152443686D01*
X44521324Y-152539739D01*
X44675932Y-152912996D01*
X44754750Y-153309243D01*
X44754750Y-153713257D01*
X44675932Y-154109504D01*
X44521324Y-154482761D01*
X44521323Y-154482763D01*
X44296866Y-154818686D01*
X44011186Y-155104366D01*
X43675263Y-155328823D01*
X43675262Y-155328824D01*
X43675261Y-155328824D01*
X43302004Y-155483432D01*
X42905757Y-155562250D01*
X42501743Y-155562250D01*
X42105496Y-155483432D01*
X41732239Y-155328824D01*
X41732238Y-155328824D01*
X41732237Y-155328823D01*
X41396314Y-155104366D01*
X41110634Y-154818686D01*
X40886177Y-154482763D01*
X40886176Y-154482761D01*
X40731568Y-154109504D01*
X40652750Y-153713257D01*
X40652750Y-153309243D01*
X40731568Y-152912996D01*
X40886176Y-152539739D01*
X40950357Y-152443686D01*
X41110634Y-152203814D01*
X41396314Y-151918134D01*
X41732237Y-151693677D01*
X41732239Y-151693676D01*
X42105496Y-151539068D01*
X42501743Y-151460250D01*
X42905757Y-151460250D01*
X43302004Y-151539068D01*
X43302004Y-151539068D01*
G37*
G36*
X75837262Y-152615177D02*
G01*
X75986562Y-152644874D01*
X76150534Y-152712794D01*
X76298104Y-152811397D01*
X76423603Y-152936896D01*
X76522206Y-153084466D01*
X76590126Y-153248438D01*
X76624750Y-153422509D01*
X76624750Y-153599991D01*
X76590126Y-153774062D01*
X76522206Y-153938034D01*
X76423603Y-154085604D01*
X76298104Y-154211103D01*
X76150534Y-154309706D01*
X75986562Y-154377626D01*
X75837262Y-154407323D01*
X75812492Y-154412250D01*
X75635008Y-154412250D01*
X75610238Y-154407323D01*
X75460938Y-154377626D01*
X75296966Y-154309706D01*
X75149396Y-154211103D01*
X75023897Y-154085604D01*
X74925294Y-153938034D01*
X74857374Y-153774062D01*
X74822750Y-153599991D01*
X74822750Y-153422509D01*
X74857374Y-153248438D01*
X74925294Y-153084466D01*
X75023897Y-152936896D01*
X75149396Y-152811397D01*
X75296966Y-152712794D01*
X75460938Y-152644874D01*
X75610238Y-152615177D01*
X75635008Y-152610250D01*
X75812492Y-152610250D01*
X75837262Y-152615177D01*
X75837262Y-152615177D01*
G37*
G36*
X56787262Y-152615177D02*
G01*
X56936562Y-152644874D01*
X57100534Y-152712794D01*
X57248104Y-152811397D01*
X57373603Y-152936896D01*
X57472206Y-153084466D01*
X57540126Y-153248438D01*
X57574750Y-153422509D01*
X57574750Y-153599991D01*
X57540126Y-153774062D01*
X57472206Y-153938034D01*
X57373603Y-154085604D01*
X57248104Y-154211103D01*
X57100534Y-154309706D01*
X56936562Y-154377626D01*
X56787262Y-154407323D01*
X56762492Y-154412250D01*
X56585008Y-154412250D01*
X56560238Y-154407323D01*
X56410938Y-154377626D01*
X56246966Y-154309706D01*
X56099396Y-154211103D01*
X55973897Y-154085604D01*
X55875294Y-153938034D01*
X55807374Y-153774062D01*
X55772750Y-153599991D01*
X55772750Y-153422509D01*
X55807374Y-153248438D01*
X55875294Y-153084466D01*
X55973897Y-152936896D01*
X56099396Y-152811397D01*
X56246966Y-152712794D01*
X56410938Y-152644874D01*
X56560238Y-152615177D01*
X56585008Y-152610250D01*
X56762492Y-152610250D01*
X56787262Y-152615177D01*
X56787262Y-152615177D01*
G37*
G36*
X66947262Y-152615177D02*
G01*
X67096562Y-152644874D01*
X67260534Y-152712794D01*
X67408104Y-152811397D01*
X67533603Y-152936896D01*
X67632206Y-153084466D01*
X67700126Y-153248438D01*
X67734750Y-153422509D01*
X67734750Y-153599991D01*
X67700126Y-153774062D01*
X67632206Y-153938034D01*
X67533603Y-154085604D01*
X67408104Y-154211103D01*
X67260534Y-154309706D01*
X67096562Y-154377626D01*
X66947262Y-154407323D01*
X66922492Y-154412250D01*
X66745008Y-154412250D01*
X66720238Y-154407323D01*
X66570938Y-154377626D01*
X66406966Y-154309706D01*
X66259396Y-154211103D01*
X66133897Y-154085604D01*
X66035294Y-153938034D01*
X65967374Y-153774062D01*
X65932750Y-153599991D01*
X65932750Y-153422509D01*
X65967374Y-153248438D01*
X66035294Y-153084466D01*
X66133897Y-152936896D01*
X66259396Y-152811397D01*
X66406966Y-152712794D01*
X66570938Y-152644874D01*
X66720238Y-152615177D01*
X66745008Y-152610250D01*
X66922492Y-152610250D01*
X66947262Y-152615177D01*
X66947262Y-152615177D01*
G37*
G36*
X47897262Y-152615177D02*
G01*
X48046562Y-152644874D01*
X48210534Y-152712794D01*
X48358104Y-152811397D01*
X48483603Y-152936896D01*
X48582206Y-153084466D01*
X48650126Y-153248438D01*
X48684750Y-153422509D01*
X48684750Y-153599991D01*
X48650126Y-153774062D01*
X48582206Y-153938034D01*
X48483603Y-154085604D01*
X48358104Y-154211103D01*
X48210534Y-154309706D01*
X48046562Y-154377626D01*
X47897262Y-154407323D01*
X47872492Y-154412250D01*
X47695008Y-154412250D01*
X47670238Y-154407323D01*
X47520938Y-154377626D01*
X47356966Y-154309706D01*
X47209396Y-154211103D01*
X47083897Y-154085604D01*
X46985294Y-153938034D01*
X46917374Y-153774062D01*
X46882750Y-153599991D01*
X46882750Y-153422509D01*
X46917374Y-153248438D01*
X46985294Y-153084466D01*
X47083897Y-152936896D01*
X47209396Y-152811397D01*
X47356966Y-152712794D01*
X47520938Y-152644874D01*
X47670238Y-152615177D01*
X47695008Y-152610250D01*
X47872492Y-152610250D01*
X47897262Y-152615177D01*
X47897262Y-152615177D01*
G37*
G36*
X37737262Y-152615177D02*
G01*
X37886562Y-152644874D01*
X38050534Y-152712794D01*
X38198104Y-152811397D01*
X38323603Y-152936896D01*
X38422206Y-153084466D01*
X38490126Y-153248438D01*
X38524750Y-153422509D01*
X38524750Y-153599991D01*
X38490126Y-153774062D01*
X38422206Y-153938034D01*
X38323603Y-154085604D01*
X38198104Y-154211103D01*
X38050534Y-154309706D01*
X37886562Y-154377626D01*
X37737262Y-154407323D01*
X37712492Y-154412250D01*
X37535008Y-154412250D01*
X37510238Y-154407323D01*
X37360938Y-154377626D01*
X37196966Y-154309706D01*
X37049396Y-154211103D01*
X36923897Y-154085604D01*
X36825294Y-153938034D01*
X36757374Y-153774062D01*
X36722750Y-153599991D01*
X36722750Y-153422509D01*
X36757374Y-153248438D01*
X36825294Y-153084466D01*
X36923897Y-152936896D01*
X37049396Y-152811397D01*
X37196966Y-152712794D01*
X37360938Y-152644874D01*
X37510238Y-152615177D01*
X37535008Y-152610250D01*
X37712492Y-152610250D01*
X37737262Y-152615177D01*
X37737262Y-152615177D01*
G37*
G36*
X85997262Y-152615177D02*
G01*
X86146562Y-152644874D01*
X86310534Y-152712794D01*
X86458104Y-152811397D01*
X86583603Y-152936896D01*
X86682206Y-153084466D01*
X86750126Y-153248438D01*
X86784750Y-153422509D01*
X86784750Y-153599991D01*
X86750126Y-153774062D01*
X86682206Y-153938034D01*
X86583603Y-154085604D01*
X86458104Y-154211103D01*
X86310534Y-154309706D01*
X86146562Y-154377626D01*
X85997262Y-154407323D01*
X85972492Y-154412250D01*
X85795008Y-154412250D01*
X85770238Y-154407323D01*
X85620938Y-154377626D01*
X85456966Y-154309706D01*
X85309396Y-154211103D01*
X85183897Y-154085604D01*
X85085294Y-153938034D01*
X85017374Y-153774062D01*
X84982750Y-153599991D01*
X84982750Y-153422509D01*
X85017374Y-153248438D01*
X85085294Y-153084466D01*
X85183897Y-152936896D01*
X85309396Y-152811397D01*
X85456966Y-152712794D01*
X85620938Y-152644874D01*
X85770238Y-152615177D01*
X85795008Y-152610250D01*
X85972492Y-152610250D01*
X85997262Y-152615177D01*
X85997262Y-152615177D01*
G37*
G36*
X108692004Y-149164068D02*
G01*
X109065261Y-149318676D01*
X109065263Y-149318677D01*
X109401186Y-149543134D01*
X109686866Y-149828814D01*
X109768673Y-149951246D01*
X109911324Y-150164739D01*
X110065932Y-150537996D01*
X110144750Y-150934243D01*
X110144750Y-151338257D01*
X110065932Y-151734504D01*
X109923644Y-152078018D01*
X109911323Y-152107763D01*
X109686866Y-152443686D01*
X109401186Y-152729366D01*
X109065263Y-152953823D01*
X109065262Y-152953824D01*
X109065261Y-152953824D01*
X108692004Y-153108432D01*
X108295757Y-153187250D01*
X107891743Y-153187250D01*
X107495496Y-153108432D01*
X107122239Y-152953824D01*
X107122238Y-152953824D01*
X107122237Y-152953823D01*
X106786314Y-152729366D01*
X106500634Y-152443686D01*
X106276177Y-152107763D01*
X106263856Y-152078018D01*
X106121568Y-151734504D01*
X106042750Y-151338257D01*
X106042750Y-150934243D01*
X106121568Y-150537996D01*
X106276176Y-150164739D01*
X106418828Y-149951246D01*
X106500634Y-149828814D01*
X106786314Y-149543134D01*
X107122237Y-149318677D01*
X107122239Y-149318676D01*
X107495496Y-149164068D01*
X107891743Y-149085250D01*
X108295757Y-149085250D01*
X108692004Y-149164068D01*
X108692004Y-149164068D01*
G37*
G36*
X93084833Y-149575340D02*
G01*
X93313452Y-149620814D01*
X93600266Y-149739617D01*
X93858392Y-149912091D01*
X94077909Y-150131608D01*
X94250383Y-150389734D01*
X94369186Y-150676548D01*
X94429750Y-150981028D01*
X94429750Y-151291472D01*
X94369186Y-151595952D01*
X94250383Y-151882766D01*
X94077909Y-152140892D01*
X93858392Y-152360409D01*
X93600266Y-152532883D01*
X93313452Y-152651686D01*
X93084833Y-152697160D01*
X93008974Y-152712250D01*
X92698526Y-152712250D01*
X92622667Y-152697160D01*
X92394048Y-152651686D01*
X92107234Y-152532883D01*
X91849108Y-152360409D01*
X91629591Y-152140892D01*
X91457117Y-151882766D01*
X91338314Y-151595952D01*
X91277750Y-151291472D01*
X91277750Y-150981028D01*
X91338314Y-150676548D01*
X91457117Y-150389734D01*
X91629591Y-150131608D01*
X91849108Y-149912091D01*
X92107234Y-149739617D01*
X92394048Y-149620814D01*
X92622667Y-149575340D01*
X92698526Y-149560250D01*
X93008974Y-149560250D01*
X93084833Y-149575340D01*
X93084833Y-149575340D01*
G37*
G36*
X39118299Y-149842366D02*
G01*
X39229484Y-149864482D01*
X39438953Y-149951247D01*
X39627470Y-150077210D01*
X39787790Y-150237530D01*
X39913753Y-150426047D01*
X40000518Y-150635516D01*
X40044750Y-150857886D01*
X40044750Y-151084614D01*
X40000518Y-151306984D01*
X39913753Y-151516453D01*
X39787790Y-151704970D01*
X39627470Y-151865290D01*
X39438953Y-151991253D01*
X39229484Y-152078018D01*
X39118299Y-152100134D01*
X39007115Y-152122250D01*
X38780385Y-152122250D01*
X38669201Y-152100134D01*
X38558016Y-152078018D01*
X38348547Y-151991253D01*
X38160030Y-151865290D01*
X37999710Y-151704970D01*
X37873747Y-151516453D01*
X37786982Y-151306984D01*
X37742750Y-151084614D01*
X37742750Y-150857886D01*
X37786982Y-150635516D01*
X37873747Y-150426047D01*
X37999710Y-150237530D01*
X38160030Y-150077210D01*
X38348547Y-149951247D01*
X38558016Y-149864482D01*
X38669201Y-149842366D01*
X38780385Y-149820250D01*
X39007115Y-149820250D01*
X39118299Y-149842366D01*
X39118299Y-149842366D01*
G37*
G36*
X77218299Y-149842366D02*
G01*
X77329484Y-149864482D01*
X77538953Y-149951247D01*
X77727470Y-150077210D01*
X77887790Y-150237530D01*
X78013753Y-150426047D01*
X78100518Y-150635516D01*
X78144750Y-150857886D01*
X78144750Y-151084614D01*
X78100518Y-151306984D01*
X78013753Y-151516453D01*
X77887790Y-151704970D01*
X77727470Y-151865290D01*
X77538953Y-151991253D01*
X77329484Y-152078018D01*
X77218299Y-152100134D01*
X77107115Y-152122250D01*
X76880385Y-152122250D01*
X76769201Y-152100134D01*
X76658016Y-152078018D01*
X76448547Y-151991253D01*
X76260030Y-151865290D01*
X76099710Y-151704970D01*
X75973747Y-151516453D01*
X75886982Y-151306984D01*
X75842750Y-151084614D01*
X75842750Y-150857886D01*
X75886982Y-150635516D01*
X75973747Y-150426047D01*
X76099710Y-150237530D01*
X76260030Y-150077210D01*
X76448547Y-149951247D01*
X76658016Y-149864482D01*
X76769201Y-149842366D01*
X76880385Y-149820250D01*
X77107115Y-149820250D01*
X77218299Y-149842366D01*
X77218299Y-149842366D01*
G37*
G36*
X58168299Y-149842366D02*
G01*
X58279484Y-149864482D01*
X58488953Y-149951247D01*
X58677470Y-150077210D01*
X58837790Y-150237530D01*
X58963753Y-150426047D01*
X59050518Y-150635516D01*
X59094750Y-150857886D01*
X59094750Y-151084614D01*
X59050518Y-151306984D01*
X58963753Y-151516453D01*
X58837790Y-151704970D01*
X58677470Y-151865290D01*
X58488953Y-151991253D01*
X58279484Y-152078018D01*
X58168299Y-152100134D01*
X58057115Y-152122250D01*
X57830385Y-152122250D01*
X57719201Y-152100134D01*
X57608016Y-152078018D01*
X57398547Y-151991253D01*
X57210030Y-151865290D01*
X57049710Y-151704970D01*
X56923747Y-151516453D01*
X56836982Y-151306984D01*
X56792750Y-151084614D01*
X56792750Y-150857886D01*
X56836982Y-150635516D01*
X56923747Y-150426047D01*
X57049710Y-150237530D01*
X57210030Y-150077210D01*
X57398547Y-149951247D01*
X57608016Y-149864482D01*
X57719201Y-149842366D01*
X57830385Y-149820250D01*
X58057115Y-149820250D01*
X58168299Y-149842366D01*
X58168299Y-149842366D01*
G37*
G36*
X64518299Y-147302366D02*
G01*
X64629484Y-147324482D01*
X64838953Y-147411247D01*
X65027470Y-147537210D01*
X65187790Y-147697530D01*
X65313753Y-147886047D01*
X65400518Y-148095516D01*
X65444750Y-148317886D01*
X65444750Y-148544614D01*
X65400518Y-148766984D01*
X65313753Y-148976453D01*
X65187790Y-149164970D01*
X65027470Y-149325290D01*
X64838953Y-149451253D01*
X64629484Y-149538018D01*
X64518299Y-149560134D01*
X64407115Y-149582250D01*
X64180385Y-149582250D01*
X64069201Y-149560134D01*
X63958016Y-149538018D01*
X63748547Y-149451253D01*
X63560030Y-149325290D01*
X63399710Y-149164970D01*
X63273747Y-148976453D01*
X63186982Y-148766984D01*
X63142750Y-148544614D01*
X63142750Y-148317886D01*
X63186982Y-148095516D01*
X63273747Y-147886047D01*
X63399710Y-147697530D01*
X63560030Y-147537210D01*
X63748547Y-147411247D01*
X63958016Y-147324482D01*
X64069201Y-147302366D01*
X64180385Y-147280250D01*
X64407115Y-147280250D01*
X64518299Y-147302366D01*
X64518299Y-147302366D01*
G37*
G36*
X45468299Y-147302366D02*
G01*
X45579484Y-147324482D01*
X45788953Y-147411247D01*
X45977470Y-147537210D01*
X46137790Y-147697530D01*
X46263753Y-147886047D01*
X46350518Y-148095516D01*
X46394750Y-148317886D01*
X46394750Y-148544614D01*
X46350518Y-148766984D01*
X46263753Y-148976453D01*
X46137790Y-149164970D01*
X45977470Y-149325290D01*
X45788953Y-149451253D01*
X45579484Y-149538018D01*
X45468299Y-149560134D01*
X45357115Y-149582250D01*
X45130385Y-149582250D01*
X45019201Y-149560134D01*
X44908016Y-149538018D01*
X44698547Y-149451253D01*
X44510030Y-149325290D01*
X44349710Y-149164970D01*
X44223747Y-148976453D01*
X44136982Y-148766984D01*
X44092750Y-148544614D01*
X44092750Y-148317886D01*
X44136982Y-148095516D01*
X44223747Y-147886047D01*
X44349710Y-147697530D01*
X44510030Y-147537210D01*
X44698547Y-147411247D01*
X44908016Y-147324482D01*
X45019201Y-147302366D01*
X45130385Y-147280250D01*
X45357115Y-147280250D01*
X45468299Y-147302366D01*
X45468299Y-147302366D01*
G37*
G36*
X83568299Y-147302366D02*
G01*
X83679484Y-147324482D01*
X83888953Y-147411247D01*
X84077470Y-147537210D01*
X84237790Y-147697530D01*
X84363753Y-147886047D01*
X84450518Y-148095516D01*
X84494750Y-148317886D01*
X84494750Y-148544614D01*
X84450518Y-148766984D01*
X84363753Y-148976453D01*
X84237790Y-149164970D01*
X84077470Y-149325290D01*
X83888953Y-149451253D01*
X83679484Y-149538018D01*
X83568299Y-149560134D01*
X83457115Y-149582250D01*
X83230385Y-149582250D01*
X83119201Y-149560134D01*
X83008016Y-149538018D01*
X82798547Y-149451253D01*
X82610030Y-149325290D01*
X82449710Y-149164970D01*
X82323747Y-148976453D01*
X82236982Y-148766984D01*
X82192750Y-148544614D01*
X82192750Y-148317886D01*
X82236982Y-148095516D01*
X82323747Y-147886047D01*
X82449710Y-147697530D01*
X82610030Y-147537210D01*
X82798547Y-147411247D01*
X83008016Y-147324482D01*
X83119201Y-147302366D01*
X83230385Y-147280250D01*
X83457115Y-147280250D01*
X83568299Y-147302366D01*
X83568299Y-147302366D01*
G37*
G36*
X108692004Y-134864068D02*
G01*
X109065261Y-135018676D01*
X109065263Y-135018677D01*
X109401186Y-135243134D01*
X109686866Y-135528814D01*
X109847144Y-135768686D01*
X109911324Y-135864739D01*
X110065932Y-136237996D01*
X110144750Y-136634243D01*
X110144750Y-137038257D01*
X110065932Y-137434504D01*
X109911324Y-137807761D01*
X109911323Y-137807763D01*
X109686866Y-138143686D01*
X109401186Y-138429366D01*
X109065263Y-138653823D01*
X109065262Y-138653824D01*
X109065261Y-138653824D01*
X108692004Y-138808432D01*
X108295757Y-138887250D01*
X107891743Y-138887250D01*
X107495496Y-138808432D01*
X107122239Y-138653824D01*
X107122238Y-138653824D01*
X107122237Y-138653823D01*
X106786314Y-138429366D01*
X106500634Y-138143686D01*
X106276177Y-137807763D01*
X106276176Y-137807761D01*
X106121568Y-137434504D01*
X106042750Y-137038257D01*
X106042750Y-136634243D01*
X106121568Y-136237996D01*
X106276176Y-135864739D01*
X106340357Y-135768686D01*
X106500634Y-135528814D01*
X106786314Y-135243134D01*
X107122237Y-135018677D01*
X107122239Y-135018676D01*
X107495496Y-134864068D01*
X107891743Y-134785250D01*
X108295757Y-134785250D01*
X108692004Y-134864068D01*
X108692004Y-134864068D01*
G37*
G36*
X93084833Y-135275340D02*
G01*
X93313452Y-135320814D01*
X93600266Y-135439617D01*
X93858392Y-135612091D01*
X94077909Y-135831608D01*
X94250383Y-136089734D01*
X94369186Y-136376548D01*
X94429750Y-136681028D01*
X94429750Y-136991472D01*
X94369186Y-137295952D01*
X94250383Y-137582766D01*
X94077909Y-137840892D01*
X93858392Y-138060409D01*
X93600266Y-138232883D01*
X93313452Y-138351686D01*
X93084833Y-138397160D01*
X93008974Y-138412250D01*
X92698526Y-138412250D01*
X92622667Y-138397160D01*
X92394048Y-138351686D01*
X92107234Y-138232883D01*
X91849108Y-138060409D01*
X91629591Y-137840892D01*
X91457117Y-137582766D01*
X91338314Y-137295952D01*
X91277750Y-136991472D01*
X91277750Y-136681028D01*
X91338314Y-136376548D01*
X91457117Y-136089734D01*
X91629591Y-135831608D01*
X91849108Y-135612091D01*
X92107234Y-135439617D01*
X92394048Y-135320814D01*
X92622667Y-135275340D01*
X92698526Y-135260250D01*
X93008974Y-135260250D01*
X93084833Y-135275340D01*
X93084833Y-135275340D01*
G37*
G36*
X62352004Y-132489068D02*
G01*
X62725261Y-132643676D01*
X62725263Y-132643677D01*
X63061186Y-132868134D01*
X63346866Y-133153814D01*
X63571324Y-133489739D01*
X63725932Y-133862996D01*
X63804750Y-134259243D01*
X63804750Y-134663257D01*
X63725932Y-135059504D01*
X63571324Y-135432761D01*
X63571323Y-135432763D01*
X63346866Y-135768686D01*
X63061186Y-136054366D01*
X62725263Y-136278823D01*
X62725262Y-136278824D01*
X62725261Y-136278824D01*
X62352004Y-136433432D01*
X61955757Y-136512250D01*
X61551743Y-136512250D01*
X61155496Y-136433432D01*
X60782239Y-136278824D01*
X60782238Y-136278824D01*
X60782237Y-136278823D01*
X60446314Y-136054366D01*
X60160634Y-135768686D01*
X59936177Y-135432763D01*
X59936176Y-135432761D01*
X59781568Y-135059504D01*
X59702750Y-134663257D01*
X59702750Y-134259243D01*
X59781568Y-133862996D01*
X59936176Y-133489739D01*
X60160634Y-133153814D01*
X60446314Y-132868134D01*
X60782237Y-132643677D01*
X60782239Y-132643676D01*
X61155496Y-132489068D01*
X61551743Y-132410250D01*
X61955757Y-132410250D01*
X62352004Y-132489068D01*
X62352004Y-132489068D01*
G37*
G36*
X81402004Y-132489068D02*
G01*
X81775261Y-132643676D01*
X81775263Y-132643677D01*
X82111186Y-132868134D01*
X82396866Y-133153814D01*
X82621324Y-133489739D01*
X82775932Y-133862996D01*
X82854750Y-134259243D01*
X82854750Y-134663257D01*
X82775932Y-135059504D01*
X82621324Y-135432761D01*
X82621323Y-135432763D01*
X82396866Y-135768686D01*
X82111186Y-136054366D01*
X81775263Y-136278823D01*
X81775262Y-136278824D01*
X81775261Y-136278824D01*
X81402004Y-136433432D01*
X81005757Y-136512250D01*
X80601743Y-136512250D01*
X80205496Y-136433432D01*
X79832239Y-136278824D01*
X79832238Y-136278824D01*
X79832237Y-136278823D01*
X79496314Y-136054366D01*
X79210634Y-135768686D01*
X78986177Y-135432763D01*
X78986176Y-135432761D01*
X78831568Y-135059504D01*
X78752750Y-134663257D01*
X78752750Y-134259243D01*
X78831568Y-133862996D01*
X78986176Y-133489739D01*
X79210634Y-133153814D01*
X79496314Y-132868134D01*
X79832237Y-132643677D01*
X79832239Y-132643676D01*
X80205496Y-132489068D01*
X80601743Y-132410250D01*
X81005757Y-132410250D01*
X81402004Y-132489068D01*
X81402004Y-132489068D01*
G37*
G36*
X43302004Y-132489068D02*
G01*
X43675261Y-132643676D01*
X43675263Y-132643677D01*
X44011186Y-132868134D01*
X44296866Y-133153814D01*
X44521324Y-133489739D01*
X44675932Y-133862996D01*
X44754750Y-134259243D01*
X44754750Y-134663257D01*
X44675932Y-135059504D01*
X44521324Y-135432761D01*
X44521323Y-135432763D01*
X44296866Y-135768686D01*
X44011186Y-136054366D01*
X43675263Y-136278823D01*
X43675262Y-136278824D01*
X43675261Y-136278824D01*
X43302004Y-136433432D01*
X42905757Y-136512250D01*
X42501743Y-136512250D01*
X42105496Y-136433432D01*
X41732239Y-136278824D01*
X41732238Y-136278824D01*
X41732237Y-136278823D01*
X41396314Y-136054366D01*
X41110634Y-135768686D01*
X40886177Y-135432763D01*
X40886176Y-135432761D01*
X40731568Y-135059504D01*
X40652750Y-134663257D01*
X40652750Y-134259243D01*
X40731568Y-133862996D01*
X40886176Y-133489739D01*
X41110634Y-133153814D01*
X41396314Y-132868134D01*
X41732237Y-132643677D01*
X41732239Y-132643676D01*
X42105496Y-132489068D01*
X42501743Y-132410250D01*
X42905757Y-132410250D01*
X43302004Y-132489068D01*
X43302004Y-132489068D01*
G37*
G36*
X75837262Y-133565177D02*
G01*
X75986562Y-133594874D01*
X76150534Y-133662794D01*
X76298104Y-133761397D01*
X76423603Y-133886896D01*
X76522206Y-134034466D01*
X76590126Y-134198438D01*
X76624750Y-134372509D01*
X76624750Y-134549991D01*
X76590126Y-134724062D01*
X76522206Y-134888034D01*
X76423603Y-135035604D01*
X76298104Y-135161103D01*
X76150534Y-135259706D01*
X75986562Y-135327626D01*
X75837262Y-135357323D01*
X75812492Y-135362250D01*
X75635008Y-135362250D01*
X75610238Y-135357323D01*
X75460938Y-135327626D01*
X75296966Y-135259706D01*
X75149396Y-135161103D01*
X75023897Y-135035604D01*
X74925294Y-134888034D01*
X74857374Y-134724062D01*
X74822750Y-134549991D01*
X74822750Y-134372509D01*
X74857374Y-134198438D01*
X74925294Y-134034466D01*
X75023897Y-133886896D01*
X75149396Y-133761397D01*
X75296966Y-133662794D01*
X75460938Y-133594874D01*
X75610238Y-133565177D01*
X75635008Y-133560250D01*
X75812492Y-133560250D01*
X75837262Y-133565177D01*
X75837262Y-133565177D01*
G37*
G36*
X56787262Y-133565177D02*
G01*
X56936562Y-133594874D01*
X57100534Y-133662794D01*
X57248104Y-133761397D01*
X57373603Y-133886896D01*
X57472206Y-134034466D01*
X57540126Y-134198438D01*
X57574750Y-134372509D01*
X57574750Y-134549991D01*
X57540126Y-134724062D01*
X57472206Y-134888034D01*
X57373603Y-135035604D01*
X57248104Y-135161103D01*
X57100534Y-135259706D01*
X56936562Y-135327626D01*
X56787262Y-135357323D01*
X56762492Y-135362250D01*
X56585008Y-135362250D01*
X56560238Y-135357323D01*
X56410938Y-135327626D01*
X56246966Y-135259706D01*
X56099396Y-135161103D01*
X55973897Y-135035604D01*
X55875294Y-134888034D01*
X55807374Y-134724062D01*
X55772750Y-134549991D01*
X55772750Y-134372509D01*
X55807374Y-134198438D01*
X55875294Y-134034466D01*
X55973897Y-133886896D01*
X56099396Y-133761397D01*
X56246966Y-133662794D01*
X56410938Y-133594874D01*
X56560238Y-133565177D01*
X56585008Y-133560250D01*
X56762492Y-133560250D01*
X56787262Y-133565177D01*
X56787262Y-133565177D01*
G37*
G36*
X85997262Y-133565177D02*
G01*
X86146562Y-133594874D01*
X86310534Y-133662794D01*
X86458104Y-133761397D01*
X86583603Y-133886896D01*
X86682206Y-134034466D01*
X86750126Y-134198438D01*
X86784750Y-134372509D01*
X86784750Y-134549991D01*
X86750126Y-134724062D01*
X86682206Y-134888034D01*
X86583603Y-135035604D01*
X86458104Y-135161103D01*
X86310534Y-135259706D01*
X86146562Y-135327626D01*
X85997262Y-135357323D01*
X85972492Y-135362250D01*
X85795008Y-135362250D01*
X85770238Y-135357323D01*
X85620938Y-135327626D01*
X85456966Y-135259706D01*
X85309396Y-135161103D01*
X85183897Y-135035604D01*
X85085294Y-134888034D01*
X85017374Y-134724062D01*
X84982750Y-134549991D01*
X84982750Y-134372509D01*
X85017374Y-134198438D01*
X85085294Y-134034466D01*
X85183897Y-133886896D01*
X85309396Y-133761397D01*
X85456966Y-133662794D01*
X85620938Y-133594874D01*
X85770238Y-133565177D01*
X85795008Y-133560250D01*
X85972492Y-133560250D01*
X85997262Y-133565177D01*
X85997262Y-133565177D01*
G37*
G36*
X47897262Y-133565177D02*
G01*
X48046562Y-133594874D01*
X48210534Y-133662794D01*
X48358104Y-133761397D01*
X48483603Y-133886896D01*
X48582206Y-134034466D01*
X48650126Y-134198438D01*
X48684750Y-134372509D01*
X48684750Y-134549991D01*
X48650126Y-134724062D01*
X48582206Y-134888034D01*
X48483603Y-135035604D01*
X48358104Y-135161103D01*
X48210534Y-135259706D01*
X48046562Y-135327626D01*
X47897262Y-135357323D01*
X47872492Y-135362250D01*
X47695008Y-135362250D01*
X47670238Y-135357323D01*
X47520938Y-135327626D01*
X47356966Y-135259706D01*
X47209396Y-135161103D01*
X47083897Y-135035604D01*
X46985294Y-134888034D01*
X46917374Y-134724062D01*
X46882750Y-134549991D01*
X46882750Y-134372509D01*
X46917374Y-134198438D01*
X46985294Y-134034466D01*
X47083897Y-133886896D01*
X47209396Y-133761397D01*
X47356966Y-133662794D01*
X47520938Y-133594874D01*
X47670238Y-133565177D01*
X47695008Y-133560250D01*
X47872492Y-133560250D01*
X47897262Y-133565177D01*
X47897262Y-133565177D01*
G37*
G36*
X37737262Y-133565177D02*
G01*
X37886562Y-133594874D01*
X38050534Y-133662794D01*
X38198104Y-133761397D01*
X38323603Y-133886896D01*
X38422206Y-134034466D01*
X38490126Y-134198438D01*
X38524750Y-134372509D01*
X38524750Y-134549991D01*
X38490126Y-134724062D01*
X38422206Y-134888034D01*
X38323603Y-135035604D01*
X38198104Y-135161103D01*
X38050534Y-135259706D01*
X37886562Y-135327626D01*
X37737262Y-135357323D01*
X37712492Y-135362250D01*
X37535008Y-135362250D01*
X37510238Y-135357323D01*
X37360938Y-135327626D01*
X37196966Y-135259706D01*
X37049396Y-135161103D01*
X36923897Y-135035604D01*
X36825294Y-134888034D01*
X36757374Y-134724062D01*
X36722750Y-134549991D01*
X36722750Y-134372509D01*
X36757374Y-134198438D01*
X36825294Y-134034466D01*
X36923897Y-133886896D01*
X37049396Y-133761397D01*
X37196966Y-133662794D01*
X37360938Y-133594874D01*
X37510238Y-133565177D01*
X37535008Y-133560250D01*
X37712492Y-133560250D01*
X37737262Y-133565177D01*
X37737262Y-133565177D01*
G37*
G36*
X66947262Y-133565177D02*
G01*
X67096562Y-133594874D01*
X67260534Y-133662794D01*
X67408104Y-133761397D01*
X67533603Y-133886896D01*
X67632206Y-134034466D01*
X67700126Y-134198438D01*
X67734750Y-134372509D01*
X67734750Y-134549991D01*
X67700126Y-134724062D01*
X67632206Y-134888034D01*
X67533603Y-135035604D01*
X67408104Y-135161103D01*
X67260534Y-135259706D01*
X67096562Y-135327626D01*
X66947262Y-135357323D01*
X66922492Y-135362250D01*
X66745008Y-135362250D01*
X66720238Y-135357323D01*
X66570938Y-135327626D01*
X66406966Y-135259706D01*
X66259396Y-135161103D01*
X66133897Y-135035604D01*
X66035294Y-134888034D01*
X65967374Y-134724062D01*
X65932750Y-134549991D01*
X65932750Y-134372509D01*
X65967374Y-134198438D01*
X66035294Y-134034466D01*
X66133897Y-133886896D01*
X66259396Y-133761397D01*
X66406966Y-133662794D01*
X66570938Y-133594874D01*
X66720238Y-133565177D01*
X66745008Y-133560250D01*
X66922492Y-133560250D01*
X66947262Y-133565177D01*
X66947262Y-133565177D01*
G37*
G36*
X58168299Y-130792366D02*
G01*
X58279484Y-130814482D01*
X58488953Y-130901247D01*
X58677470Y-131027210D01*
X58837790Y-131187530D01*
X58963753Y-131376047D01*
X59050518Y-131585516D01*
X59094750Y-131807886D01*
X59094750Y-132034614D01*
X59050518Y-132256984D01*
X58963753Y-132466453D01*
X58837790Y-132654970D01*
X58677470Y-132815290D01*
X58488953Y-132941253D01*
X58279484Y-133028018D01*
X58168299Y-133050134D01*
X58057115Y-133072250D01*
X57830385Y-133072250D01*
X57719201Y-133050134D01*
X57608016Y-133028018D01*
X57398547Y-132941253D01*
X57210030Y-132815290D01*
X57049710Y-132654970D01*
X56923747Y-132466453D01*
X56836982Y-132256984D01*
X56792750Y-132034614D01*
X56792750Y-131807886D01*
X56836982Y-131585516D01*
X56923747Y-131376047D01*
X57049710Y-131187530D01*
X57210030Y-131027210D01*
X57398547Y-130901247D01*
X57608016Y-130814482D01*
X57719201Y-130792366D01*
X57830385Y-130770250D01*
X58057115Y-130770250D01*
X58168299Y-130792366D01*
X58168299Y-130792366D01*
G37*
G36*
X39118299Y-130792366D02*
G01*
X39229484Y-130814482D01*
X39438953Y-130901247D01*
X39627470Y-131027210D01*
X39787790Y-131187530D01*
X39913753Y-131376047D01*
X40000518Y-131585516D01*
X40044750Y-131807886D01*
X40044750Y-132034614D01*
X40000518Y-132256984D01*
X39913753Y-132466453D01*
X39787790Y-132654970D01*
X39627470Y-132815290D01*
X39438953Y-132941253D01*
X39229484Y-133028018D01*
X39118299Y-133050134D01*
X39007115Y-133072250D01*
X38780385Y-133072250D01*
X38669201Y-133050134D01*
X38558016Y-133028018D01*
X38348547Y-132941253D01*
X38160030Y-132815290D01*
X37999710Y-132654970D01*
X37873747Y-132466453D01*
X37786982Y-132256984D01*
X37742750Y-132034614D01*
X37742750Y-131807886D01*
X37786982Y-131585516D01*
X37873747Y-131376047D01*
X37999710Y-131187530D01*
X38160030Y-131027210D01*
X38348547Y-130901247D01*
X38558016Y-130814482D01*
X38669201Y-130792366D01*
X38780385Y-130770250D01*
X39007115Y-130770250D01*
X39118299Y-130792366D01*
X39118299Y-130792366D01*
G37*
G36*
X77218299Y-130792366D02*
G01*
X77329484Y-130814482D01*
X77538953Y-130901247D01*
X77727470Y-131027210D01*
X77887790Y-131187530D01*
X78013753Y-131376047D01*
X78100518Y-131585516D01*
X78144750Y-131807886D01*
X78144750Y-132034614D01*
X78100518Y-132256984D01*
X78013753Y-132466453D01*
X77887790Y-132654970D01*
X77727470Y-132815290D01*
X77538953Y-132941253D01*
X77329484Y-133028018D01*
X77218299Y-133050134D01*
X77107115Y-133072250D01*
X76880385Y-133072250D01*
X76769201Y-133050134D01*
X76658016Y-133028018D01*
X76448547Y-132941253D01*
X76260030Y-132815290D01*
X76099710Y-132654970D01*
X75973747Y-132466453D01*
X75886982Y-132256984D01*
X75842750Y-132034614D01*
X75842750Y-131807886D01*
X75886982Y-131585516D01*
X75973747Y-131376047D01*
X76099710Y-131187530D01*
X76260030Y-131027210D01*
X76448547Y-130901247D01*
X76658016Y-130814482D01*
X76769201Y-130792366D01*
X76880385Y-130770250D01*
X77107115Y-130770250D01*
X77218299Y-130792366D01*
X77218299Y-130792366D01*
G37*
G36*
X64518299Y-128252366D02*
G01*
X64629484Y-128274482D01*
X64838953Y-128361247D01*
X65027470Y-128487210D01*
X65187790Y-128647530D01*
X65313753Y-128836047D01*
X65400518Y-129045516D01*
X65444750Y-129267886D01*
X65444750Y-129494614D01*
X65400518Y-129716984D01*
X65313753Y-129926453D01*
X65187790Y-130114970D01*
X65027470Y-130275290D01*
X64838953Y-130401253D01*
X64629484Y-130488018D01*
X64518299Y-130510134D01*
X64407115Y-130532250D01*
X64180385Y-130532250D01*
X64069201Y-130510134D01*
X63958016Y-130488018D01*
X63748547Y-130401253D01*
X63560030Y-130275290D01*
X63399710Y-130114970D01*
X63273747Y-129926453D01*
X63186982Y-129716984D01*
X63142750Y-129494614D01*
X63142750Y-129267886D01*
X63186982Y-129045516D01*
X63273747Y-128836047D01*
X63399710Y-128647530D01*
X63560030Y-128487210D01*
X63748547Y-128361247D01*
X63958016Y-128274482D01*
X64069201Y-128252366D01*
X64180385Y-128230250D01*
X64407115Y-128230250D01*
X64518299Y-128252366D01*
X64518299Y-128252366D01*
G37*
G36*
X83568299Y-128252366D02*
G01*
X83679484Y-128274482D01*
X83888953Y-128361247D01*
X84077470Y-128487210D01*
X84237790Y-128647530D01*
X84363753Y-128836047D01*
X84450518Y-129045516D01*
X84494750Y-129267886D01*
X84494750Y-129494614D01*
X84450518Y-129716984D01*
X84363753Y-129926453D01*
X84237790Y-130114970D01*
X84077470Y-130275290D01*
X83888953Y-130401253D01*
X83679484Y-130488018D01*
X83568299Y-130510134D01*
X83457115Y-130532250D01*
X83230385Y-130532250D01*
X83119201Y-130510134D01*
X83008016Y-130488018D01*
X82798547Y-130401253D01*
X82610030Y-130275290D01*
X82449710Y-130114970D01*
X82323747Y-129926453D01*
X82236982Y-129716984D01*
X82192750Y-129494614D01*
X82192750Y-129267886D01*
X82236982Y-129045516D01*
X82323747Y-128836047D01*
X82449710Y-128647530D01*
X82610030Y-128487210D01*
X82798547Y-128361247D01*
X83008016Y-128274482D01*
X83119201Y-128252366D01*
X83230385Y-128230250D01*
X83457115Y-128230250D01*
X83568299Y-128252366D01*
X83568299Y-128252366D01*
G37*
G36*
X45468299Y-128252366D02*
G01*
X45579484Y-128274482D01*
X45788953Y-128361247D01*
X45977470Y-128487210D01*
X46137790Y-128647530D01*
X46263753Y-128836047D01*
X46350518Y-129045516D01*
X46394750Y-129267886D01*
X46394750Y-129494614D01*
X46350518Y-129716984D01*
X46263753Y-129926453D01*
X46137790Y-130114970D01*
X45977470Y-130275290D01*
X45788953Y-130401253D01*
X45579484Y-130488018D01*
X45468299Y-130510134D01*
X45357115Y-130532250D01*
X45130385Y-130532250D01*
X45019201Y-130510134D01*
X44908016Y-130488018D01*
X44698547Y-130401253D01*
X44510030Y-130275290D01*
X44349710Y-130114970D01*
X44223747Y-129926453D01*
X44136982Y-129716984D01*
X44092750Y-129494614D01*
X44092750Y-129267886D01*
X44136982Y-129045516D01*
X44223747Y-128836047D01*
X44349710Y-128647530D01*
X44510030Y-128487210D01*
X44698547Y-128361247D01*
X44908016Y-128274482D01*
X45019201Y-128252366D01*
X45130385Y-128230250D01*
X45357115Y-128230250D01*
X45468299Y-128252366D01*
X45468299Y-128252366D01*
G37*
G36*
X100452004Y-122964068D02*
G01*
X100825261Y-123118676D01*
X100825263Y-123118677D01*
X101161186Y-123343134D01*
X101446866Y-123628814D01*
X101671324Y-123964739D01*
X101825932Y-124337996D01*
X101904750Y-124734243D01*
X101904750Y-125138257D01*
X101825932Y-125534504D01*
X101671324Y-125907761D01*
X101671323Y-125907763D01*
X101446866Y-126243686D01*
X101161186Y-126529366D01*
X100825263Y-126753823D01*
X100825262Y-126753824D01*
X100825261Y-126753824D01*
X100452004Y-126908432D01*
X100055757Y-126987250D01*
X99651743Y-126987250D01*
X99255496Y-126908432D01*
X98882239Y-126753824D01*
X98882238Y-126753824D01*
X98882237Y-126753823D01*
X98546314Y-126529366D01*
X98260634Y-126243686D01*
X98036177Y-125907763D01*
X98036176Y-125907761D01*
X97881568Y-125534504D01*
X97802750Y-125138257D01*
X97802750Y-124734243D01*
X97881568Y-124337996D01*
X98036176Y-123964739D01*
X98260634Y-123628814D01*
X98546314Y-123343134D01*
X98882237Y-123118677D01*
X98882239Y-123118676D01*
X99255496Y-122964068D01*
X99651743Y-122885250D01*
X100055757Y-122885250D01*
X100452004Y-122964068D01*
X100452004Y-122964068D01*
G37*
G36*
X105047262Y-124040177D02*
G01*
X105196562Y-124069874D01*
X105360534Y-124137794D01*
X105508104Y-124236397D01*
X105633603Y-124361896D01*
X105732206Y-124509466D01*
X105800126Y-124673438D01*
X105834750Y-124847509D01*
X105834750Y-125024991D01*
X105800126Y-125199062D01*
X105732206Y-125363034D01*
X105633603Y-125510604D01*
X105508104Y-125636103D01*
X105360534Y-125734706D01*
X105196562Y-125802626D01*
X105047262Y-125832323D01*
X105022492Y-125837250D01*
X104845008Y-125837250D01*
X104820238Y-125832323D01*
X104670938Y-125802626D01*
X104506966Y-125734706D01*
X104359396Y-125636103D01*
X104233897Y-125510604D01*
X104135294Y-125363034D01*
X104067374Y-125199062D01*
X104032750Y-125024991D01*
X104032750Y-124847509D01*
X104067374Y-124673438D01*
X104135294Y-124509466D01*
X104233897Y-124361896D01*
X104359396Y-124236397D01*
X104506966Y-124137794D01*
X104670938Y-124069874D01*
X104820238Y-124040177D01*
X104845008Y-124035250D01*
X105022492Y-124035250D01*
X105047262Y-124040177D01*
X105047262Y-124040177D01*
G37*
G36*
X94887262Y-124040177D02*
G01*
X95036562Y-124069874D01*
X95200534Y-124137794D01*
X95348104Y-124236397D01*
X95473603Y-124361896D01*
X95572206Y-124509466D01*
X95640126Y-124673438D01*
X95674750Y-124847509D01*
X95674750Y-125024991D01*
X95640126Y-125199062D01*
X95572206Y-125363034D01*
X95473603Y-125510604D01*
X95348104Y-125636103D01*
X95200534Y-125734706D01*
X95036562Y-125802626D01*
X94887262Y-125832323D01*
X94862492Y-125837250D01*
X94685008Y-125837250D01*
X94660238Y-125832323D01*
X94510938Y-125802626D01*
X94346966Y-125734706D01*
X94199396Y-125636103D01*
X94073897Y-125510604D01*
X93975294Y-125363034D01*
X93907374Y-125199062D01*
X93872750Y-125024991D01*
X93872750Y-124847509D01*
X93907374Y-124673438D01*
X93975294Y-124509466D01*
X94073897Y-124361896D01*
X94199396Y-124236397D01*
X94346966Y-124137794D01*
X94510938Y-124069874D01*
X94660238Y-124040177D01*
X94685008Y-124035250D01*
X94862492Y-124035250D01*
X94887262Y-124040177D01*
X94887262Y-124040177D01*
G37*
G36*
X96268299Y-121267366D02*
G01*
X96379484Y-121289482D01*
X96588953Y-121376247D01*
X96777470Y-121502210D01*
X96937790Y-121662530D01*
X97063753Y-121851047D01*
X97150518Y-122060516D01*
X97194750Y-122282886D01*
X97194750Y-122509614D01*
X97150518Y-122731984D01*
X97063753Y-122941453D01*
X96937790Y-123129970D01*
X96777470Y-123290290D01*
X96588953Y-123416253D01*
X96379484Y-123503018D01*
X96268299Y-123525134D01*
X96157115Y-123547250D01*
X95930385Y-123547250D01*
X95819201Y-123525134D01*
X95708016Y-123503018D01*
X95498547Y-123416253D01*
X95310030Y-123290290D01*
X95149710Y-123129970D01*
X95023747Y-122941453D01*
X94936982Y-122731984D01*
X94892750Y-122509614D01*
X94892750Y-122282886D01*
X94936982Y-122060516D01*
X95023747Y-121851047D01*
X95149710Y-121662530D01*
X95310030Y-121502210D01*
X95498547Y-121376247D01*
X95708016Y-121289482D01*
X95819201Y-121267366D01*
X95930385Y-121245250D01*
X96157115Y-121245250D01*
X96268299Y-121267366D01*
X96268299Y-121267366D01*
G37*
G36*
X102618299Y-118727366D02*
G01*
X102729484Y-118749482D01*
X102938953Y-118836247D01*
X103127470Y-118962210D01*
X103287790Y-119122530D01*
X103413753Y-119311047D01*
X103500518Y-119520516D01*
X103544750Y-119742886D01*
X103544750Y-119969614D01*
X103500518Y-120191984D01*
X103413753Y-120401453D01*
X103287790Y-120589970D01*
X103127470Y-120750290D01*
X102938953Y-120876253D01*
X102729484Y-120963018D01*
X102618299Y-120985134D01*
X102507115Y-121007250D01*
X102280385Y-121007250D01*
X102169201Y-120985134D01*
X102058016Y-120963018D01*
X101848547Y-120876253D01*
X101660030Y-120750290D01*
X101499710Y-120589970D01*
X101373747Y-120401453D01*
X101286982Y-120191984D01*
X101242750Y-119969614D01*
X101242750Y-119742886D01*
X101286982Y-119520516D01*
X101373747Y-119311047D01*
X101499710Y-119122530D01*
X101660030Y-118962210D01*
X101848547Y-118836247D01*
X102058016Y-118749482D01*
X102169201Y-118727366D01*
X102280385Y-118705250D01*
X102507115Y-118705250D01*
X102618299Y-118727366D01*
X102618299Y-118727366D01*
G37*
G36*
X62352004Y-113439068D02*
G01*
X62725261Y-113593676D01*
X62725263Y-113593677D01*
X63061186Y-113818134D01*
X63346866Y-114103814D01*
X63507144Y-114343686D01*
X63571324Y-114439739D01*
X63725932Y-114812996D01*
X63804750Y-115209243D01*
X63804750Y-115613257D01*
X63725932Y-116009504D01*
X63571324Y-116382761D01*
X63571323Y-116382763D01*
X63346866Y-116718686D01*
X63061186Y-117004366D01*
X62725263Y-117228823D01*
X62725262Y-117228824D01*
X62725261Y-117228824D01*
X62352004Y-117383432D01*
X61955757Y-117462250D01*
X61551743Y-117462250D01*
X61155496Y-117383432D01*
X60782239Y-117228824D01*
X60782238Y-117228824D01*
X60782237Y-117228823D01*
X60446314Y-117004366D01*
X60160634Y-116718686D01*
X59936177Y-116382763D01*
X59936176Y-116382761D01*
X59781568Y-116009504D01*
X59702750Y-115613257D01*
X59702750Y-115209243D01*
X59781568Y-114812996D01*
X59936176Y-114439739D01*
X60000357Y-114343686D01*
X60160634Y-114103814D01*
X60446314Y-113818134D01*
X60782237Y-113593677D01*
X60782239Y-113593676D01*
X61155496Y-113439068D01*
X61551743Y-113360250D01*
X61955757Y-113360250D01*
X62352004Y-113439068D01*
X62352004Y-113439068D01*
G37*
G36*
X81402004Y-113439068D02*
G01*
X81775261Y-113593676D01*
X81775263Y-113593677D01*
X82111186Y-113818134D01*
X82396866Y-114103814D01*
X82557144Y-114343686D01*
X82621324Y-114439739D01*
X82775932Y-114812996D01*
X82854750Y-115209243D01*
X82854750Y-115613257D01*
X82775932Y-116009504D01*
X82621324Y-116382761D01*
X82621323Y-116382763D01*
X82396866Y-116718686D01*
X82111186Y-117004366D01*
X81775263Y-117228823D01*
X81775262Y-117228824D01*
X81775261Y-117228824D01*
X81402004Y-117383432D01*
X81005757Y-117462250D01*
X80601743Y-117462250D01*
X80205496Y-117383432D01*
X79832239Y-117228824D01*
X79832238Y-117228824D01*
X79832237Y-117228823D01*
X79496314Y-117004366D01*
X79210634Y-116718686D01*
X78986177Y-116382763D01*
X78986176Y-116382761D01*
X78831568Y-116009504D01*
X78752750Y-115613257D01*
X78752750Y-115209243D01*
X78831568Y-114812996D01*
X78986176Y-114439739D01*
X79050357Y-114343686D01*
X79210634Y-114103814D01*
X79496314Y-113818134D01*
X79832237Y-113593677D01*
X79832239Y-113593676D01*
X80205496Y-113439068D01*
X80601743Y-113360250D01*
X81005757Y-113360250D01*
X81402004Y-113439068D01*
X81402004Y-113439068D01*
G37*
G36*
X43302004Y-113439068D02*
G01*
X43675261Y-113593676D01*
X43675263Y-113593677D01*
X44011186Y-113818134D01*
X44296866Y-114103814D01*
X44457144Y-114343686D01*
X44521324Y-114439739D01*
X44675932Y-114812996D01*
X44754750Y-115209243D01*
X44754750Y-115613257D01*
X44675932Y-116009504D01*
X44521324Y-116382761D01*
X44521323Y-116382763D01*
X44296866Y-116718686D01*
X44011186Y-117004366D01*
X43675263Y-117228823D01*
X43675262Y-117228824D01*
X43675261Y-117228824D01*
X43302004Y-117383432D01*
X42905757Y-117462250D01*
X42501743Y-117462250D01*
X42105496Y-117383432D01*
X41732239Y-117228824D01*
X41732238Y-117228824D01*
X41732237Y-117228823D01*
X41396314Y-117004366D01*
X41110634Y-116718686D01*
X40886177Y-116382763D01*
X40886176Y-116382761D01*
X40731568Y-116009504D01*
X40652750Y-115613257D01*
X40652750Y-115209243D01*
X40731568Y-114812996D01*
X40886176Y-114439739D01*
X40950357Y-114343686D01*
X41110634Y-114103814D01*
X41396314Y-113818134D01*
X41732237Y-113593677D01*
X41732239Y-113593676D01*
X42105496Y-113439068D01*
X42501743Y-113360250D01*
X42905757Y-113360250D01*
X43302004Y-113439068D01*
X43302004Y-113439068D01*
G37*
G36*
X66947262Y-114515177D02*
G01*
X67096562Y-114544874D01*
X67260534Y-114612794D01*
X67408104Y-114711397D01*
X67533603Y-114836896D01*
X67632206Y-114984466D01*
X67700126Y-115148438D01*
X67734750Y-115322509D01*
X67734750Y-115499991D01*
X67700126Y-115674062D01*
X67632206Y-115838034D01*
X67533603Y-115985604D01*
X67408104Y-116111103D01*
X67260534Y-116209706D01*
X67096562Y-116277626D01*
X66947262Y-116307323D01*
X66922492Y-116312250D01*
X66745008Y-116312250D01*
X66720238Y-116307323D01*
X66570938Y-116277626D01*
X66406966Y-116209706D01*
X66259396Y-116111103D01*
X66133897Y-115985604D01*
X66035294Y-115838034D01*
X65967374Y-115674062D01*
X65932750Y-115499991D01*
X65932750Y-115322509D01*
X65967374Y-115148438D01*
X66035294Y-114984466D01*
X66133897Y-114836896D01*
X66259396Y-114711397D01*
X66406966Y-114612794D01*
X66570938Y-114544874D01*
X66720238Y-114515177D01*
X66745008Y-114510250D01*
X66922492Y-114510250D01*
X66947262Y-114515177D01*
X66947262Y-114515177D01*
G37*
G36*
X56787262Y-114515177D02*
G01*
X56936562Y-114544874D01*
X57100534Y-114612794D01*
X57248104Y-114711397D01*
X57373603Y-114836896D01*
X57472206Y-114984466D01*
X57540126Y-115148438D01*
X57574750Y-115322509D01*
X57574750Y-115499991D01*
X57540126Y-115674062D01*
X57472206Y-115838034D01*
X57373603Y-115985604D01*
X57248104Y-116111103D01*
X57100534Y-116209706D01*
X56936562Y-116277626D01*
X56787262Y-116307323D01*
X56762492Y-116312250D01*
X56585008Y-116312250D01*
X56560238Y-116307323D01*
X56410938Y-116277626D01*
X56246966Y-116209706D01*
X56099396Y-116111103D01*
X55973897Y-115985604D01*
X55875294Y-115838034D01*
X55807374Y-115674062D01*
X55772750Y-115499991D01*
X55772750Y-115322509D01*
X55807374Y-115148438D01*
X55875294Y-114984466D01*
X55973897Y-114836896D01*
X56099396Y-114711397D01*
X56246966Y-114612794D01*
X56410938Y-114544874D01*
X56560238Y-114515177D01*
X56585008Y-114510250D01*
X56762492Y-114510250D01*
X56787262Y-114515177D01*
X56787262Y-114515177D01*
G37*
G36*
X47897262Y-114515177D02*
G01*
X48046562Y-114544874D01*
X48210534Y-114612794D01*
X48358104Y-114711397D01*
X48483603Y-114836896D01*
X48582206Y-114984466D01*
X48650126Y-115148438D01*
X48684750Y-115322509D01*
X48684750Y-115499991D01*
X48650126Y-115674062D01*
X48582206Y-115838034D01*
X48483603Y-115985604D01*
X48358104Y-116111103D01*
X48210534Y-116209706D01*
X48046562Y-116277626D01*
X47897262Y-116307323D01*
X47872492Y-116312250D01*
X47695008Y-116312250D01*
X47670238Y-116307323D01*
X47520938Y-116277626D01*
X47356966Y-116209706D01*
X47209396Y-116111103D01*
X47083897Y-115985604D01*
X46985294Y-115838034D01*
X46917374Y-115674062D01*
X46882750Y-115499991D01*
X46882750Y-115322509D01*
X46917374Y-115148438D01*
X46985294Y-114984466D01*
X47083897Y-114836896D01*
X47209396Y-114711397D01*
X47356966Y-114612794D01*
X47520938Y-114544874D01*
X47670238Y-114515177D01*
X47695008Y-114510250D01*
X47872492Y-114510250D01*
X47897262Y-114515177D01*
X47897262Y-114515177D01*
G37*
G36*
X85997262Y-114515177D02*
G01*
X86146562Y-114544874D01*
X86310534Y-114612794D01*
X86458104Y-114711397D01*
X86583603Y-114836896D01*
X86682206Y-114984466D01*
X86750126Y-115148438D01*
X86784750Y-115322509D01*
X86784750Y-115499991D01*
X86750126Y-115674062D01*
X86682206Y-115838034D01*
X86583603Y-115985604D01*
X86458104Y-116111103D01*
X86310534Y-116209706D01*
X86146562Y-116277626D01*
X85997262Y-116307323D01*
X85972492Y-116312250D01*
X85795008Y-116312250D01*
X85770238Y-116307323D01*
X85620938Y-116277626D01*
X85456966Y-116209706D01*
X85309396Y-116111103D01*
X85183897Y-115985604D01*
X85085294Y-115838034D01*
X85017374Y-115674062D01*
X84982750Y-115499991D01*
X84982750Y-115322509D01*
X85017374Y-115148438D01*
X85085294Y-114984466D01*
X85183897Y-114836896D01*
X85309396Y-114711397D01*
X85456966Y-114612794D01*
X85620938Y-114544874D01*
X85770238Y-114515177D01*
X85795008Y-114510250D01*
X85972492Y-114510250D01*
X85997262Y-114515177D01*
X85997262Y-114515177D01*
G37*
G36*
X75837262Y-114515177D02*
G01*
X75986562Y-114544874D01*
X76150534Y-114612794D01*
X76298104Y-114711397D01*
X76423603Y-114836896D01*
X76522206Y-114984466D01*
X76590126Y-115148438D01*
X76624750Y-115322509D01*
X76624750Y-115499991D01*
X76590126Y-115674062D01*
X76522206Y-115838034D01*
X76423603Y-115985604D01*
X76298104Y-116111103D01*
X76150534Y-116209706D01*
X75986562Y-116277626D01*
X75837262Y-116307323D01*
X75812492Y-116312250D01*
X75635008Y-116312250D01*
X75610238Y-116307323D01*
X75460938Y-116277626D01*
X75296966Y-116209706D01*
X75149396Y-116111103D01*
X75023897Y-115985604D01*
X74925294Y-115838034D01*
X74857374Y-115674062D01*
X74822750Y-115499991D01*
X74822750Y-115322509D01*
X74857374Y-115148438D01*
X74925294Y-114984466D01*
X75023897Y-114836896D01*
X75149396Y-114711397D01*
X75296966Y-114612794D01*
X75460938Y-114544874D01*
X75610238Y-114515177D01*
X75635008Y-114510250D01*
X75812492Y-114510250D01*
X75837262Y-114515177D01*
X75837262Y-114515177D01*
G37*
G36*
X37737262Y-114515177D02*
G01*
X37886562Y-114544874D01*
X38050534Y-114612794D01*
X38198104Y-114711397D01*
X38323603Y-114836896D01*
X38422206Y-114984466D01*
X38490126Y-115148438D01*
X38524750Y-115322509D01*
X38524750Y-115499991D01*
X38490126Y-115674062D01*
X38422206Y-115838034D01*
X38323603Y-115985604D01*
X38198104Y-116111103D01*
X38050534Y-116209706D01*
X37886562Y-116277626D01*
X37737262Y-116307323D01*
X37712492Y-116312250D01*
X37535008Y-116312250D01*
X37510238Y-116307323D01*
X37360938Y-116277626D01*
X37196966Y-116209706D01*
X37049396Y-116111103D01*
X36923897Y-115985604D01*
X36825294Y-115838034D01*
X36757374Y-115674062D01*
X36722750Y-115499991D01*
X36722750Y-115322509D01*
X36757374Y-115148438D01*
X36825294Y-114984466D01*
X36923897Y-114836896D01*
X37049396Y-114711397D01*
X37196966Y-114612794D01*
X37360938Y-114544874D01*
X37510238Y-114515177D01*
X37535008Y-114510250D01*
X37712492Y-114510250D01*
X37737262Y-114515177D01*
X37737262Y-114515177D01*
G37*
G36*
X108692004Y-111064068D02*
G01*
X109065261Y-111218676D01*
X109065263Y-111218677D01*
X109401186Y-111443134D01*
X109686866Y-111728814D01*
X109768673Y-111851246D01*
X109911324Y-112064739D01*
X110065932Y-112437996D01*
X110144750Y-112834243D01*
X110144750Y-113238257D01*
X110065932Y-113634504D01*
X109923644Y-113978018D01*
X109911323Y-114007763D01*
X109686866Y-114343686D01*
X109401186Y-114629366D01*
X109065263Y-114853823D01*
X109065262Y-114853824D01*
X109065261Y-114853824D01*
X108692004Y-115008432D01*
X108295757Y-115087250D01*
X107891743Y-115087250D01*
X107495496Y-115008432D01*
X107122239Y-114853824D01*
X107122238Y-114853824D01*
X107122237Y-114853823D01*
X106786314Y-114629366D01*
X106500634Y-114343686D01*
X106276177Y-114007763D01*
X106263856Y-113978018D01*
X106121568Y-113634504D01*
X106042750Y-113238257D01*
X106042750Y-112834243D01*
X106121568Y-112437996D01*
X106276176Y-112064739D01*
X106418828Y-111851246D01*
X106500634Y-111728814D01*
X106786314Y-111443134D01*
X107122237Y-111218677D01*
X107122239Y-111218676D01*
X107495496Y-111064068D01*
X107891743Y-110985250D01*
X108295757Y-110985250D01*
X108692004Y-111064068D01*
X108692004Y-111064068D01*
G37*
G36*
X93084833Y-111475340D02*
G01*
X93313452Y-111520814D01*
X93600266Y-111639617D01*
X93858392Y-111812091D01*
X94077909Y-112031608D01*
X94250383Y-112289734D01*
X94369186Y-112576548D01*
X94429750Y-112881028D01*
X94429750Y-113191472D01*
X94369186Y-113495952D01*
X94250383Y-113782766D01*
X94077909Y-114040892D01*
X93858392Y-114260409D01*
X93600266Y-114432883D01*
X93313452Y-114551686D01*
X93084833Y-114597160D01*
X93008974Y-114612250D01*
X92698526Y-114612250D01*
X92622667Y-114597160D01*
X92394048Y-114551686D01*
X92107234Y-114432883D01*
X91849108Y-114260409D01*
X91629591Y-114040892D01*
X91457117Y-113782766D01*
X91338314Y-113495952D01*
X91277750Y-113191472D01*
X91277750Y-112881028D01*
X91338314Y-112576548D01*
X91457117Y-112289734D01*
X91629591Y-112031608D01*
X91849108Y-111812091D01*
X92107234Y-111639617D01*
X92394048Y-111520814D01*
X92622667Y-111475340D01*
X92698526Y-111460250D01*
X93008974Y-111460250D01*
X93084833Y-111475340D01*
X93084833Y-111475340D01*
G37*
G36*
X77218299Y-111742366D02*
G01*
X77329484Y-111764482D01*
X77538953Y-111851247D01*
X77727470Y-111977210D01*
X77887790Y-112137530D01*
X78013753Y-112326047D01*
X78100518Y-112535516D01*
X78144750Y-112757886D01*
X78144750Y-112984614D01*
X78100518Y-113206984D01*
X78013753Y-113416453D01*
X77887790Y-113604970D01*
X77727470Y-113765290D01*
X77538953Y-113891253D01*
X77329484Y-113978018D01*
X77218299Y-114000134D01*
X77107115Y-114022250D01*
X76880385Y-114022250D01*
X76769201Y-114000134D01*
X76658016Y-113978018D01*
X76448547Y-113891253D01*
X76260030Y-113765290D01*
X76099710Y-113604970D01*
X75973747Y-113416453D01*
X75886982Y-113206984D01*
X75842750Y-112984614D01*
X75842750Y-112757886D01*
X75886982Y-112535516D01*
X75973747Y-112326047D01*
X76099710Y-112137530D01*
X76260030Y-111977210D01*
X76448547Y-111851247D01*
X76658016Y-111764482D01*
X76769201Y-111742366D01*
X76880385Y-111720250D01*
X77107115Y-111720250D01*
X77218299Y-111742366D01*
X77218299Y-111742366D01*
G37*
G36*
X58168299Y-111742366D02*
G01*
X58279484Y-111764482D01*
X58488953Y-111851247D01*
X58677470Y-111977210D01*
X58837790Y-112137530D01*
X58963753Y-112326047D01*
X59050518Y-112535516D01*
X59094750Y-112757886D01*
X59094750Y-112984614D01*
X59050518Y-113206984D01*
X58963753Y-113416453D01*
X58837790Y-113604970D01*
X58677470Y-113765290D01*
X58488953Y-113891253D01*
X58279484Y-113978018D01*
X58168299Y-114000134D01*
X58057115Y-114022250D01*
X57830385Y-114022250D01*
X57719201Y-114000134D01*
X57608016Y-113978018D01*
X57398547Y-113891253D01*
X57210030Y-113765290D01*
X57049710Y-113604970D01*
X56923747Y-113416453D01*
X56836982Y-113206984D01*
X56792750Y-112984614D01*
X56792750Y-112757886D01*
X56836982Y-112535516D01*
X56923747Y-112326047D01*
X57049710Y-112137530D01*
X57210030Y-111977210D01*
X57398547Y-111851247D01*
X57608016Y-111764482D01*
X57719201Y-111742366D01*
X57830385Y-111720250D01*
X58057115Y-111720250D01*
X58168299Y-111742366D01*
X58168299Y-111742366D01*
G37*
G36*
X39118299Y-111742366D02*
G01*
X39229484Y-111764482D01*
X39438953Y-111851247D01*
X39627470Y-111977210D01*
X39787790Y-112137530D01*
X39913753Y-112326047D01*
X40000518Y-112535516D01*
X40044750Y-112757886D01*
X40044750Y-112984614D01*
X40000518Y-113206984D01*
X39913753Y-113416453D01*
X39787790Y-113604970D01*
X39627470Y-113765290D01*
X39438953Y-113891253D01*
X39229484Y-113978018D01*
X39118299Y-114000134D01*
X39007115Y-114022250D01*
X38780385Y-114022250D01*
X38669201Y-114000134D01*
X38558016Y-113978018D01*
X38348547Y-113891253D01*
X38160030Y-113765290D01*
X37999710Y-113604970D01*
X37873747Y-113416453D01*
X37786982Y-113206984D01*
X37742750Y-112984614D01*
X37742750Y-112757886D01*
X37786982Y-112535516D01*
X37873747Y-112326047D01*
X37999710Y-112137530D01*
X38160030Y-111977210D01*
X38348547Y-111851247D01*
X38558016Y-111764482D01*
X38669201Y-111742366D01*
X38780385Y-111720250D01*
X39007115Y-111720250D01*
X39118299Y-111742366D01*
X39118299Y-111742366D01*
G37*
G36*
X83568299Y-109202366D02*
G01*
X83679484Y-109224482D01*
X83888953Y-109311247D01*
X84077470Y-109437210D01*
X84237790Y-109597530D01*
X84363753Y-109786047D01*
X84450518Y-109995516D01*
X84494750Y-110217886D01*
X84494750Y-110444614D01*
X84450518Y-110666984D01*
X84363753Y-110876453D01*
X84237790Y-111064970D01*
X84077470Y-111225290D01*
X83888953Y-111351253D01*
X83679484Y-111438018D01*
X83568299Y-111460134D01*
X83457115Y-111482250D01*
X83230385Y-111482250D01*
X83119201Y-111460134D01*
X83008016Y-111438018D01*
X82798547Y-111351253D01*
X82610030Y-111225290D01*
X82449710Y-111064970D01*
X82323747Y-110876453D01*
X82236982Y-110666984D01*
X82192750Y-110444614D01*
X82192750Y-110217886D01*
X82236982Y-109995516D01*
X82323747Y-109786047D01*
X82449710Y-109597530D01*
X82610030Y-109437210D01*
X82798547Y-109311247D01*
X83008016Y-109224482D01*
X83119201Y-109202366D01*
X83230385Y-109180250D01*
X83457115Y-109180250D01*
X83568299Y-109202366D01*
X83568299Y-109202366D01*
G37*
G36*
X64518299Y-109202366D02*
G01*
X64629484Y-109224482D01*
X64838953Y-109311247D01*
X65027470Y-109437210D01*
X65187790Y-109597530D01*
X65313753Y-109786047D01*
X65400518Y-109995516D01*
X65444750Y-110217886D01*
X65444750Y-110444614D01*
X65400518Y-110666984D01*
X65313753Y-110876453D01*
X65187790Y-111064970D01*
X65027470Y-111225290D01*
X64838953Y-111351253D01*
X64629484Y-111438018D01*
X64518299Y-111460134D01*
X64407115Y-111482250D01*
X64180385Y-111482250D01*
X64069201Y-111460134D01*
X63958016Y-111438018D01*
X63748547Y-111351253D01*
X63560030Y-111225290D01*
X63399710Y-111064970D01*
X63273747Y-110876453D01*
X63186982Y-110666984D01*
X63142750Y-110444614D01*
X63142750Y-110217886D01*
X63186982Y-109995516D01*
X63273747Y-109786047D01*
X63399710Y-109597530D01*
X63560030Y-109437210D01*
X63748547Y-109311247D01*
X63958016Y-109224482D01*
X64069201Y-109202366D01*
X64180385Y-109180250D01*
X64407115Y-109180250D01*
X64518299Y-109202366D01*
X64518299Y-109202366D01*
G37*
G36*
X45468299Y-109202366D02*
G01*
X45579484Y-109224482D01*
X45788953Y-109311247D01*
X45977470Y-109437210D01*
X46137790Y-109597530D01*
X46263753Y-109786047D01*
X46350518Y-109995516D01*
X46394750Y-110217886D01*
X46394750Y-110444614D01*
X46350518Y-110666984D01*
X46263753Y-110876453D01*
X46137790Y-111064970D01*
X45977470Y-111225290D01*
X45788953Y-111351253D01*
X45579484Y-111438018D01*
X45468299Y-111460134D01*
X45357115Y-111482250D01*
X45130385Y-111482250D01*
X45019201Y-111460134D01*
X44908016Y-111438018D01*
X44698547Y-111351253D01*
X44510030Y-111225290D01*
X44349710Y-111064970D01*
X44223747Y-110876453D01*
X44136982Y-110666984D01*
X44092750Y-110444614D01*
X44092750Y-110217886D01*
X44136982Y-109995516D01*
X44223747Y-109786047D01*
X44349710Y-109597530D01*
X44510030Y-109437210D01*
X44698547Y-109311247D01*
X44908016Y-109224482D01*
X45019201Y-109202366D01*
X45130385Y-109180250D01*
X45357115Y-109180250D01*
X45468299Y-109202366D01*
X45468299Y-109202366D01*
G37*
G36*
X81402004Y-94389068D02*
G01*
X81775261Y-94543676D01*
X81775263Y-94543677D01*
X82111186Y-94768134D01*
X82396866Y-95053814D01*
X82621324Y-95389739D01*
X82775932Y-95762996D01*
X82854750Y-96159243D01*
X82854750Y-96563257D01*
X82775932Y-96959504D01*
X82621324Y-97332761D01*
X82621323Y-97332763D01*
X82396866Y-97668686D01*
X82111186Y-97954366D01*
X81775263Y-98178823D01*
X81775262Y-98178824D01*
X81775261Y-98178824D01*
X81402004Y-98333432D01*
X81005757Y-98412250D01*
X80601743Y-98412250D01*
X80205496Y-98333432D01*
X79832239Y-98178824D01*
X79832238Y-98178824D01*
X79832237Y-98178823D01*
X79496314Y-97954366D01*
X79210634Y-97668686D01*
X78986177Y-97332763D01*
X78986176Y-97332761D01*
X78831568Y-96959504D01*
X78752750Y-96563257D01*
X78752750Y-96159243D01*
X78831568Y-95762996D01*
X78986176Y-95389739D01*
X79210634Y-95053814D01*
X79496314Y-94768134D01*
X79832237Y-94543677D01*
X79832239Y-94543676D01*
X80205496Y-94389068D01*
X80601743Y-94310250D01*
X81005757Y-94310250D01*
X81402004Y-94389068D01*
X81402004Y-94389068D01*
G37*
G36*
X43302004Y-94389068D02*
G01*
X43675261Y-94543676D01*
X43675263Y-94543677D01*
X44011186Y-94768134D01*
X44296866Y-95053814D01*
X44521324Y-95389739D01*
X44675932Y-95762996D01*
X44754750Y-96159243D01*
X44754750Y-96563257D01*
X44675932Y-96959504D01*
X44521324Y-97332761D01*
X44521323Y-97332763D01*
X44296866Y-97668686D01*
X44011186Y-97954366D01*
X43675263Y-98178823D01*
X43675262Y-98178824D01*
X43675261Y-98178824D01*
X43302004Y-98333432D01*
X42905757Y-98412250D01*
X42501743Y-98412250D01*
X42105496Y-98333432D01*
X41732239Y-98178824D01*
X41732238Y-98178824D01*
X41732237Y-98178823D01*
X41396314Y-97954366D01*
X41110634Y-97668686D01*
X40886177Y-97332763D01*
X40886176Y-97332761D01*
X40731568Y-96959504D01*
X40652750Y-96563257D01*
X40652750Y-96159243D01*
X40731568Y-95762996D01*
X40886176Y-95389739D01*
X41110634Y-95053814D01*
X41396314Y-94768134D01*
X41732237Y-94543677D01*
X41732239Y-94543676D01*
X42105496Y-94389068D01*
X42501743Y-94310250D01*
X42905757Y-94310250D01*
X43302004Y-94389068D01*
X43302004Y-94389068D01*
G37*
G36*
X62352004Y-94389068D02*
G01*
X62725261Y-94543676D01*
X62725263Y-94543677D01*
X63061186Y-94768134D01*
X63346866Y-95053814D01*
X63571324Y-95389739D01*
X63725932Y-95762996D01*
X63804750Y-96159243D01*
X63804750Y-96563257D01*
X63725932Y-96959504D01*
X63571324Y-97332761D01*
X63571323Y-97332763D01*
X63346866Y-97668686D01*
X63061186Y-97954366D01*
X62725263Y-98178823D01*
X62725262Y-98178824D01*
X62725261Y-98178824D01*
X62352004Y-98333432D01*
X61955757Y-98412250D01*
X61551743Y-98412250D01*
X61155496Y-98333432D01*
X60782239Y-98178824D01*
X60782238Y-98178824D01*
X60782237Y-98178823D01*
X60446314Y-97954366D01*
X60160634Y-97668686D01*
X59936177Y-97332763D01*
X59936176Y-97332761D01*
X59781568Y-96959504D01*
X59702750Y-96563257D01*
X59702750Y-96159243D01*
X59781568Y-95762996D01*
X59936176Y-95389739D01*
X60160634Y-95053814D01*
X60446314Y-94768134D01*
X60782237Y-94543677D01*
X60782239Y-94543676D01*
X61155496Y-94389068D01*
X61551743Y-94310250D01*
X61955757Y-94310250D01*
X62352004Y-94389068D01*
X62352004Y-94389068D01*
G37*
G36*
X100452004Y-94389068D02*
G01*
X100825261Y-94543676D01*
X100825263Y-94543677D01*
X101161186Y-94768134D01*
X101446866Y-95053814D01*
X101671324Y-95389739D01*
X101825932Y-95762996D01*
X101904750Y-96159243D01*
X101904750Y-96563257D01*
X101825932Y-96959504D01*
X101671324Y-97332761D01*
X101671323Y-97332763D01*
X101446866Y-97668686D01*
X101161186Y-97954366D01*
X100825263Y-98178823D01*
X100825262Y-98178824D01*
X100825261Y-98178824D01*
X100452004Y-98333432D01*
X100055757Y-98412250D01*
X99651743Y-98412250D01*
X99255496Y-98333432D01*
X98882239Y-98178824D01*
X98882238Y-98178824D01*
X98882237Y-98178823D01*
X98546314Y-97954366D01*
X98260634Y-97668686D01*
X98036177Y-97332763D01*
X98036176Y-97332761D01*
X97881568Y-96959504D01*
X97802750Y-96563257D01*
X97802750Y-96159243D01*
X97881568Y-95762996D01*
X98036176Y-95389739D01*
X98260634Y-95053814D01*
X98546314Y-94768134D01*
X98882237Y-94543677D01*
X98882239Y-94543676D01*
X99255496Y-94389068D01*
X99651743Y-94310250D01*
X100055757Y-94310250D01*
X100452004Y-94389068D01*
X100452004Y-94389068D01*
G37*
G36*
X85997262Y-95465177D02*
G01*
X86146562Y-95494874D01*
X86310534Y-95562794D01*
X86458104Y-95661397D01*
X86583603Y-95786896D01*
X86682206Y-95934466D01*
X86750126Y-96098438D01*
X86784750Y-96272509D01*
X86784750Y-96449991D01*
X86750126Y-96624062D01*
X86682206Y-96788034D01*
X86583603Y-96935604D01*
X86458104Y-97061103D01*
X86310534Y-97159706D01*
X86146562Y-97227626D01*
X85997262Y-97257323D01*
X85972492Y-97262250D01*
X85795008Y-97262250D01*
X85770238Y-97257323D01*
X85620938Y-97227626D01*
X85456966Y-97159706D01*
X85309396Y-97061103D01*
X85183897Y-96935604D01*
X85085294Y-96788034D01*
X85017374Y-96624062D01*
X84982750Y-96449991D01*
X84982750Y-96272509D01*
X85017374Y-96098438D01*
X85085294Y-95934466D01*
X85183897Y-95786896D01*
X85309396Y-95661397D01*
X85456966Y-95562794D01*
X85620938Y-95494874D01*
X85770238Y-95465177D01*
X85795008Y-95460250D01*
X85972492Y-95460250D01*
X85997262Y-95465177D01*
X85997262Y-95465177D01*
G37*
G36*
X56787262Y-95465177D02*
G01*
X56936562Y-95494874D01*
X57100534Y-95562794D01*
X57248104Y-95661397D01*
X57373603Y-95786896D01*
X57472206Y-95934466D01*
X57540126Y-96098438D01*
X57574750Y-96272509D01*
X57574750Y-96449991D01*
X57540126Y-96624062D01*
X57472206Y-96788034D01*
X57373603Y-96935604D01*
X57248104Y-97061103D01*
X57100534Y-97159706D01*
X56936562Y-97227626D01*
X56787262Y-97257323D01*
X56762492Y-97262250D01*
X56585008Y-97262250D01*
X56560238Y-97257323D01*
X56410938Y-97227626D01*
X56246966Y-97159706D01*
X56099396Y-97061103D01*
X55973897Y-96935604D01*
X55875294Y-96788034D01*
X55807374Y-96624062D01*
X55772750Y-96449991D01*
X55772750Y-96272509D01*
X55807374Y-96098438D01*
X55875294Y-95934466D01*
X55973897Y-95786896D01*
X56099396Y-95661397D01*
X56246966Y-95562794D01*
X56410938Y-95494874D01*
X56560238Y-95465177D01*
X56585008Y-95460250D01*
X56762492Y-95460250D01*
X56787262Y-95465177D01*
X56787262Y-95465177D01*
G37*
G36*
X66947262Y-95465177D02*
G01*
X67096562Y-95494874D01*
X67260534Y-95562794D01*
X67408104Y-95661397D01*
X67533603Y-95786896D01*
X67632206Y-95934466D01*
X67700126Y-96098438D01*
X67734750Y-96272509D01*
X67734750Y-96449991D01*
X67700126Y-96624062D01*
X67632206Y-96788034D01*
X67533603Y-96935604D01*
X67408104Y-97061103D01*
X67260534Y-97159706D01*
X67096562Y-97227626D01*
X66947262Y-97257323D01*
X66922492Y-97262250D01*
X66745008Y-97262250D01*
X66720238Y-97257323D01*
X66570938Y-97227626D01*
X66406966Y-97159706D01*
X66259396Y-97061103D01*
X66133897Y-96935604D01*
X66035294Y-96788034D01*
X65967374Y-96624062D01*
X65932750Y-96449991D01*
X65932750Y-96272509D01*
X65967374Y-96098438D01*
X66035294Y-95934466D01*
X66133897Y-95786896D01*
X66259396Y-95661397D01*
X66406966Y-95562794D01*
X66570938Y-95494874D01*
X66720238Y-95465177D01*
X66745008Y-95460250D01*
X66922492Y-95460250D01*
X66947262Y-95465177D01*
X66947262Y-95465177D01*
G37*
G36*
X105047262Y-95465177D02*
G01*
X105196562Y-95494874D01*
X105360534Y-95562794D01*
X105508104Y-95661397D01*
X105633603Y-95786896D01*
X105732206Y-95934466D01*
X105800126Y-96098438D01*
X105834750Y-96272509D01*
X105834750Y-96449991D01*
X105800126Y-96624062D01*
X105732206Y-96788034D01*
X105633603Y-96935604D01*
X105508104Y-97061103D01*
X105360534Y-97159706D01*
X105196562Y-97227626D01*
X105047262Y-97257323D01*
X105022492Y-97262250D01*
X104845008Y-97262250D01*
X104820238Y-97257323D01*
X104670938Y-97227626D01*
X104506966Y-97159706D01*
X104359396Y-97061103D01*
X104233897Y-96935604D01*
X104135294Y-96788034D01*
X104067374Y-96624062D01*
X104032750Y-96449991D01*
X104032750Y-96272509D01*
X104067374Y-96098438D01*
X104135294Y-95934466D01*
X104233897Y-95786896D01*
X104359396Y-95661397D01*
X104506966Y-95562794D01*
X104670938Y-95494874D01*
X104820238Y-95465177D01*
X104845008Y-95460250D01*
X105022492Y-95460250D01*
X105047262Y-95465177D01*
X105047262Y-95465177D01*
G37*
G36*
X94887262Y-95465177D02*
G01*
X95036562Y-95494874D01*
X95200534Y-95562794D01*
X95348104Y-95661397D01*
X95473603Y-95786896D01*
X95572206Y-95934466D01*
X95640126Y-96098438D01*
X95674750Y-96272509D01*
X95674750Y-96449991D01*
X95640126Y-96624062D01*
X95572206Y-96788034D01*
X95473603Y-96935604D01*
X95348104Y-97061103D01*
X95200534Y-97159706D01*
X95036562Y-97227626D01*
X94887262Y-97257323D01*
X94862492Y-97262250D01*
X94685008Y-97262250D01*
X94660238Y-97257323D01*
X94510938Y-97227626D01*
X94346966Y-97159706D01*
X94199396Y-97061103D01*
X94073897Y-96935604D01*
X93975294Y-96788034D01*
X93907374Y-96624062D01*
X93872750Y-96449991D01*
X93872750Y-96272509D01*
X93907374Y-96098438D01*
X93975294Y-95934466D01*
X94073897Y-95786896D01*
X94199396Y-95661397D01*
X94346966Y-95562794D01*
X94510938Y-95494874D01*
X94660238Y-95465177D01*
X94685008Y-95460250D01*
X94862492Y-95460250D01*
X94887262Y-95465177D01*
X94887262Y-95465177D01*
G37*
G36*
X47897262Y-95465177D02*
G01*
X48046562Y-95494874D01*
X48210534Y-95562794D01*
X48358104Y-95661397D01*
X48483603Y-95786896D01*
X48582206Y-95934466D01*
X48650126Y-96098438D01*
X48684750Y-96272509D01*
X48684750Y-96449991D01*
X48650126Y-96624062D01*
X48582206Y-96788034D01*
X48483603Y-96935604D01*
X48358104Y-97061103D01*
X48210534Y-97159706D01*
X48046562Y-97227626D01*
X47897262Y-97257323D01*
X47872492Y-97262250D01*
X47695008Y-97262250D01*
X47670238Y-97257323D01*
X47520938Y-97227626D01*
X47356966Y-97159706D01*
X47209396Y-97061103D01*
X47083897Y-96935604D01*
X46985294Y-96788034D01*
X46917374Y-96624062D01*
X46882750Y-96449991D01*
X46882750Y-96272509D01*
X46917374Y-96098438D01*
X46985294Y-95934466D01*
X47083897Y-95786896D01*
X47209396Y-95661397D01*
X47356966Y-95562794D01*
X47520938Y-95494874D01*
X47670238Y-95465177D01*
X47695008Y-95460250D01*
X47872492Y-95460250D01*
X47897262Y-95465177D01*
X47897262Y-95465177D01*
G37*
G36*
X37737262Y-95465177D02*
G01*
X37886562Y-95494874D01*
X38050534Y-95562794D01*
X38198104Y-95661397D01*
X38323603Y-95786896D01*
X38422206Y-95934466D01*
X38490126Y-96098438D01*
X38524750Y-96272509D01*
X38524750Y-96449991D01*
X38490126Y-96624062D01*
X38422206Y-96788034D01*
X38323603Y-96935604D01*
X38198104Y-97061103D01*
X38050534Y-97159706D01*
X37886562Y-97227626D01*
X37737262Y-97257323D01*
X37712492Y-97262250D01*
X37535008Y-97262250D01*
X37510238Y-97257323D01*
X37360938Y-97227626D01*
X37196966Y-97159706D01*
X37049396Y-97061103D01*
X36923897Y-96935604D01*
X36825294Y-96788034D01*
X36757374Y-96624062D01*
X36722750Y-96449991D01*
X36722750Y-96272509D01*
X36757374Y-96098438D01*
X36825294Y-95934466D01*
X36923897Y-95786896D01*
X37049396Y-95661397D01*
X37196966Y-95562794D01*
X37360938Y-95494874D01*
X37510238Y-95465177D01*
X37535008Y-95460250D01*
X37712492Y-95460250D01*
X37737262Y-95465177D01*
X37737262Y-95465177D01*
G37*
G36*
X75837262Y-95465177D02*
G01*
X75986562Y-95494874D01*
X76150534Y-95562794D01*
X76298104Y-95661397D01*
X76423603Y-95786896D01*
X76522206Y-95934466D01*
X76590126Y-96098438D01*
X76624750Y-96272509D01*
X76624750Y-96449991D01*
X76590126Y-96624062D01*
X76522206Y-96788034D01*
X76423603Y-96935604D01*
X76298104Y-97061103D01*
X76150534Y-97159706D01*
X75986562Y-97227626D01*
X75837262Y-97257323D01*
X75812492Y-97262250D01*
X75635008Y-97262250D01*
X75610238Y-97257323D01*
X75460938Y-97227626D01*
X75296966Y-97159706D01*
X75149396Y-97061103D01*
X75023897Y-96935604D01*
X74925294Y-96788034D01*
X74857374Y-96624062D01*
X74822750Y-96449991D01*
X74822750Y-96272509D01*
X74857374Y-96098438D01*
X74925294Y-95934466D01*
X75023897Y-95786896D01*
X75149396Y-95661397D01*
X75296966Y-95562794D01*
X75460938Y-95494874D01*
X75610238Y-95465177D01*
X75635008Y-95460250D01*
X75812492Y-95460250D01*
X75837262Y-95465177D01*
X75837262Y-95465177D01*
G37*
G36*
X77218299Y-92692366D02*
G01*
X77329484Y-92714482D01*
X77538953Y-92801247D01*
X77727470Y-92927210D01*
X77887790Y-93087530D01*
X78013753Y-93276047D01*
X78100518Y-93485516D01*
X78144750Y-93707886D01*
X78144750Y-93934614D01*
X78100518Y-94156984D01*
X78013753Y-94366453D01*
X77887790Y-94554970D01*
X77727470Y-94715290D01*
X77538953Y-94841253D01*
X77329484Y-94928018D01*
X77218299Y-94950134D01*
X77107115Y-94972250D01*
X76880385Y-94972250D01*
X76769201Y-94950134D01*
X76658016Y-94928018D01*
X76448547Y-94841253D01*
X76260030Y-94715290D01*
X76099710Y-94554970D01*
X75973747Y-94366453D01*
X75886982Y-94156984D01*
X75842750Y-93934614D01*
X75842750Y-93707886D01*
X75886982Y-93485516D01*
X75973747Y-93276047D01*
X76099710Y-93087530D01*
X76260030Y-92927210D01*
X76448547Y-92801247D01*
X76658016Y-92714482D01*
X76769201Y-92692366D01*
X76880385Y-92670250D01*
X77107115Y-92670250D01*
X77218299Y-92692366D01*
X77218299Y-92692366D01*
G37*
G36*
X96268299Y-92692366D02*
G01*
X96379484Y-92714482D01*
X96588953Y-92801247D01*
X96777470Y-92927210D01*
X96937790Y-93087530D01*
X97063753Y-93276047D01*
X97150518Y-93485516D01*
X97194750Y-93707886D01*
X97194750Y-93934614D01*
X97150518Y-94156984D01*
X97063753Y-94366453D01*
X96937790Y-94554970D01*
X96777470Y-94715290D01*
X96588953Y-94841253D01*
X96379484Y-94928018D01*
X96268299Y-94950134D01*
X96157115Y-94972250D01*
X95930385Y-94972250D01*
X95819201Y-94950134D01*
X95708016Y-94928018D01*
X95498547Y-94841253D01*
X95310030Y-94715290D01*
X95149710Y-94554970D01*
X95023747Y-94366453D01*
X94936982Y-94156984D01*
X94892750Y-93934614D01*
X94892750Y-93707886D01*
X94936982Y-93485516D01*
X95023747Y-93276047D01*
X95149710Y-93087530D01*
X95310030Y-92927210D01*
X95498547Y-92801247D01*
X95708016Y-92714482D01*
X95819201Y-92692366D01*
X95930385Y-92670250D01*
X96157115Y-92670250D01*
X96268299Y-92692366D01*
X96268299Y-92692366D01*
G37*
G36*
X58168299Y-92692366D02*
G01*
X58279484Y-92714482D01*
X58488953Y-92801247D01*
X58677470Y-92927210D01*
X58837790Y-93087530D01*
X58963753Y-93276047D01*
X59050518Y-93485516D01*
X59094750Y-93707886D01*
X59094750Y-93934614D01*
X59050518Y-94156984D01*
X58963753Y-94366453D01*
X58837790Y-94554970D01*
X58677470Y-94715290D01*
X58488953Y-94841253D01*
X58279484Y-94928018D01*
X58168299Y-94950134D01*
X58057115Y-94972250D01*
X57830385Y-94972250D01*
X57719201Y-94950134D01*
X57608016Y-94928018D01*
X57398547Y-94841253D01*
X57210030Y-94715290D01*
X57049710Y-94554970D01*
X56923747Y-94366453D01*
X56836982Y-94156984D01*
X56792750Y-93934614D01*
X56792750Y-93707886D01*
X56836982Y-93485516D01*
X56923747Y-93276047D01*
X57049710Y-93087530D01*
X57210030Y-92927210D01*
X57398547Y-92801247D01*
X57608016Y-92714482D01*
X57719201Y-92692366D01*
X57830385Y-92670250D01*
X58057115Y-92670250D01*
X58168299Y-92692366D01*
X58168299Y-92692366D01*
G37*
G36*
X39118299Y-92692366D02*
G01*
X39229484Y-92714482D01*
X39438953Y-92801247D01*
X39627470Y-92927210D01*
X39787790Y-93087530D01*
X39913753Y-93276047D01*
X40000518Y-93485516D01*
X40044750Y-93707886D01*
X40044750Y-93934614D01*
X40000518Y-94156984D01*
X39913753Y-94366453D01*
X39787790Y-94554970D01*
X39627470Y-94715290D01*
X39438953Y-94841253D01*
X39229484Y-94928018D01*
X39118299Y-94950134D01*
X39007115Y-94972250D01*
X38780385Y-94972250D01*
X38669201Y-94950134D01*
X38558016Y-94928018D01*
X38348547Y-94841253D01*
X38160030Y-94715290D01*
X37999710Y-94554970D01*
X37873747Y-94366453D01*
X37786982Y-94156984D01*
X37742750Y-93934614D01*
X37742750Y-93707886D01*
X37786982Y-93485516D01*
X37873747Y-93276047D01*
X37999710Y-93087530D01*
X38160030Y-92927210D01*
X38348547Y-92801247D01*
X38558016Y-92714482D01*
X38669201Y-92692366D01*
X38780385Y-92670250D01*
X39007115Y-92670250D01*
X39118299Y-92692366D01*
X39118299Y-92692366D01*
G37*
G36*
X64518299Y-90152366D02*
G01*
X64629484Y-90174482D01*
X64838953Y-90261247D01*
X65027470Y-90387210D01*
X65187790Y-90547530D01*
X65313753Y-90736047D01*
X65400518Y-90945516D01*
X65444750Y-91167886D01*
X65444750Y-91394614D01*
X65400518Y-91616984D01*
X65313753Y-91826453D01*
X65187790Y-92014970D01*
X65027470Y-92175290D01*
X64838953Y-92301253D01*
X64629484Y-92388018D01*
X64518299Y-92410134D01*
X64407115Y-92432250D01*
X64180385Y-92432250D01*
X64069201Y-92410134D01*
X63958016Y-92388018D01*
X63748547Y-92301253D01*
X63560030Y-92175290D01*
X63399710Y-92014970D01*
X63273747Y-91826453D01*
X63186982Y-91616984D01*
X63142750Y-91394614D01*
X63142750Y-91167886D01*
X63186982Y-90945516D01*
X63273747Y-90736047D01*
X63399710Y-90547530D01*
X63560030Y-90387210D01*
X63748547Y-90261247D01*
X63958016Y-90174482D01*
X64069201Y-90152366D01*
X64180385Y-90130250D01*
X64407115Y-90130250D01*
X64518299Y-90152366D01*
X64518299Y-90152366D01*
G37*
G36*
X83568299Y-90152366D02*
G01*
X83679484Y-90174482D01*
X83888953Y-90261247D01*
X84077470Y-90387210D01*
X84237790Y-90547530D01*
X84363753Y-90736047D01*
X84450518Y-90945516D01*
X84494750Y-91167886D01*
X84494750Y-91394614D01*
X84450518Y-91616984D01*
X84363753Y-91826453D01*
X84237790Y-92014970D01*
X84077470Y-92175290D01*
X83888953Y-92301253D01*
X83679484Y-92388018D01*
X83568299Y-92410134D01*
X83457115Y-92432250D01*
X83230385Y-92432250D01*
X83119201Y-92410134D01*
X83008016Y-92388018D01*
X82798547Y-92301253D01*
X82610030Y-92175290D01*
X82449710Y-92014970D01*
X82323747Y-91826453D01*
X82236982Y-91616984D01*
X82192750Y-91394614D01*
X82192750Y-91167886D01*
X82236982Y-90945516D01*
X82323747Y-90736047D01*
X82449710Y-90547530D01*
X82610030Y-90387210D01*
X82798547Y-90261247D01*
X83008016Y-90174482D01*
X83119201Y-90152366D01*
X83230385Y-90130250D01*
X83457115Y-90130250D01*
X83568299Y-90152366D01*
X83568299Y-90152366D01*
G37*
G36*
X102618299Y-90152366D02*
G01*
X102729484Y-90174482D01*
X102938953Y-90261247D01*
X103127470Y-90387210D01*
X103287790Y-90547530D01*
X103413753Y-90736047D01*
X103500518Y-90945516D01*
X103544750Y-91167886D01*
X103544750Y-91394614D01*
X103500518Y-91616984D01*
X103413753Y-91826453D01*
X103287790Y-92014970D01*
X103127470Y-92175290D01*
X102938953Y-92301253D01*
X102729484Y-92388018D01*
X102618299Y-92410134D01*
X102507115Y-92432250D01*
X102280385Y-92432250D01*
X102169201Y-92410134D01*
X102058016Y-92388018D01*
X101848547Y-92301253D01*
X101660030Y-92175290D01*
X101499710Y-92014970D01*
X101373747Y-91826453D01*
X101286982Y-91616984D01*
X101242750Y-91394614D01*
X101242750Y-91167886D01*
X101286982Y-90945516D01*
X101373747Y-90736047D01*
X101499710Y-90547530D01*
X101660030Y-90387210D01*
X101848547Y-90261247D01*
X102058016Y-90174482D01*
X102169201Y-90152366D01*
X102280385Y-90130250D01*
X102507115Y-90130250D01*
X102618299Y-90152366D01*
X102618299Y-90152366D01*
G37*
G36*
X45468299Y-90152366D02*
G01*
X45579484Y-90174482D01*
X45788953Y-90261247D01*
X45977470Y-90387210D01*
X46137790Y-90547530D01*
X46263753Y-90736047D01*
X46350518Y-90945516D01*
X46394750Y-91167886D01*
X46394750Y-91394614D01*
X46350518Y-91616984D01*
X46263753Y-91826453D01*
X46137790Y-92014970D01*
X45977470Y-92175290D01*
X45788953Y-92301253D01*
X45579484Y-92388018D01*
X45468299Y-92410134D01*
X45357115Y-92432250D01*
X45130385Y-92432250D01*
X45019201Y-92410134D01*
X44908016Y-92388018D01*
X44698547Y-92301253D01*
X44510030Y-92175290D01*
X44349710Y-92014970D01*
X44223747Y-91826453D01*
X44136982Y-91616984D01*
X44092750Y-91394614D01*
X44092750Y-91167886D01*
X44136982Y-90945516D01*
X44223747Y-90736047D01*
X44349710Y-90547530D01*
X44510030Y-90387210D01*
X44698547Y-90261247D01*
X44908016Y-90174482D01*
X45019201Y-90152366D01*
X45130385Y-90130250D01*
X45357115Y-90130250D01*
X45468299Y-90152366D01*
X45468299Y-90152366D01*
G37*
G36*
X39618228Y-75381703D02*
G01*
X39773100Y-75445853D01*
X39912481Y-75538985D01*
X40031015Y-75657519D01*
X40124147Y-75796900D01*
X40188297Y-75951772D01*
X40221000Y-76116184D01*
X40221000Y-76283816D01*
X40188297Y-76448228D01*
X40124147Y-76603100D01*
X40031015Y-76742481D01*
X39912481Y-76861015D01*
X39773100Y-76954147D01*
X39618228Y-77018297D01*
X39453816Y-77051000D01*
X39286184Y-77051000D01*
X39121772Y-77018297D01*
X38966900Y-76954147D01*
X38827519Y-76861015D01*
X38708985Y-76742481D01*
X38615853Y-76603100D01*
X38551703Y-76448228D01*
X38519000Y-76283816D01*
X38519000Y-76116184D01*
X38551703Y-75951772D01*
X38615853Y-75796900D01*
X38708985Y-75657519D01*
X38827519Y-75538985D01*
X38966900Y-75445853D01*
X39121772Y-75381703D01*
X39286184Y-75349000D01*
X39453816Y-75349000D01*
X39618228Y-75381703D01*
X39618228Y-75381703D01*
G37*
G36*
X35141000Y-77051000D02*
G01*
X33439000Y-77051000D01*
X33439000Y-75349000D01*
X35141000Y-75349000D01*
X35141000Y-77051000D01*
X35141000Y-77051000D01*
G37*
G36*
X37078228Y-75381703D02*
G01*
X37233100Y-75445853D01*
X37372481Y-75538985D01*
X37491015Y-75657519D01*
X37584147Y-75796900D01*
X37648297Y-75951772D01*
X37681000Y-76116184D01*
X37681000Y-76283816D01*
X37648297Y-76448228D01*
X37584147Y-76603100D01*
X37491015Y-76742481D01*
X37372481Y-76861015D01*
X37233100Y-76954147D01*
X37078228Y-77018297D01*
X36913816Y-77051000D01*
X36746184Y-77051000D01*
X36581772Y-77018297D01*
X36426900Y-76954147D01*
X36287519Y-76861015D01*
X36168985Y-76742481D01*
X36075853Y-76603100D01*
X36011703Y-76448228D01*
X35979000Y-76283816D01*
X35979000Y-76116184D01*
X36011703Y-75951772D01*
X36075853Y-75796900D01*
X36168985Y-75657519D01*
X36287519Y-75538985D01*
X36426900Y-75445853D01*
X36581772Y-75381703D01*
X36746184Y-75349000D01*
X36913816Y-75349000D01*
X37078228Y-75381703D01*
X37078228Y-75381703D01*
G37*
G36*
X42158228Y-75381703D02*
G01*
X42313100Y-75445853D01*
X42452481Y-75538985D01*
X42571015Y-75657519D01*
X42664147Y-75796900D01*
X42728297Y-75951772D01*
X42761000Y-76116184D01*
X42761000Y-76283816D01*
X42728297Y-76448228D01*
X42664147Y-76603100D01*
X42571015Y-76742481D01*
X42452481Y-76861015D01*
X42313100Y-76954147D01*
X42158228Y-77018297D01*
X41993816Y-77051000D01*
X41826184Y-77051000D01*
X41661772Y-77018297D01*
X41506900Y-76954147D01*
X41367519Y-76861015D01*
X41248985Y-76742481D01*
X41155853Y-76603100D01*
X41091703Y-76448228D01*
X41059000Y-76283816D01*
X41059000Y-76116184D01*
X41091703Y-75951772D01*
X41155853Y-75796900D01*
X41248985Y-75657519D01*
X41367519Y-75538985D01*
X41506900Y-75445853D01*
X41661772Y-75381703D01*
X41826184Y-75349000D01*
X41993816Y-75349000D01*
X42158228Y-75381703D01*
X42158228Y-75381703D01*
G37*
G36*
X44698228Y-75381703D02*
G01*
X44853100Y-75445853D01*
X44992481Y-75538985D01*
X45111015Y-75657519D01*
X45204147Y-75796900D01*
X45268297Y-75951772D01*
X45301000Y-76116184D01*
X45301000Y-76283816D01*
X45268297Y-76448228D01*
X45204147Y-76603100D01*
X45111015Y-76742481D01*
X44992481Y-76861015D01*
X44853100Y-76954147D01*
X44698228Y-77018297D01*
X44533816Y-77051000D01*
X44366184Y-77051000D01*
X44201772Y-77018297D01*
X44046900Y-76954147D01*
X43907519Y-76861015D01*
X43788985Y-76742481D01*
X43695853Y-76603100D01*
X43631703Y-76448228D01*
X43599000Y-76283816D01*
X43599000Y-76116184D01*
X43631703Y-75951772D01*
X43695853Y-75796900D01*
X43788985Y-75657519D01*
X43907519Y-75538985D01*
X44046900Y-75445853D01*
X44201772Y-75381703D01*
X44366184Y-75349000D01*
X44533816Y-75349000D01*
X44698228Y-75381703D01*
X44698228Y-75381703D01*
G37*
G36*
X47238228Y-75381703D02*
G01*
X47393100Y-75445853D01*
X47532481Y-75538985D01*
X47651015Y-75657519D01*
X47744147Y-75796900D01*
X47808297Y-75951772D01*
X47841000Y-76116184D01*
X47841000Y-76283816D01*
X47808297Y-76448228D01*
X47744147Y-76603100D01*
X47651015Y-76742481D01*
X47532481Y-76861015D01*
X47393100Y-76954147D01*
X47238228Y-77018297D01*
X47073816Y-77051000D01*
X46906184Y-77051000D01*
X46741772Y-77018297D01*
X46586900Y-76954147D01*
X46447519Y-76861015D01*
X46328985Y-76742481D01*
X46235853Y-76603100D01*
X46171703Y-76448228D01*
X46139000Y-76283816D01*
X46139000Y-76116184D01*
X46171703Y-75951772D01*
X46235853Y-75796900D01*
X46328985Y-75657519D01*
X46447519Y-75538985D01*
X46586900Y-75445853D01*
X46741772Y-75381703D01*
X46906184Y-75349000D01*
X47073816Y-75349000D01*
X47238228Y-75381703D01*
X47238228Y-75381703D01*
G37*
G36*
X52318228Y-75381703D02*
G01*
X52473100Y-75445853D01*
X52612481Y-75538985D01*
X52731015Y-75657519D01*
X52824147Y-75796900D01*
X52888297Y-75951772D01*
X52921000Y-76116184D01*
X52921000Y-76283816D01*
X52888297Y-76448228D01*
X52824147Y-76603100D01*
X52731015Y-76742481D01*
X52612481Y-76861015D01*
X52473100Y-76954147D01*
X52318228Y-77018297D01*
X52153816Y-77051000D01*
X51986184Y-77051000D01*
X51821772Y-77018297D01*
X51666900Y-76954147D01*
X51527519Y-76861015D01*
X51408985Y-76742481D01*
X51315853Y-76603100D01*
X51251703Y-76448228D01*
X51219000Y-76283816D01*
X51219000Y-76116184D01*
X51251703Y-75951772D01*
X51315853Y-75796900D01*
X51408985Y-75657519D01*
X51527519Y-75538985D01*
X51666900Y-75445853D01*
X51821772Y-75381703D01*
X51986184Y-75349000D01*
X52153816Y-75349000D01*
X52318228Y-75381703D01*
X52318228Y-75381703D01*
G37*
G36*
X54858228Y-75381703D02*
G01*
X55013100Y-75445853D01*
X55152481Y-75538985D01*
X55271015Y-75657519D01*
X55364147Y-75796900D01*
X55428297Y-75951772D01*
X55461000Y-76116184D01*
X55461000Y-76283816D01*
X55428297Y-76448228D01*
X55364147Y-76603100D01*
X55271015Y-76742481D01*
X55152481Y-76861015D01*
X55013100Y-76954147D01*
X54858228Y-77018297D01*
X54693816Y-77051000D01*
X54526184Y-77051000D01*
X54361772Y-77018297D01*
X54206900Y-76954147D01*
X54067519Y-76861015D01*
X53948985Y-76742481D01*
X53855853Y-76603100D01*
X53791703Y-76448228D01*
X53759000Y-76283816D01*
X53759000Y-76116184D01*
X53791703Y-75951772D01*
X53855853Y-75796900D01*
X53948985Y-75657519D01*
X54067519Y-75538985D01*
X54206900Y-75445853D01*
X54361772Y-75381703D01*
X54526184Y-75349000D01*
X54693816Y-75349000D01*
X54858228Y-75381703D01*
X54858228Y-75381703D01*
G37*
G36*
X57398228Y-75381703D02*
G01*
X57553100Y-75445853D01*
X57692481Y-75538985D01*
X57811015Y-75657519D01*
X57904147Y-75796900D01*
X57968297Y-75951772D01*
X58001000Y-76116184D01*
X58001000Y-76283816D01*
X57968297Y-76448228D01*
X57904147Y-76603100D01*
X57811015Y-76742481D01*
X57692481Y-76861015D01*
X57553100Y-76954147D01*
X57398228Y-77018297D01*
X57233816Y-77051000D01*
X57066184Y-77051000D01*
X56901772Y-77018297D01*
X56746900Y-76954147D01*
X56607519Y-76861015D01*
X56488985Y-76742481D01*
X56395853Y-76603100D01*
X56331703Y-76448228D01*
X56299000Y-76283816D01*
X56299000Y-76116184D01*
X56331703Y-75951772D01*
X56395853Y-75796900D01*
X56488985Y-75657519D01*
X56607519Y-75538985D01*
X56746900Y-75445853D01*
X56901772Y-75381703D01*
X57066184Y-75349000D01*
X57233816Y-75349000D01*
X57398228Y-75381703D01*
X57398228Y-75381703D01*
G37*
G36*
X59938228Y-75381703D02*
G01*
X60093100Y-75445853D01*
X60232481Y-75538985D01*
X60351015Y-75657519D01*
X60444147Y-75796900D01*
X60508297Y-75951772D01*
X60541000Y-76116184D01*
X60541000Y-76283816D01*
X60508297Y-76448228D01*
X60444147Y-76603100D01*
X60351015Y-76742481D01*
X60232481Y-76861015D01*
X60093100Y-76954147D01*
X59938228Y-77018297D01*
X59773816Y-77051000D01*
X59606184Y-77051000D01*
X59441772Y-77018297D01*
X59286900Y-76954147D01*
X59147519Y-76861015D01*
X59028985Y-76742481D01*
X58935853Y-76603100D01*
X58871703Y-76448228D01*
X58839000Y-76283816D01*
X58839000Y-76116184D01*
X58871703Y-75951772D01*
X58935853Y-75796900D01*
X59028985Y-75657519D01*
X59147519Y-75538985D01*
X59286900Y-75445853D01*
X59441772Y-75381703D01*
X59606184Y-75349000D01*
X59773816Y-75349000D01*
X59938228Y-75381703D01*
X59938228Y-75381703D01*
G37*
G36*
X62478228Y-75381703D02*
G01*
X62633100Y-75445853D01*
X62772481Y-75538985D01*
X62891015Y-75657519D01*
X62984147Y-75796900D01*
X63048297Y-75951772D01*
X63081000Y-76116184D01*
X63081000Y-76283816D01*
X63048297Y-76448228D01*
X62984147Y-76603100D01*
X62891015Y-76742481D01*
X62772481Y-76861015D01*
X62633100Y-76954147D01*
X62478228Y-77018297D01*
X62313816Y-77051000D01*
X62146184Y-77051000D01*
X61981772Y-77018297D01*
X61826900Y-76954147D01*
X61687519Y-76861015D01*
X61568985Y-76742481D01*
X61475853Y-76603100D01*
X61411703Y-76448228D01*
X61379000Y-76283816D01*
X61379000Y-76116184D01*
X61411703Y-75951772D01*
X61475853Y-75796900D01*
X61568985Y-75657519D01*
X61687519Y-75538985D01*
X61826900Y-75445853D01*
X61981772Y-75381703D01*
X62146184Y-75349000D01*
X62313816Y-75349000D01*
X62478228Y-75381703D01*
X62478228Y-75381703D01*
G37*
G36*
X49778228Y-75381703D02*
G01*
X49933100Y-75445853D01*
X50072481Y-75538985D01*
X50191015Y-75657519D01*
X50284147Y-75796900D01*
X50348297Y-75951772D01*
X50381000Y-76116184D01*
X50381000Y-76283816D01*
X50348297Y-76448228D01*
X50284147Y-76603100D01*
X50191015Y-76742481D01*
X50072481Y-76861015D01*
X49933100Y-76954147D01*
X49778228Y-77018297D01*
X49613816Y-77051000D01*
X49446184Y-77051000D01*
X49281772Y-77018297D01*
X49126900Y-76954147D01*
X48987519Y-76861015D01*
X48868985Y-76742481D01*
X48775853Y-76603100D01*
X48711703Y-76448228D01*
X48679000Y-76283816D01*
X48679000Y-76116184D01*
X48711703Y-75951772D01*
X48775853Y-75796900D01*
X48868985Y-75657519D01*
X48987519Y-75538985D01*
X49126900Y-75445853D01*
X49281772Y-75381703D01*
X49446184Y-75349000D01*
X49613816Y-75349000D01*
X49778228Y-75381703D01*
X49778228Y-75381703D01*
G37*
G36*
X62478228Y-60141703D02*
G01*
X62633100Y-60205853D01*
X62772481Y-60298985D01*
X62891015Y-60417519D01*
X62984147Y-60556900D01*
X63048297Y-60711772D01*
X63081000Y-60876184D01*
X63081000Y-61043816D01*
X63048297Y-61208228D01*
X62984147Y-61363100D01*
X62891015Y-61502481D01*
X62772481Y-61621015D01*
X62633100Y-61714147D01*
X62478228Y-61778297D01*
X62313816Y-61811000D01*
X62146184Y-61811000D01*
X61981772Y-61778297D01*
X61826900Y-61714147D01*
X61687519Y-61621015D01*
X61568985Y-61502481D01*
X61475853Y-61363100D01*
X61411703Y-61208228D01*
X61379000Y-61043816D01*
X61379000Y-60876184D01*
X61411703Y-60711772D01*
X61475853Y-60556900D01*
X61568985Y-60417519D01*
X61687519Y-60298985D01*
X61826900Y-60205853D01*
X61981772Y-60141703D01*
X62146184Y-60109000D01*
X62313816Y-60109000D01*
X62478228Y-60141703D01*
X62478228Y-60141703D01*
G37*
G36*
X59938228Y-60141703D02*
G01*
X60093100Y-60205853D01*
X60232481Y-60298985D01*
X60351015Y-60417519D01*
X60444147Y-60556900D01*
X60508297Y-60711772D01*
X60541000Y-60876184D01*
X60541000Y-61043816D01*
X60508297Y-61208228D01*
X60444147Y-61363100D01*
X60351015Y-61502481D01*
X60232481Y-61621015D01*
X60093100Y-61714147D01*
X59938228Y-61778297D01*
X59773816Y-61811000D01*
X59606184Y-61811000D01*
X59441772Y-61778297D01*
X59286900Y-61714147D01*
X59147519Y-61621015D01*
X59028985Y-61502481D01*
X58935853Y-61363100D01*
X58871703Y-61208228D01*
X58839000Y-61043816D01*
X58839000Y-60876184D01*
X58871703Y-60711772D01*
X58935853Y-60556900D01*
X59028985Y-60417519D01*
X59147519Y-60298985D01*
X59286900Y-60205853D01*
X59441772Y-60141703D01*
X59606184Y-60109000D01*
X59773816Y-60109000D01*
X59938228Y-60141703D01*
X59938228Y-60141703D01*
G37*
G36*
X57398228Y-60141703D02*
G01*
X57553100Y-60205853D01*
X57692481Y-60298985D01*
X57811015Y-60417519D01*
X57904147Y-60556900D01*
X57968297Y-60711772D01*
X58001000Y-60876184D01*
X58001000Y-61043816D01*
X57968297Y-61208228D01*
X57904147Y-61363100D01*
X57811015Y-61502481D01*
X57692481Y-61621015D01*
X57553100Y-61714147D01*
X57398228Y-61778297D01*
X57233816Y-61811000D01*
X57066184Y-61811000D01*
X56901772Y-61778297D01*
X56746900Y-61714147D01*
X56607519Y-61621015D01*
X56488985Y-61502481D01*
X56395853Y-61363100D01*
X56331703Y-61208228D01*
X56299000Y-61043816D01*
X56299000Y-60876184D01*
X56331703Y-60711772D01*
X56395853Y-60556900D01*
X56488985Y-60417519D01*
X56607519Y-60298985D01*
X56746900Y-60205853D01*
X56901772Y-60141703D01*
X57066184Y-60109000D01*
X57233816Y-60109000D01*
X57398228Y-60141703D01*
X57398228Y-60141703D01*
G37*
G36*
X54858228Y-60141703D02*
G01*
X55013100Y-60205853D01*
X55152481Y-60298985D01*
X55271015Y-60417519D01*
X55364147Y-60556900D01*
X55428297Y-60711772D01*
X55461000Y-60876184D01*
X55461000Y-61043816D01*
X55428297Y-61208228D01*
X55364147Y-61363100D01*
X55271015Y-61502481D01*
X55152481Y-61621015D01*
X55013100Y-61714147D01*
X54858228Y-61778297D01*
X54693816Y-61811000D01*
X54526184Y-61811000D01*
X54361772Y-61778297D01*
X54206900Y-61714147D01*
X54067519Y-61621015D01*
X53948985Y-61502481D01*
X53855853Y-61363100D01*
X53791703Y-61208228D01*
X53759000Y-61043816D01*
X53759000Y-60876184D01*
X53791703Y-60711772D01*
X53855853Y-60556900D01*
X53948985Y-60417519D01*
X54067519Y-60298985D01*
X54206900Y-60205853D01*
X54361772Y-60141703D01*
X54526184Y-60109000D01*
X54693816Y-60109000D01*
X54858228Y-60141703D01*
X54858228Y-60141703D01*
G37*
G36*
X47238228Y-60141703D02*
G01*
X47393100Y-60205853D01*
X47532481Y-60298985D01*
X47651015Y-60417519D01*
X47744147Y-60556900D01*
X47808297Y-60711772D01*
X47841000Y-60876184D01*
X47841000Y-61043816D01*
X47808297Y-61208228D01*
X47744147Y-61363100D01*
X47651015Y-61502481D01*
X47532481Y-61621015D01*
X47393100Y-61714147D01*
X47238228Y-61778297D01*
X47073816Y-61811000D01*
X46906184Y-61811000D01*
X46741772Y-61778297D01*
X46586900Y-61714147D01*
X46447519Y-61621015D01*
X46328985Y-61502481D01*
X46235853Y-61363100D01*
X46171703Y-61208228D01*
X46139000Y-61043816D01*
X46139000Y-60876184D01*
X46171703Y-60711772D01*
X46235853Y-60556900D01*
X46328985Y-60417519D01*
X46447519Y-60298985D01*
X46586900Y-60205853D01*
X46741772Y-60141703D01*
X46906184Y-60109000D01*
X47073816Y-60109000D01*
X47238228Y-60141703D01*
X47238228Y-60141703D01*
G37*
G36*
X34538228Y-60141703D02*
G01*
X34693100Y-60205853D01*
X34832481Y-60298985D01*
X34951015Y-60417519D01*
X35044147Y-60556900D01*
X35108297Y-60711772D01*
X35141000Y-60876184D01*
X35141000Y-61043816D01*
X35108297Y-61208228D01*
X35044147Y-61363100D01*
X34951015Y-61502481D01*
X34832481Y-61621015D01*
X34693100Y-61714147D01*
X34538228Y-61778297D01*
X34373816Y-61811000D01*
X34206184Y-61811000D01*
X34041772Y-61778297D01*
X33886900Y-61714147D01*
X33747519Y-61621015D01*
X33628985Y-61502481D01*
X33535853Y-61363100D01*
X33471703Y-61208228D01*
X33439000Y-61043816D01*
X33439000Y-60876184D01*
X33471703Y-60711772D01*
X33535853Y-60556900D01*
X33628985Y-60417519D01*
X33747519Y-60298985D01*
X33886900Y-60205853D01*
X34041772Y-60141703D01*
X34206184Y-60109000D01*
X34373816Y-60109000D01*
X34538228Y-60141703D01*
X34538228Y-60141703D01*
G37*
G36*
X37078228Y-60141703D02*
G01*
X37233100Y-60205853D01*
X37372481Y-60298985D01*
X37491015Y-60417519D01*
X37584147Y-60556900D01*
X37648297Y-60711772D01*
X37681000Y-60876184D01*
X37681000Y-61043816D01*
X37648297Y-61208228D01*
X37584147Y-61363100D01*
X37491015Y-61502481D01*
X37372481Y-61621015D01*
X37233100Y-61714147D01*
X37078228Y-61778297D01*
X36913816Y-61811000D01*
X36746184Y-61811000D01*
X36581772Y-61778297D01*
X36426900Y-61714147D01*
X36287519Y-61621015D01*
X36168985Y-61502481D01*
X36075853Y-61363100D01*
X36011703Y-61208228D01*
X35979000Y-61043816D01*
X35979000Y-60876184D01*
X36011703Y-60711772D01*
X36075853Y-60556900D01*
X36168985Y-60417519D01*
X36287519Y-60298985D01*
X36426900Y-60205853D01*
X36581772Y-60141703D01*
X36746184Y-60109000D01*
X36913816Y-60109000D01*
X37078228Y-60141703D01*
X37078228Y-60141703D01*
G37*
G36*
X39618228Y-60141703D02*
G01*
X39773100Y-60205853D01*
X39912481Y-60298985D01*
X40031015Y-60417519D01*
X40124147Y-60556900D01*
X40188297Y-60711772D01*
X40221000Y-60876184D01*
X40221000Y-61043816D01*
X40188297Y-61208228D01*
X40124147Y-61363100D01*
X40031015Y-61502481D01*
X39912481Y-61621015D01*
X39773100Y-61714147D01*
X39618228Y-61778297D01*
X39453816Y-61811000D01*
X39286184Y-61811000D01*
X39121772Y-61778297D01*
X38966900Y-61714147D01*
X38827519Y-61621015D01*
X38708985Y-61502481D01*
X38615853Y-61363100D01*
X38551703Y-61208228D01*
X38519000Y-61043816D01*
X38519000Y-60876184D01*
X38551703Y-60711772D01*
X38615853Y-60556900D01*
X38708985Y-60417519D01*
X38827519Y-60298985D01*
X38966900Y-60205853D01*
X39121772Y-60141703D01*
X39286184Y-60109000D01*
X39453816Y-60109000D01*
X39618228Y-60141703D01*
X39618228Y-60141703D01*
G37*
G36*
X42158228Y-60141703D02*
G01*
X42313100Y-60205853D01*
X42452481Y-60298985D01*
X42571015Y-60417519D01*
X42664147Y-60556900D01*
X42728297Y-60711772D01*
X42761000Y-60876184D01*
X42761000Y-61043816D01*
X42728297Y-61208228D01*
X42664147Y-61363100D01*
X42571015Y-61502481D01*
X42452481Y-61621015D01*
X42313100Y-61714147D01*
X42158228Y-61778297D01*
X41993816Y-61811000D01*
X41826184Y-61811000D01*
X41661772Y-61778297D01*
X41506900Y-61714147D01*
X41367519Y-61621015D01*
X41248985Y-61502481D01*
X41155853Y-61363100D01*
X41091703Y-61208228D01*
X41059000Y-61043816D01*
X41059000Y-60876184D01*
X41091703Y-60711772D01*
X41155853Y-60556900D01*
X41248985Y-60417519D01*
X41367519Y-60298985D01*
X41506900Y-60205853D01*
X41661772Y-60141703D01*
X41826184Y-60109000D01*
X41993816Y-60109000D01*
X42158228Y-60141703D01*
X42158228Y-60141703D01*
G37*
G36*
X52318228Y-60141703D02*
G01*
X52473100Y-60205853D01*
X52612481Y-60298985D01*
X52731015Y-60417519D01*
X52824147Y-60556900D01*
X52888297Y-60711772D01*
X52921000Y-60876184D01*
X52921000Y-61043816D01*
X52888297Y-61208228D01*
X52824147Y-61363100D01*
X52731015Y-61502481D01*
X52612481Y-61621015D01*
X52473100Y-61714147D01*
X52318228Y-61778297D01*
X52153816Y-61811000D01*
X51986184Y-61811000D01*
X51821772Y-61778297D01*
X51666900Y-61714147D01*
X51527519Y-61621015D01*
X51408985Y-61502481D01*
X51315853Y-61363100D01*
X51251703Y-61208228D01*
X51219000Y-61043816D01*
X51219000Y-60876184D01*
X51251703Y-60711772D01*
X51315853Y-60556900D01*
X51408985Y-60417519D01*
X51527519Y-60298985D01*
X51666900Y-60205853D01*
X51821772Y-60141703D01*
X51986184Y-60109000D01*
X52153816Y-60109000D01*
X52318228Y-60141703D01*
X52318228Y-60141703D01*
G37*
G36*
X49778228Y-60141703D02*
G01*
X49933100Y-60205853D01*
X50072481Y-60298985D01*
X50191015Y-60417519D01*
X50284147Y-60556900D01*
X50348297Y-60711772D01*
X50381000Y-60876184D01*
X50381000Y-61043816D01*
X50348297Y-61208228D01*
X50284147Y-61363100D01*
X50191015Y-61502481D01*
X50072481Y-61621015D01*
X49933100Y-61714147D01*
X49778228Y-61778297D01*
X49613816Y-61811000D01*
X49446184Y-61811000D01*
X49281772Y-61778297D01*
X49126900Y-61714147D01*
X48987519Y-61621015D01*
X48868985Y-61502481D01*
X48775853Y-61363100D01*
X48711703Y-61208228D01*
X48679000Y-61043816D01*
X48679000Y-60876184D01*
X48711703Y-60711772D01*
X48775853Y-60556900D01*
X48868985Y-60417519D01*
X48987519Y-60298985D01*
X49126900Y-60205853D01*
X49281772Y-60141703D01*
X49446184Y-60109000D01*
X49613816Y-60109000D01*
X49778228Y-60141703D01*
X49778228Y-60141703D01*
G37*
G36*
X44698228Y-60141703D02*
G01*
X44853100Y-60205853D01*
X44992481Y-60298985D01*
X45111015Y-60417519D01*
X45204147Y-60556900D01*
X45268297Y-60711772D01*
X45301000Y-60876184D01*
X45301000Y-61043816D01*
X45268297Y-61208228D01*
X45204147Y-61363100D01*
X45111015Y-61502481D01*
X44992481Y-61621015D01*
X44853100Y-61714147D01*
X44698228Y-61778297D01*
X44533816Y-61811000D01*
X44366184Y-61811000D01*
X44201772Y-61778297D01*
X44046900Y-61714147D01*
X43907519Y-61621015D01*
X43788985Y-61502481D01*
X43695853Y-61363100D01*
X43631703Y-61208228D01*
X43599000Y-61043816D01*
X43599000Y-60876184D01*
X43631703Y-60711772D01*
X43695853Y-60556900D01*
X43788985Y-60417519D01*
X43907519Y-60298985D01*
X44046900Y-60205853D01*
X44201772Y-60141703D01*
X44366184Y-60109000D01*
X44533816Y-60109000D01*
X44698228Y-60141703D01*
X44698228Y-60141703D01*
G37*
M02*
