<?xml version="1.0" encoding="UTF-8"?>
<!-- Generated by SVGo -->
<svg width="86.202mm" height="105.252mm" viewBox="0.000 0.000 86.202 105.252" xmlns="http://www.w3.org/2000/svg" xmlns:xlink="http://www.w3.org/1999/xlink">
<polygon points="81.202,100.252 5.001,100.252 5.001,5.001 81.202,5.001" style="fill:none;stroke-width:0.050000mm;stroke:black"/>
<polygon points="17.051,83.726 17.051,88.426 15.526,88.426 15.526,85.196 8.776,85.196 8.776,88.426 7.950,88.426 7.950,91.226 8.776,91.226 8.776,97.496 10.501,97.496 10.501,98.696 13.801,98.696 13.801,97.496 15.526,97.496 15.526,93.026 17.051,93.026 17.051,97.726 31.051,97.726 31.051,93.026 32.576,93.026 32.576,97.496 34.301,97.496 34.301,98.696 37.601,98.696 37.601,97.496 39.326,97.496 39.326,91.226 40.151,91.226 40.151,88.426 39.326,88.426 39.326,85.196 32.576,85.196 32.576,88.426 31.051,88.426 31.051,83.726" style="fill:none;stroke-width:0.050000mm;stroke:black"/>
<polygon points="45.626,83.726 45.626,97.726 59.626,97.726 59.626,83.726" style="fill:none;stroke-width:0.050000mm;stroke:black"/>
<polygon points="71.176,65.100 71.176,65.926 64.906,65.926 64.906,67.651 63.706,67.651 63.706,70.951 64.906,70.951 64.906,72.676 69.376,72.676 69.376,74.201 64.676,74.201 64.676,88.201 69.376,88.201 69.376,89.726 64.906,89.726 64.906,91.451 63.706,91.451 63.706,94.751 64.906,94.751 64.906,96.476 71.176,96.476 71.176,97.301 73.976,97.301 73.976,96.476 77.206,96.476 77.206,89.726 73.976,89.726 73.976,88.201 78.676,88.201 78.676,74.201 73.976,74.201 73.976,72.676 77.206,72.676 77.206,65.926 73.976,65.926 73.976,65.100" style="fill:none;stroke-width:0.050000mm;stroke:black"/>
<polygon points="45.626,64.676 45.626,78.676 59.626,78.676 59.626,64.676" style="fill:none;stroke-width:0.050000mm;stroke:black"/>
<polygon points="26.576,64.676 26.576,78.676 40.576,78.676 40.576,64.676" style="fill:none;stroke-width:0.050000mm;stroke:black"/>
<polygon points="7.526,64.676 7.526,78.676 21.526,78.676 21.526,64.676" style="fill:none;stroke-width:0.050000mm;stroke:black"/>
<polygon points="45.626,45.626 45.626,59.626 59.626,59.626 59.626,45.626" style="fill:none;stroke-width:0.050000mm;stroke:black"/>
<polygon points="26.576,45.626 26.576,59.626 40.576,59.626 40.576,45.626" style="fill:none;stroke-width:0.050000mm;stroke:black"/>
<polygon points="7.526,45.626 7.526,59.626 21.526,59.626 21.526,45.626" style="fill:none;stroke-width:0.050000mm;stroke:black"/>
<polygon points="71.176,27.001 71.176,27.826 64.906,27.826 64.906,29.551 63.706,29.551 63.706,32.851 64.906,32.851 64.906,34.576 69.376,34.576 69.376,36.101 64.676,36.101 64.676,50.101 69.376,50.101 69.376,51.626 64.906,51.626 64.906,53.351 63.706,53.351 63.706,56.651 64.906,56.651 64.906,58.376 71.176,58.376 71.176,59.201 73.976,59.201 73.976,58.376 77.206,58.376 77.206,51.626 73.976,51.626 73.976,50.101 78.676,50.101 78.676,36.101 73.976,36.101 73.976,34.576 77.206,34.576 77.206,27.826 73.976,27.826 73.976,27.001" style="fill:none;stroke-width:0.050000mm;stroke:black"/>
<polygon points="45.626,26.576 45.626,40.576 59.626,40.576 59.626,26.576" style="fill:none;stroke-width:0.050000mm;stroke:black"/>
<polygon points="26.576,26.576 26.576,40.576 40.576,40.576 40.576,26.576" style="fill:none;stroke-width:0.050000mm;stroke:black"/>
<polygon points="7.526,26.576 7.526,40.576 21.526,40.576 21.526,26.576" style="fill:none;stroke-width:0.050000mm;stroke:black"/>
<polygon points="64.676,7.526 64.676,21.526 78.676,21.526 78.676,7.526" style="fill:none;stroke-width:0.050000mm;stroke:black"/>
<polygon points="45.626,7.526 45.626,21.526 59.626,21.526 59.626,7.526" style="fill:none;stroke-width:0.050000mm;stroke:black"/>
<polygon points="26.576,7.526 26.576,21.526 40.576,21.526 40.576,7.526" style="fill:none;stroke-width:0.050000mm;stroke:black"/>
<polygon points="7.526,7.526 7.526,21.526 21.526,21.526 21.526,7.526" style="fill:none;stroke-width:0.050000mm;stroke:black"/>
</svg>