<?xml version="1.0" encoding="UTF-8"?>
<!-- Generated by SVGo -->
<svg width="357.665mm" height="133.663mm" viewBox="0.000 0.000 357.665 133.663" xmlns="http://www.w3.org/2000/svg" xmlns:xlink="http://www.w3.org/1999/xlink">
<polygon points="352.476,73.450 348.975,73.450 348.203,73.572 347.506,73.927 346.953,74.480 346.599,75.177 346.476,75.949 346.599,76.723 346.953,77.420 347.506,77.973 348.203,78.328 348.975,78.450 352.476,78.450 352.476,128.501 5.189,128.501 5.189,78.450 8.689,78.450 9.462,78.328 10.158,77.973 10.711,77.420 11.066,76.723 11.189,75.951 11.066,75.177 10.711,74.480 10.158,73.927 9.462,73.572 8.690,73.450 5.189,73.450 5.189,5.000 352.476,5.000" style="fill:none;stroke-width:0.050000mm;stroke:black"/>
<polygon points="128.970,112.137 128.970,116.837 89.345,116.837 89.345,113.607 82.595,113.607 82.595,116.837 81.770,116.837 81.770,119.637 82.595,119.637 82.595,125.907 84.320,125.907 84.320,127.107 87.620,127.107 87.620,125.907 89.345,125.907 89.345,121.437 128.970,121.437 128.970,126.137 142.970,126.137 142.970,121.437 182.595,121.437 182.595,125.907 184.320,125.907 184.320,127.107 187.620,127.107 187.620,125.907 189.345,125.907 189.345,119.637 190.169,119.637 190.169,116.837 189.345,116.837 189.345,113.607 182.595,113.607 182.595,116.837 142.970,116.837 142.970,112.137" style="fill:none;stroke-width:0.050000mm;stroke:black"/>
<polygon points="336.138,112.137 336.138,126.137 350.138,126.137 350.138,112.137" style="fill:none;stroke-width:0.050000mm;stroke:black"/>
<polygon points="317.088,112.137 317.088,126.137 331.088,126.137 331.088,112.137" style="fill:none;stroke-width:0.050000mm;stroke:black"/>
<polygon points="298.038,112.137 298.038,126.137 312.038,126.137 312.038,112.137" style="fill:none;stroke-width:0.050000mm;stroke:black"/>
<polygon points="271.844,112.137 271.844,126.137 285.844,126.137 285.844,112.137" style="fill:none;stroke-width:0.050000mm;stroke:black"/>
<polygon points="248.031,112.137 248.031,126.137 262.031,126.137 262.031,112.137" style="fill:none;stroke-width:0.050000mm;stroke:black"/>
<polygon points="224.220,112.137 224.220,126.137 238.220,126.137 238.220,112.137" style="fill:none;stroke-width:0.050000mm;stroke:black"/>
<polygon points="200.406,112.137 200.406,126.137 214.406,126.137 214.406,112.137" style="fill:none;stroke-width:0.050000mm;stroke:black"/>
<polygon points="57.532,112.137 57.532,126.137 71.532,126.137 71.532,112.137" style="fill:none;stroke-width:0.050000mm;stroke:black"/>
<polygon points="33.719,112.137 33.719,126.137 47.719,126.137 47.719,112.137" style="fill:none;stroke-width:0.050000mm;stroke:black"/>
<polygon points="9.907,112.137 9.907,126.137 23.907,126.137 23.907,112.137" style="fill:none;stroke-width:0.050000mm;stroke:black"/>
<polygon points="257.556,93.087 257.556,97.787 256.031,97.787 256.031,94.557 249.281,94.557 249.281,97.787 248.457,97.787 248.457,100.587 249.281,100.587 249.281,106.857 251.007,106.857 251.007,108.057 254.306,108.057 254.306,106.857 256.031,106.857 256.031,102.387 257.556,102.387 257.556,107.087 271.556,107.087 271.556,102.387 273.081,102.387 273.081,106.857 274.806,106.857 274.806,108.057 278.106,108.057 278.106,106.857 279.831,106.857 279.831,100.587 280.656,100.587 280.656,97.787 279.831,97.787 279.831,94.557 273.081,94.557 273.081,97.787 271.556,97.787 271.556,93.087" style="fill:none;stroke-width:0.050000mm;stroke:black"/>
<polygon points="19.431,93.087 19.431,97.787 17.907,97.787 17.907,94.557 11.157,94.557 11.157,97.787 10.332,97.787 10.332,100.587 11.157,100.587 11.157,106.857 12.882,106.857 12.882,108.057 16.181,108.057 16.181,106.857 17.907,106.857 17.907,102.387 19.431,102.387 19.431,107.087 33.431,107.087 33.431,102.387 34.957,102.387 34.957,106.857 36.681,106.857 36.681,108.057 39.981,108.057 39.981,106.857 41.707,106.857 41.707,100.587 42.532,100.587 42.532,97.787 41.707,97.787 41.707,94.557 34.957,94.557 34.957,97.787 33.431,97.787 33.431,93.087" style="fill:none;stroke-width:0.050000mm;stroke:black"/>
<polygon points="221.839,93.087 221.839,107.087 226.434,107.087 226.833,107.150 227.232,107.087 235.839,107.087 235.839,93.087" style="fill:none;stroke-width:0.050000mm;stroke:black"/>
<polygon points="317.088,93.087 317.088,107.087 331.088,107.087 331.088,93.087" style="fill:none;stroke-width:0.050000mm;stroke:black"/>
<polygon points="202.788,93.087 202.788,107.087 216.788,107.087 216.788,93.087" style="fill:none;stroke-width:0.050000mm;stroke:black"/>
<polygon points="183.739,93.087 183.739,107.087 197.739,107.087 197.739,93.087" style="fill:none;stroke-width:0.050000mm;stroke:black"/>
<polygon points="164.689,93.087 164.689,107.087 178.689,107.087 178.689,93.087" style="fill:none;stroke-width:0.050000mm;stroke:black"/>
<polygon points="145.638,93.087 145.638,107.087 159.638,107.087 159.638,93.087" style="fill:none;stroke-width:0.050000mm;stroke:black"/>
<polygon points="126.589,93.087 126.589,107.087 140.589,107.087 140.589,93.087" style="fill:none;stroke-width:0.050000mm;stroke:black"/>
<polygon points="107.538,93.087 107.538,107.087 121.538,107.087 121.538,93.087" style="fill:none;stroke-width:0.050000mm;stroke:black"/>
<polygon points="88.489,93.087 88.489,107.087 102.489,107.087 102.489,93.087" style="fill:none;stroke-width:0.050000mm;stroke:black"/>
<polygon points="69.439,93.087 69.439,107.087 83.439,107.087 83.439,93.087" style="fill:none;stroke-width:0.050000mm;stroke:black"/>
<polygon points="50.389,93.087 50.389,107.087 64.389,107.087 64.389,93.087" style="fill:none;stroke-width:0.050000mm;stroke:black"/>
<polygon points="262.318,74.037 262.318,78.737 260.794,78.737 260.794,75.507 254.044,75.507 254.044,78.737 253.220,78.737 253.220,81.537 254.044,81.537 254.044,87.807 255.769,87.807 255.769,89.007 259.068,89.007 259.068,87.807 260.794,87.807 260.794,83.337 262.318,83.337 262.318,88.037 276.319,88.037 276.319,83.337 277.844,83.337 277.844,87.807 279.569,87.807 279.569,89.007 282.869,89.007 282.869,87.807 284.594,87.807 284.594,81.537 285.419,81.537 285.419,78.737 284.594,78.737 284.594,75.507 277.844,75.507 277.844,78.737 276.319,78.737 276.319,74.037" style="fill:none;stroke-width:0.050000mm;stroke:black"/>
<polygon points="231.364,74.037 231.364,88.037 245.364,88.037 245.364,74.037" style="fill:none;stroke-width:0.050000mm;stroke:black"/>
<polygon points="212.314,74.037 212.314,88.037 226.314,88.037 226.314,74.037" style="fill:none;stroke-width:0.050000mm;stroke:black"/>
<polygon points="193.263,74.037 193.263,88.037 207.263,88.037 207.263,74.037" style="fill:none;stroke-width:0.050000mm;stroke:black"/>
<polygon points="174.214,74.037 174.214,88.037 188.214,88.037 188.214,74.037" style="fill:none;stroke-width:0.050000mm;stroke:black"/>
<polygon points="155.163,74.037 155.163,88.037 169.163,88.037 169.163,74.037" style="fill:none;stroke-width:0.050000mm;stroke:black"/>
<polygon points="136.113,74.037 136.113,88.037 150.113,88.037 150.113,74.037" style="fill:none;stroke-width:0.050000mm;stroke:black"/>
<polygon points="117.062,74.037 117.062,88.037 131.064,88.037 131.064,74.037" style="fill:none;stroke-width:0.050000mm;stroke:black"/>
<polygon points="98.013,74.037 98.013,88.037 112.013,88.037 112.013,74.037" style="fill:none;stroke-width:0.050000mm;stroke:black"/>
<polygon points="78.963,74.037 78.963,88.037 92.963,88.037 92.963,74.037" style="fill:none;stroke-width:0.050000mm;stroke:black"/>
<polygon points="59.912,74.037 59.912,88.037 73.913,88.037 73.913,74.037" style="fill:none;stroke-width:0.050000mm;stroke:black"/>
<polygon points="40.864,74.037 40.864,88.037 54.864,88.037 54.864,74.037" style="fill:none;stroke-width:0.050000mm;stroke:black"/>
<polygon points="14.670,74.037 14.670,88.037 28.670,88.037 28.670,74.037" style="fill:none;stroke-width:0.050000mm;stroke:black"/>
<polygon points="150.400,54.987 150.400,68.987 163.483,68.987 163.760,69.128 164.532,69.250 165.305,69.128 166.001,68.773 166.555,68.219 166.910,67.523 167.032,66.750 166.910,65.977 166.555,65.281 166.001,64.727 165.305,64.372 164.532,64.250 164.400,64.271 164.400,54.987" style="fill:none;stroke-width:0.050000mm;stroke:black"/>
<polygon points="336.138,54.987 336.138,68.987 350.138,68.987 350.138,54.987" style="fill:none;stroke-width:0.050000mm;stroke:black"/>
<polygon points="317.088,54.987 317.088,68.987 331.088,68.987 331.088,54.987" style="fill:none;stroke-width:0.050000mm;stroke:black"/>
<polygon points="298.038,54.987 298.038,68.987 312.038,68.987 312.038,54.987" style="fill:none;stroke-width:0.050000mm;stroke:black"/>
<polygon points="269.463,54.987 269.463,68.987 283.463,68.987 283.463,54.987" style="fill:none;stroke-width:0.050000mm;stroke:black"/>
<polygon points="245.650,54.987 245.650,68.987 259.650,68.987 259.650,54.987" style="fill:none;stroke-width:0.050000mm;stroke:black"/>
<polygon points="226.601,54.987 226.601,68.987 240.601,68.987 240.601,54.987" style="fill:none;stroke-width:0.050000mm;stroke:black"/>
<polygon points="207.550,54.987 207.550,68.987 221.550,68.987 221.550,54.987" style="fill:none;stroke-width:0.050000mm;stroke:black"/>
<polygon points="188.501,54.987 188.501,68.987 202.501,68.987 202.501,54.987" style="fill:none;stroke-width:0.050000mm;stroke:black"/>
<polygon points="169.451,54.987 169.451,68.987 183.451,68.987 183.451,54.987" style="fill:none;stroke-width:0.050000mm;stroke:black"/>
<polygon points="131.351,54.987 131.351,68.987 145.351,68.987 145.351,54.987" style="fill:none;stroke-width:0.050000mm;stroke:black"/>
<polygon points="112.300,54.987 112.300,68.987 126.300,68.987 126.300,54.987" style="fill:none;stroke-width:0.050000mm;stroke:black"/>
<polygon points="93.251,54.987 93.251,68.987 107.251,68.987 107.251,54.987" style="fill:none;stroke-width:0.050000mm;stroke:black"/>
<polygon points="74.201,54.987 74.201,68.987 88.201,68.987 88.201,54.987" style="fill:none;stroke-width:0.050000mm;stroke:black"/>
<polygon points="55.151,54.987 55.151,68.987 69.151,68.987 69.151,54.987" style="fill:none;stroke-width:0.050000mm;stroke:black"/>
<polygon points="36.100,54.987 36.100,68.987 50.100,68.987 50.100,54.987" style="fill:none;stroke-width:0.050000mm;stroke:black"/>
<polygon points="12.289,54.987 12.289,68.987 26.289,68.987 26.289,54.987" style="fill:none;stroke-width:0.050000mm;stroke:black"/>
<polygon points="264.700,35.937 264.700,40.637 263.175,40.637 263.175,37.407 256.425,37.407 256.425,40.637 255.601,40.637 255.601,43.437 256.425,43.437 256.425,49.707 258.150,49.707 258.150,50.907 261.450,50.907 261.450,49.707 263.175,49.707 263.175,45.237 264.700,45.237 264.700,49.937 278.700,49.937 278.700,45.237 280.225,45.237 280.225,49.707 281.950,49.707 281.950,50.907 285.250,50.907 285.250,49.707 286.975,49.707 286.975,43.437 287.800,43.437 287.800,40.637 286.975,40.637 286.975,37.407 280.225,37.407 280.225,40.637 278.700,40.637 278.700,35.937" style="fill:none;stroke-width:0.050000mm;stroke:black"/>
<polygon points="336.138,35.937 336.138,49.937 350.138,49.937 350.138,35.937" style="fill:none;stroke-width:0.050000mm;stroke:black"/>
<polygon points="317.088,35.937 317.088,49.937 331.088,49.937 331.088,35.937" style="fill:none;stroke-width:0.050000mm;stroke:black"/>
<polygon points="298.038,35.937 298.038,45.514 297.851,45.327 297.154,44.972 296.382,44.850 295.609,44.972 294.912,45.327 294.359,45.881 294.004,46.577 293.882,47.350 294.004,48.123 294.359,48.819 294.912,49.373 295.609,49.728 296.382,49.850 297.154,49.728 297.851,49.373 298.038,49.186 298.038,49.937 312.038,49.937 312.038,35.937" style="fill:none;stroke-width:0.050000mm;stroke:black"/>
<polygon points="236.126,35.937 236.126,49.937 250.126,49.937 250.126,35.937" style="fill:none;stroke-width:0.050000mm;stroke:black"/>
<polygon points="217.076,35.937 217.076,49.937 231.076,49.937 231.076,35.937" style="fill:none;stroke-width:0.050000mm;stroke:black"/>
<polygon points="198.025,35.937 198.025,49.937 212.025,49.937 212.025,35.937" style="fill:none;stroke-width:0.050000mm;stroke:black"/>
<polygon points="178.976,35.937 178.976,49.937 192.976,49.937 192.976,35.937" style="fill:none;stroke-width:0.050000mm;stroke:black"/>
<polygon points="159.925,35.937 159.925,49.937 173.925,49.937 173.925,35.937" style="fill:none;stroke-width:0.050000mm;stroke:black"/>
<polygon points="140.876,35.937 140.876,49.937 154.876,49.937 154.876,35.937" style="fill:none;stroke-width:0.050000mm;stroke:black"/>
<polygon points="121.826,35.937 121.826,49.937 135.826,49.937 135.826,35.937" style="fill:none;stroke-width:0.050000mm;stroke:black"/>
<polygon points="102.776,35.937 102.776,49.937 116.776,49.937 116.776,35.937" style="fill:none;stroke-width:0.050000mm;stroke:black"/>
<polygon points="83.726,35.937 83.726,49.937 97.726,49.937 97.726,35.937" style="fill:none;stroke-width:0.050000mm;stroke:black"/>
<polygon points="64.675,35.937 64.675,49.937 78.675,49.937 78.675,35.937" style="fill:none;stroke-width:0.050000mm;stroke:black"/>
<polygon points="45.626,35.937 45.626,49.937 59.626,49.937 59.626,48.935 60.062,49.373 60.760,49.728 61.532,49.850 62.305,49.728 63.002,49.373 63.555,48.819 63.909,48.123 64.032,47.350 63.909,46.577 63.555,45.881 63.002,45.327 62.305,44.972 61.532,44.850 60.760,44.972 60.062,45.327 59.626,45.765 59.626,35.937" style="fill:none;stroke-width:0.050000mm;stroke:black"/>
<polygon points="26.576,35.937 26.576,49.937 40.576,49.937 40.576,35.937" style="fill:none;stroke-width:0.050000mm;stroke:black"/>
<polygon points="7.526,35.937 7.526,49.937 21.526,49.937 21.526,35.937" style="fill:none;stroke-width:0.050000mm;stroke:black"/>
<polygon points="336.138,12.125 336.138,26.125 350.138,26.125 350.138,12.125" style="fill:none;stroke-width:0.050000mm;stroke:black"/>
<polygon points="317.088,12.125 317.088,26.125 331.088,26.125 331.088,12.125" style="fill:none;stroke-width:0.050000mm;stroke:black"/>
<polygon points="298.038,12.125 298.038,26.125 312.038,26.125 312.038,12.125" style="fill:none;stroke-width:0.050000mm;stroke:black"/>
<polygon points="274.225,12.125 274.225,26.125 288.225,26.125 288.225,12.125" style="fill:none;stroke-width:0.050000mm;stroke:black"/>
<polygon points="255.175,12.125 255.175,26.125 269.175,26.125 269.175,12.125" style="fill:none;stroke-width:0.050000mm;stroke:black"/>
<polygon points="236.126,12.125 236.126,26.125 250.126,26.125 250.126,12.125" style="fill:none;stroke-width:0.050000mm;stroke:black"/>
<polygon points="217.076,12.125 217.076,26.125 231.076,26.125 231.076,12.125" style="fill:none;stroke-width:0.050000mm;stroke:black"/>
<polygon points="188.501,12.125 188.501,26.125 202.501,26.125 202.501,12.125" style="fill:none;stroke-width:0.050000mm;stroke:black"/>
<polygon points="169.451,12.125 169.451,26.125 183.451,26.125 183.451,12.125" style="fill:none;stroke-width:0.050000mm;stroke:black"/>
<polygon points="150.400,12.125 150.400,26.125 164.400,26.125 164.400,12.125" style="fill:none;stroke-width:0.050000mm;stroke:black"/>
<polygon points="131.351,12.125 131.351,26.125 145.351,26.125 145.351,12.125" style="fill:none;stroke-width:0.050000mm;stroke:black"/>
<polygon points="102.776,12.125 102.776,26.125 116.776,26.125 116.776,12.125" style="fill:none;stroke-width:0.050000mm;stroke:black"/>
<polygon points="83.726,12.125 83.726,26.125 97.726,26.125 97.726,12.125" style="fill:none;stroke-width:0.050000mm;stroke:black"/>
<polygon points="64.675,12.125 64.675,26.125 78.675,26.125 78.675,12.125" style="fill:none;stroke-width:0.050000mm;stroke:black"/>
<polygon points="45.626,12.125 45.626,26.125 59.626,26.125 59.626,12.125" style="fill:none;stroke-width:0.050000mm;stroke:black"/>
<polygon points="7.526,12.125 7.526,26.125 21.526,26.125 21.526,12.125" style="fill:none;stroke-width:0.050000mm;stroke:black"/>
</svg>