  0
SECTION
  2
HEADER
  9
$ACADVER
  1
AC1009
  9
$EXTMIN
 10
0.0
 20
0.0
 30
0.0
  9
$EXTMAX
 10
1000.0
 20
1000.0
 30
0.0
  9
$FILLMODE
 70
 0
  9
$SPLFRAME
 70
 1
  0
ENDSEC
  0
SECTION
  2
TABLES
  0
TABLE
  2
LAYER
 70
1
  0
LAYER
  2
0
 70
     0
 62
     7
  6
CONTINUOUS
  0
ENDTAB
  0
ENDSEC
  0
SECTION
  2
ENTITIES
  0
LINE
  8
0
 62
     0
 10
347.381
 20
55.2799
 30
0.0
 11
343.881
 21
55.2799
 31
0.0
  0
LINE
  8
0
 62
     0
 10
343.881
 20
55.2799
 30
0.0
 11
343.108
 21
55.1586
 31
0.0
  0
LINE
  8
0
 62
     0
 10
343.108
 20
55.1586
 30
0.0
 11
342.412
 21
54.8033
 31
0.0
  0
LINE
  8
0
 62
     0
 10
342.412
 20
54.8033
 30
0.0
 11
341.858
 21
54.2505
 31
0.0
  0
LINE
  8
0
 62
     0
 10
341.858
 20
54.2505
 30
0.0
 11
341.504
 21
53.5534
 31
0.0
  0
LINE
  8
0
 62
     0
 10
341.504
 20
53.5534
 30
0.0
 11
341.381
 21
52.7816
 31
0.0
  0
LINE
  8
0
 62
     0
 10
341.381
 20
52.7816
 30
0.0
 11
341.504
 21
52.0072
 31
0.0
  0
LINE
  8
0
 62
     0
 10
341.504
 20
52.0072
 30
0.0
 11
341.858
 21
51.3098
 31
0.0
  0
LINE
  8
0
 62
     0
 10
341.858
 20
51.3098
 30
0.0
 11
342.412
 21
50.7573
 31
0.0
  0
LINE
  8
0
 62
     0
 10
342.412
 20
50.7573
 30
0.0
 11
343.108
 21
50.4031
 31
0.0
  0
LINE
  8
0
 62
     0
 10
343.108
 20
50.4031
 30
0.0
 11
343.881
 21
50.2804
 31
0.0
  0
LINE
  8
0
 62
     0
 10
343.881
 20
50.2804
 30
0.0
 11
347.381
 21
50.2804
 31
0.0
  0
LINE
  8
0
 62
     0
 10
347.381
 20
50.2804
 30
0.0
 11
347.381
 21
0.230132
 31
0.0
  0
LINE
  8
0
 62
     0
 10
347.381
 20
0.230132
 30
0.0
 11
0.0950846
 21
0.230132
 31
0.0
  0
LINE
  8
0
 62
     0
 10
0.0950846
 20
0.230132
 30
0.0
 11
0.0950846
 21
50.2804
 31
0.0
  0
LINE
  8
0
 62
     0
 10
0.0950846
 20
50.2804
 30
0.0
 11
3.59392
 21
50.2804
 31
0.0
  0
LINE
  8
0
 62
     0
 10
3.59392
 20
50.2804
 30
0.0
 11
4.367
 21
50.4031
 31
0.0
  0
LINE
  8
0
 62
     0
 10
4.367
 20
50.4031
 30
0.0
 11
5.06293
 21
50.7573
 31
0.0
  0
LINE
  8
0
 62
     0
 10
5.06293
 20
50.7573
 30
0.0
 11
5.61689
 21
51.3098
 31
0.0
  0
LINE
  8
0
 62
     0
 10
5.61689
 20
51.3098
 30
0.0
 11
5.97105
 21
52.0072
 31
0.0
  0
LINE
  8
0
 62
     0
 10
5.97105
 20
52.0072
 30
0.0
 11
6.09505
 21
52.7787
 31
0.0
  0
LINE
  8
0
 62
     0
 10
6.09505
 20
52.7787
 30
0.0
 11
5.97105
 21
53.5534
 31
0.0
  0
LINE
  8
0
 62
     0
 10
5.97105
 20
53.5534
 30
0.0
 11
5.61689
 21
54.2505
 31
0.0
  0
LINE
  8
0
 62
     0
 10
5.61689
 20
54.2505
 30
0.0
 11
5.06293
 21
54.8033
 31
0.0
  0
LINE
  8
0
 62
     0
 10
5.06293
 20
54.8033
 30
0.0
 11
4.367
 21
55.1586
 31
0.0
  0
LINE
  8
0
 62
     0
 10
4.367
 20
55.1586
 30
0.0
 11
3.5953
 21
55.2799
 31
0.0
  0
LINE
  8
0
 62
     0
 10
3.5953
 20
55.2799
 30
0.0
 11
0.0950846
 21
55.2799
 31
0.0
  0
LINE
  8
0
 62
     0
 10
0.0950846
 20
55.2799
 30
0.0
 11
0.0950846
 21
123.73
 31
0.0
  0
LINE
  8
0
 62
     0
 10
0.0950846
 20
123.73
 30
0.0
 11
347.381
 21
123.73
 31
0.0
  0
LINE
  8
0
 62
     0
 10
347.381
 20
123.73
 30
0.0
 11
347.381
 21
55.2799
 31
0.0
  0
LINE
  8
0
 62
     0
 10
123.876
 20
16.593
 30
0.0
 11
123.876
 21
11.8938
 31
0.0
  0
LINE
  8
0
 62
     0
 10
123.876
 20
11.8938
 30
0.0
 11
84.2504
 21
11.8938
 31
0.0
  0
LINE
  8
0
 62
     0
 10
84.2504
 20
11.8938
 30
0.0
 11
84.2504
 21
15.124
 31
0.0
  0
LINE
  8
0
 62
     0
 10
84.2504
 20
15.124
 30
0.0
 11
77.501
 21
15.124
 31
0.0
  0
LINE
  8
0
 62
     0
 10
77.501
 20
15.124
 30
0.0
 11
77.501
 21
11.8938
 31
0.0
  0
LINE
  8
0
 62
     0
 10
77.501
 20
11.8938
 30
0.0
 11
76.6755
 21
11.8938
 31
0.0
  0
LINE
  8
0
 62
     0
 10
76.6755
 20
11.8938
 30
0.0
 11
76.6755
 21
9.09366
 31
0.0
  0
LINE
  8
0
 62
     0
 10
76.6755
 20
9.09366
 30
0.0
 11
77.501
 21
9.09366
 31
0.0
  0
LINE
  8
0
 62
     0
 10
77.501
 20
9.09366
 30
0.0
 11
77.501
 21
2.8236
 31
0.0
  0
LINE
  8
0
 62
     0
 10
77.501
 20
2.8236
 30
0.0
 11
79.2261
 21
2.8236
 31
0.0
  0
LINE
  8
0
 62
     0
 10
79.2261
 20
2.8236
 30
0.0
 11
79.2261
 21
1.62333
 31
0.0
  0
LINE
  8
0
 62
     0
 10
79.2261
 20
1.62333
 30
0.0
 11
82.5253
 21
1.62333
 31
0.0
  0
LINE
  8
0
 62
     0
 10
82.5253
 20
1.62333
 30
0.0
 11
82.5253
 21
2.8236
 31
0.0
  0
LINE
  8
0
 62
     0
 10
82.5253
 20
2.8236
 30
0.0
 11
84.2504
 21
2.8236
 31
0.0
  0
LINE
  8
0
 62
     0
 10
84.2504
 20
2.8236
 30
0.0
 11
84.2504
 21
7.29396
 31
0.0
  0
LINE
  8
0
 62
     0
 10
84.2504
 20
7.29396
 30
0.0
 11
123.876
 21
7.29396
 31
0.0
  0
LINE
  8
0
 62
     0
 10
123.876
 20
7.29396
 30
0.0
 11
123.876
 21
2.59347
 31
0.0
  0
LINE
  8
0
 62
     0
 10
123.876
 20
2.59347
 30
0.0
 11
137.875
 21
2.59347
 31
0.0
  0
LINE
  8
0
 62
     0
 10
137.875
 20
2.59347
 30
0.0
 11
137.875
 21
7.29396
 31
0.0
  0
LINE
  8
0
 62
     0
 10
137.875
 20
7.29396
 30
0.0
 11
177.501
 21
7.29396
 31
0.0
  0
LINE
  8
0
 62
     0
 10
177.501
 20
7.29396
 30
0.0
 11
177.501
 21
2.8236
 31
0.0
  0
LINE
  8
0
 62
     0
 10
177.501
 20
2.8236
 30
0.0
 11
179.225
 21
2.8236
 31
0.0
  0
LINE
  8
0
 62
     0
 10
179.225
 20
2.8236
 30
0.0
 11
179.225
 21
1.62333
 31
0.0
  0
LINE
  8
0
 62
     0
 10
179.225
 20
1.62333
 30
0.0
 11
182.525
 21
1.62333
 31
0.0
  0
LINE
  8
0
 62
     0
 10
182.525
 20
1.62333
 30
0.0
 11
182.525
 21
2.8236
 31
0.0
  0
LINE
  8
0
 62
     0
 10
182.525
 20
2.8236
 30
0.0
 11
184.251
 21
2.8236
 31
0.0
  0
LINE
  8
0
 62
     0
 10
184.251
 20
2.8236
 30
0.0
 11
184.251
 21
9.09366
 31
0.0
  0
LINE
  8
0
 62
     0
 10
184.251
 20
9.09366
 30
0.0
 11
185.075
 21
9.09366
 31
0.0
  0
LINE
  8
0
 62
     0
 10
185.075
 20
9.09366
 30
0.0
 11
185.075
 21
11.8938
 31
0.0
  0
LINE
  8
0
 62
     0
 10
185.075
 20
11.8938
 30
0.0
 11
184.251
 21
11.8938
 31
0.0
  0
LINE
  8
0
 62
     0
 10
184.251
 20
11.8938
 30
0.0
 11
184.251
 21
15.124
 31
0.0
  0
LINE
  8
0
 62
     0
 10
184.251
 20
15.124
 30
0.0
 11
177.501
 21
15.124
 31
0.0
  0
LINE
  8
0
 62
     0
 10
177.501
 20
15.124
 30
0.0
 11
177.501
 21
11.8938
 31
0.0
  0
LINE
  8
0
 62
     0
 10
177.501
 20
11.8938
 30
0.0
 11
137.875
 21
11.8938
 31
0.0
  0
LINE
  8
0
 62
     0
 10
137.875
 20
11.8938
 30
0.0
 11
137.875
 21
16.593
 31
0.0
  0
LINE
  8
0
 62
     0
 10
137.875
 20
16.593
 30
0.0
 11
123.876
 21
16.593
 31
0.0
  0
LINE
  8
0
 62
     0
 10
331.043
 20
16.593
 30
0.0
 11
345.043
 21
16.593
 31
0.0
  0
LINE
  8
0
 62
     0
 10
345.043
 20
16.593
 30
0.0
 11
345.043
 21
2.59347
 31
0.0
  0
LINE
  8
0
 62
     0
 10
345.043
 20
2.59347
 30
0.0
 11
331.043
 21
2.59347
 31
0.0
  0
LINE
  8
0
 62
     0
 10
331.043
 20
2.59347
 30
0.0
 11
331.043
 21
16.593
 31
0.0
  0
LINE
  8
0
 62
     0
 10
311.993
 20
16.593
 30
0.0
 11
325.993
 21
16.593
 31
0.0
  0
LINE
  8
0
 62
     0
 10
325.993
 20
16.593
 30
0.0
 11
325.993
 21
2.59347
 31
0.0
  0
LINE
  8
0
 62
     0
 10
325.993
 20
2.59347
 30
0.0
 11
311.993
 21
2.59347
 31
0.0
  0
LINE
  8
0
 62
     0
 10
311.993
 20
2.59347
 30
0.0
 11
311.993
 21
16.593
 31
0.0
  0
LINE
  8
0
 62
     0
 10
292.943
 20
16.593
 30
0.0
 11
306.943
 21
16.593
 31
0.0
  0
LINE
  8
0
 62
     0
 10
306.943
 20
16.593
 30
0.0
 11
306.943
 21
2.59347
 31
0.0
  0
LINE
  8
0
 62
     0
 10
306.943
 20
2.59347
 30
0.0
 11
292.943
 21
2.59347
 31
0.0
  0
LINE
  8
0
 62
     0
 10
292.943
 20
2.59347
 30
0.0
 11
292.943
 21
16.593
 31
0.0
  0
LINE
  8
0
 62
     0
 10
266.75
 20
16.593
 30
0.0
 11
280.749
 21
16.593
 31
0.0
  0
LINE
  8
0
 62
     0
 10
280.749
 20
16.593
 30
0.0
 11
280.749
 21
2.59347
 31
0.0
  0
LINE
  8
0
 62
     0
 10
280.749
 20
2.59347
 30
0.0
 11
266.75
 21
2.59347
 31
0.0
  0
LINE
  8
0
 62
     0
 10
266.75
 20
2.59347
 30
0.0
 11
266.75
 21
16.593
 31
0.0
  0
LINE
  8
0
 62
     0
 10
242.937
 20
16.593
 30
0.0
 11
256.937
 21
16.593
 31
0.0
  0
LINE
  8
0
 62
     0
 10
256.937
 20
16.593
 30
0.0
 11
256.937
 21
2.59347
 31
0.0
  0
LINE
  8
0
 62
     0
 10
256.937
 20
2.59347
 30
0.0
 11
242.937
 21
2.59347
 31
0.0
  0
LINE
  8
0
 62
     0
 10
242.937
 20
2.59347
 30
0.0
 11
242.937
 21
16.593
 31
0.0
  0
LINE
  8
0
 62
     0
 10
219.126
 20
16.593
 30
0.0
 11
233.125
 21
16.593
 31
0.0
  0
LINE
  8
0
 62
     0
 10
233.125
 20
16.593
 30
0.0
 11
233.125
 21
2.59347
 31
0.0
  0
LINE
  8
0
 62
     0
 10
233.125
 20
2.59347
 30
0.0
 11
219.126
 21
2.59347
 31
0.0
  0
LINE
  8
0
 62
     0
 10
219.126
 20
2.59347
 30
0.0
 11
219.126
 21
16.593
 31
0.0
  0
LINE
  8
0
 62
     0
 10
195.312
 20
16.593
 30
0.0
 11
209.312
 21
16.593
 31
0.0
  0
LINE
  8
0
 62
     0
 10
209.312
 20
16.593
 30
0.0
 11
209.312
 21
2.59347
 31
0.0
  0
LINE
  8
0
 62
     0
 10
209.312
 20
2.59347
 30
0.0
 11
195.312
 21
2.59347
 31
0.0
  0
LINE
  8
0
 62
     0
 10
195.312
 20
2.59347
 30
0.0
 11
195.312
 21
16.593
 31
0.0
  0
LINE
  8
0
 62
     0
 10
52.4372
 20
16.593
 30
0.0
 11
66.4379
 21
16.593
 31
0.0
  0
LINE
  8
0
 62
     0
 10
66.4379
 20
16.593
 30
0.0
 11
66.4379
 21
2.59347
 31
0.0
  0
LINE
  8
0
 62
     0
 10
66.4379
 20
2.59347
 30
0.0
 11
52.4372
 21
2.59347
 31
0.0
  0
LINE
  8
0
 62
     0
 10
52.4372
 20
2.59347
 30
0.0
 11
52.4372
 21
16.593
 31
0.0
  0
LINE
  8
0
 62
     0
 10
28.6246
 20
16.593
 30
0.0
 11
42.624
 21
16.593
 31
0.0
  0
LINE
  8
0
 62
     0
 10
42.624
 20
16.593
 30
0.0
 11
42.624
 21
2.59347
 31
0.0
  0
LINE
  8
0
 62
     0
 10
42.624
 20
2.59347
 30
0.0
 11
28.6246
 21
2.59347
 31
0.0
  0
LINE
  8
0
 62
     0
 10
28.6246
 20
2.59347
 30
0.0
 11
28.6246
 21
16.593
 31
0.0
  0
LINE
  8
0
 62
     0
 10
4.8121
 20
16.593
 30
0.0
 11
18.813
 21
16.593
 31
0.0
  0
LINE
  8
0
 62
     0
 10
18.813
 20
16.593
 30
0.0
 11
18.813
 21
2.59347
 31
0.0
  0
LINE
  8
0
 62
     0
 10
18.813
 20
2.59347
 30
0.0
 11
4.8121
 21
2.59347
 31
0.0
  0
LINE
  8
0
 62
     0
 10
4.8121
 20
2.59347
 30
0.0
 11
4.8121
 21
16.593
 31
0.0
  0
LINE
  8
0
 62
     0
 10
252.462
 20
35.6429
 30
0.0
 11
252.462
 21
30.9438
 31
0.0
  0
LINE
  8
0
 62
     0
 10
252.462
 20
30.9438
 30
0.0
 11
250.936
 21
30.9438
 31
0.0
  0
LINE
  8
0
 62
     0
 10
250.936
 20
30.9438
 30
0.0
 11
250.936
 21
34.174
 31
0.0
  0
LINE
  8
0
 62
     0
 10
250.936
 20
34.174
 30
0.0
 11
244.187
 21
34.174
 31
0.0
  0
LINE
  8
0
 62
     0
 10
244.187
 20
34.174
 30
0.0
 11
244.187
 21
30.9438
 31
0.0
  0
LINE
  8
0
 62
     0
 10
244.187
 20
30.9438
 30
0.0
 11
243.363
 21
30.9438
 31
0.0
  0
LINE
  8
0
 62
     0
 10
243.363
 20
30.9438
 30
0.0
 11
243.363
 21
28.1437
 31
0.0
  0
LINE
  8
0
 62
     0
 10
243.363
 20
28.1437
 30
0.0
 11
244.187
 21
28.1437
 31
0.0
  0
LINE
  8
0
 62
     0
 10
244.187
 20
28.1437
 30
0.0
 11
244.187
 21
21.8736
 31
0.0
  0
LINE
  8
0
 62
     0
 10
244.187
 20
21.8736
 30
0.0
 11
245.912
 21
21.8736
 31
0.0
  0
LINE
  8
0
 62
     0
 10
245.912
 20
21.8736
 30
0.0
 11
245.912
 21
20.6733
 31
0.0
  0
LINE
  8
0
 62
     0
 10
245.912
 20
20.6733
 30
0.0
 11
249.211
 21
20.6733
 31
0.0
  0
LINE
  8
0
 62
     0
 10
249.211
 20
20.6733
 30
0.0
 11
249.211
 21
21.8736
 31
0.0
  0
LINE
  8
0
 62
     0
 10
249.211
 20
21.8736
 30
0.0
 11
250.936
 21
21.8736
 31
0.0
  0
LINE
  8
0
 62
     0
 10
250.936
 20
21.8736
 30
0.0
 11
250.936
 21
26.344
 31
0.0
  0
LINE
  8
0
 62
     0
 10
250.936
 20
26.344
 30
0.0
 11
252.462
 21
26.344
 31
0.0
  0
LINE
  8
0
 62
     0
 10
252.462
 20
26.344
 30
0.0
 11
252.462
 21
21.6435
 31
0.0
  0
LINE
  8
0
 62
     0
 10
252.462
 20
21.6435
 30
0.0
 11
266.462
 21
21.6435
 31
0.0
  0
LINE
  8
0
 62
     0
 10
266.462
 20
21.6435
 30
0.0
 11
266.462
 21
26.344
 31
0.0
  0
LINE
  8
0
 62
     0
 10
266.462
 20
26.344
 30
0.0
 11
267.987
 21
26.344
 31
0.0
  0
LINE
  8
0
 62
     0
 10
267.987
 20
26.344
 30
0.0
 11
267.987
 21
21.8736
 31
0.0
  0
LINE
  8
0
 62
     0
 10
267.987
 20
21.8736
 30
0.0
 11
269.711
 21
21.8736
 31
0.0
  0
LINE
  8
0
 62
     0
 10
269.711
 20
21.8736
 30
0.0
 11
269.711
 21
20.6733
 31
0.0
  0
LINE
  8
0
 62
     0
 10
269.711
 20
20.6733
 30
0.0
 11
273.012
 21
20.6733
 31
0.0
  0
LINE
  8
0
 62
     0
 10
273.012
 20
20.6733
 30
0.0
 11
273.012
 21
21.8736
 31
0.0
  0
LINE
  8
0
 62
     0
 10
273.012
 20
21.8736
 30
0.0
 11
274.737
 21
21.8736
 31
0.0
  0
LINE
  8
0
 62
     0
 10
274.737
 20
21.8736
 30
0.0
 11
274.737
 21
28.1437
 31
0.0
  0
LINE
  8
0
 62
     0
 10
274.737
 20
28.1437
 30
0.0
 11
275.562
 21
28.1437
 31
0.0
  0
LINE
  8
0
 62
     0
 10
275.562
 20
28.1437
 30
0.0
 11
275.562
 21
30.9438
 31
0.0
  0
LINE
  8
0
 62
     0
 10
275.562
 20
30.9438
 30
0.0
 11
274.737
 21
30.9438
 31
0.0
  0
LINE
  8
0
 62
     0
 10
274.737
 20
30.9438
 30
0.0
 11
274.737
 21
34.174
 31
0.0
  0
LINE
  8
0
 62
     0
 10
274.737
 20
34.174
 30
0.0
 11
267.987
 21
34.174
 31
0.0
  0
LINE
  8
0
 62
     0
 10
267.987
 20
34.174
 30
0.0
 11
267.987
 21
30.9438
 31
0.0
  0
LINE
  8
0
 62
     0
 10
267.987
 20
30.9438
 30
0.0
 11
266.462
 21
30.9438
 31
0.0
  0
LINE
  8
0
 62
     0
 10
266.462
 20
30.9438
 30
0.0
 11
266.462
 21
35.6429
 31
0.0
  0
LINE
  8
0
 62
     0
 10
266.462
 20
35.6429
 30
0.0
 11
252.462
 21
35.6429
 31
0.0
  0
LINE
  8
0
 62
     0
 10
14.3371
 20
35.6429
 30
0.0
 11
14.3371
 21
30.9438
 31
0.0
  0
LINE
  8
0
 62
     0
 10
14.3371
 20
30.9438
 30
0.0
 11
12.813
 21
30.9438
 31
0.0
  0
LINE
  8
0
 62
     0
 10
12.813
 20
30.9438
 30
0.0
 11
12.813
 21
34.174
 31
0.0
  0
LINE
  8
0
 62
     0
 10
12.813
 20
34.174
 30
0.0
 11
6.06199
 21
34.174
 31
0.0
  0
LINE
  8
0
 62
     0
 10
6.06199
 20
34.174
 30
0.0
 11
6.06199
 21
30.9438
 31
0.0
  0
LINE
  8
0
 62
     0
 10
6.06199
 20
30.9438
 30
0.0
 11
5.23794
 21
30.9438
 31
0.0
  0
LINE
  8
0
 62
     0
 10
5.23794
 20
30.9438
 30
0.0
 11
5.23794
 21
28.1437
 31
0.0
  0
LINE
  8
0
 62
     0
 10
5.23794
 20
28.1437
 30
0.0
 11
6.06199
 21
28.1437
 31
0.0
  0
LINE
  8
0
 62
     0
 10
6.06199
 20
28.1437
 30
0.0
 11
6.06199
 21
21.8736
 31
0.0
  0
LINE
  8
0
 62
     0
 10
6.06199
 20
21.8736
 30
0.0
 11
7.78729
 21
21.8736
 31
0.0
  0
LINE
  8
0
 62
     0
 10
7.78729
 20
21.8736
 30
0.0
 11
7.78729
 21
20.6733
 31
0.0
  0
LINE
  8
0
 62
     0
 10
7.78729
 20
20.6733
 30
0.0
 11
11.0863
 21
20.6733
 31
0.0
  0
LINE
  8
0
 62
     0
 10
11.0863
 20
20.6733
 30
0.0
 11
11.0863
 21
21.8736
 31
0.0
  0
LINE
  8
0
 62
     0
 10
11.0863
 20
21.8736
 30
0.0
 11
12.813
 21
21.8736
 31
0.0
  0
LINE
  8
0
 62
     0
 10
12.813
 20
21.8736
 30
0.0
 11
12.813
 21
26.344
 31
0.0
  0
LINE
  8
0
 62
     0
 10
12.813
 20
26.344
 30
0.0
 11
14.3371
 21
26.344
 31
0.0
  0
LINE
  8
0
 62
     0
 10
14.3371
 20
26.344
 30
0.0
 11
14.3371
 21
21.6435
 31
0.0
  0
LINE
  8
0
 62
     0
 10
14.3371
 20
21.6435
 30
0.0
 11
28.3366
 21
21.6435
 31
0.0
  0
LINE
  8
0
 62
     0
 10
28.3366
 20
21.6435
 30
0.0
 11
28.3366
 21
26.344
 31
0.0
  0
LINE
  8
0
 62
     0
 10
28.3366
 20
26.344
 30
0.0
 11
29.8621
 21
26.344
 31
0.0
  0
LINE
  8
0
 62
     0
 10
29.8621
 20
26.344
 30
0.0
 11
29.8621
 21
21.8736
 31
0.0
  0
LINE
  8
0
 62
     0
 10
29.8621
 20
21.8736
 30
0.0
 11
31.586
 21
21.8736
 31
0.0
  0
LINE
  8
0
 62
     0
 10
31.586
 20
21.8736
 30
0.0
 11
31.586
 21
20.6733
 31
0.0
  0
LINE
  8
0
 62
     0
 10
31.586
 20
20.6733
 30
0.0
 11
34.8864
 21
20.6733
 31
0.0
  0
LINE
  8
0
 62
     0
 10
34.8864
 20
20.6733
 30
0.0
 11
34.8864
 21
21.8736
 31
0.0
  0
LINE
  8
0
 62
     0
 10
34.8864
 20
21.8736
 30
0.0
 11
36.613
 21
21.8736
 31
0.0
  0
LINE
  8
0
 62
     0
 10
36.613
 20
21.8736
 30
0.0
 11
36.613
 21
28.1437
 31
0.0
  0
LINE
  8
0
 62
     0
 10
36.613
 20
28.1437
 30
0.0
 11
37.4371
 21
28.1437
 31
0.0
  0
LINE
  8
0
 62
     0
 10
37.4371
 20
28.1437
 30
0.0
 11
37.4371
 21
30.9438
 31
0.0
  0
LINE
  8
0
 62
     0
 10
37.4371
 20
30.9438
 30
0.0
 11
36.613
 21
30.9438
 31
0.0
  0
LINE
  8
0
 62
     0
 10
36.613
 20
30.9438
 30
0.0
 11
36.613
 21
34.174
 31
0.0
  0
LINE
  8
0
 62
     0
 10
36.613
 20
34.174
 30
0.0
 11
29.8621
 21
34.174
 31
0.0
  0
LINE
  8
0
 62
     0
 10
29.8621
 20
34.174
 30
0.0
 11
29.8621
 21
30.9438
 31
0.0
  0
LINE
  8
0
 62
     0
 10
29.8621
 20
30.9438
 30
0.0
 11
28.3366
 21
30.9438
 31
0.0
  0
LINE
  8
0
 62
     0
 10
28.3366
 20
30.9438
 30
0.0
 11
28.3366
 21
35.6429
 31
0.0
  0
LINE
  8
0
 62
     0
 10
28.3366
 20
35.6429
 30
0.0
 11
14.3371
 21
35.6429
 31
0.0
  0
LINE
  8
0
 62
     0
 10
216.745
 20
35.6429
 30
0.0
 11
216.745
 21
21.6435
 31
0.0
  0
LINE
  8
0
 62
     0
 10
216.745
 20
21.6435
 30
0.0
 11
221.339
 21
21.6435
 31
0.0
  0
LINE
  8
0
 62
     0
 10
221.339
 20
21.6435
 30
0.0
 11
221.739
 21
21.5801
 31
0.0
  0
LINE
  8
0
 62
     0
 10
221.739
 20
21.5801
 30
0.0
 11
222.137
 21
21.6435
 31
0.0
  0
LINE
  8
0
 62
     0
 10
222.137
 20
21.6435
 30
0.0
 11
230.744
 21
21.6435
 31
0.0
  0
LINE
  8
0
 62
     0
 10
230.744
 20
21.6435
 30
0.0
 11
230.744
 21
35.6429
 31
0.0
  0
LINE
  8
0
 62
     0
 10
230.744
 20
35.6429
 30
0.0
 11
216.745
 21
35.6429
 31
0.0
  0
LINE
  8
0
 62
     0
 10
311.993
 20
35.6429
 30
0.0
 11
325.993
 21
35.6429
 31
0.0
  0
LINE
  8
0
 62
     0
 10
325.993
 20
35.6429
 30
0.0
 11
325.993
 21
21.6435
 31
0.0
  0
LINE
  8
0
 62
     0
 10
325.993
 20
21.6435
 30
0.0
 11
311.993
 21
21.6435
 31
0.0
  0
LINE
  8
0
 62
     0
 10
311.993
 20
21.6435
 30
0.0
 11
311.993
 21
35.6429
 31
0.0
  0
LINE
  8
0
 62
     0
 10
197.693
 20
35.6429
 30
0.0
 11
211.693
 21
35.6429
 31
0.0
  0
LINE
  8
0
 62
     0
 10
211.693
 20
35.6429
 30
0.0
 11
211.693
 21
21.6435
 31
0.0
  0
LINE
  8
0
 62
     0
 10
211.693
 20
21.6435
 30
0.0
 11
197.693
 21
21.6435
 31
0.0
  0
LINE
  8
0
 62
     0
 10
197.693
 20
21.6435
 30
0.0
 11
197.693
 21
35.6429
 31
0.0
  0
LINE
  8
0
 62
     0
 10
178.645
 20
35.6429
 30
0.0
 11
192.644
 21
35.6429
 31
0.0
  0
LINE
  8
0
 62
     0
 10
192.644
 20
35.6429
 30
0.0
 11
192.644
 21
21.6435
 31
0.0
  0
LINE
  8
0
 62
     0
 10
192.644
 20
21.6435
 30
0.0
 11
178.645
 21
21.6435
 31
0.0
  0
LINE
  8
0
 62
     0
 10
178.645
 20
21.6435
 30
0.0
 11
178.645
 21
35.6429
 31
0.0
  0
LINE
  8
0
 62
     0
 10
159.595
 20
35.6429
 30
0.0
 11
173.594
 21
35.6429
 31
0.0
  0
LINE
  8
0
 62
     0
 10
173.594
 20
35.6429
 30
0.0
 11
173.594
 21
21.6435
 31
0.0
  0
LINE
  8
0
 62
     0
 10
173.594
 20
21.6435
 30
0.0
 11
159.595
 21
21.6435
 31
0.0
  0
LINE
  8
0
 62
     0
 10
159.595
 20
21.6435
 30
0.0
 11
159.595
 21
35.6429
 31
0.0
  0
LINE
  8
0
 62
     0
 10
140.543
 20
35.6429
 30
0.0
 11
154.543
 21
35.6429
 31
0.0
  0
LINE
  8
0
 62
     0
 10
154.543
 20
35.6429
 30
0.0
 11
154.543
 21
21.6435
 31
0.0
  0
LINE
  8
0
 62
     0
 10
154.543
 20
21.6435
 30
0.0
 11
140.543
 21
21.6435
 31
0.0
  0
LINE
  8
0
 62
     0
 10
140.543
 20
21.6435
 30
0.0
 11
140.543
 21
35.6429
 31
0.0
  0
LINE
  8
0
 62
     0
 10
121.495
 20
35.6429
 30
0.0
 11
135.494
 21
35.6429
 31
0.0
  0
LINE
  8
0
 62
     0
 10
135.494
 20
35.6429
 30
0.0
 11
135.494
 21
21.6435
 31
0.0
  0
LINE
  8
0
 62
     0
 10
135.494
 20
21.6435
 30
0.0
 11
121.495
 21
21.6435
 31
0.0
  0
LINE
  8
0
 62
     0
 10
121.495
 20
21.6435
 30
0.0
 11
121.495
 21
35.6429
 31
0.0
  0
LINE
  8
0
 62
     0
 10
102.443
 20
35.6429
 30
0.0
 11
116.443
 21
35.6429
 31
0.0
  0
LINE
  8
0
 62
     0
 10
116.443
 20
35.6429
 30
0.0
 11
116.443
 21
21.6435
 31
0.0
  0
LINE
  8
0
 62
     0
 10
116.443
 20
21.6435
 30
0.0
 11
102.443
 21
21.6435
 31
0.0
  0
LINE
  8
0
 62
     0
 10
102.443
 20
21.6435
 30
0.0
 11
102.443
 21
35.6429
 31
0.0
  0
LINE
  8
0
 62
     0
 10
83.3949
 20
35.6429
 30
0.0
 11
97.3942
 21
35.6429
 31
0.0
  0
LINE
  8
0
 62
     0
 10
97.3942
 20
35.6429
 30
0.0
 11
97.3942
 21
21.6435
 31
0.0
  0
LINE
  8
0
 62
     0
 10
97.3942
 20
21.6435
 30
0.0
 11
83.3949
 21
21.6435
 31
0.0
  0
LINE
  8
0
 62
     0
 10
83.3949
 20
21.6435
 30
0.0
 11
83.3949
 21
35.6429
 31
0.0
  0
LINE
  8
0
 62
     0
 10
64.3449
 20
35.6429
 30
0.0
 11
78.3442
 21
35.6429
 31
0.0
  0
LINE
  8
0
 62
     0
 10
78.3442
 20
35.6429
 30
0.0
 11
78.3442
 21
21.6435
 31
0.0
  0
LINE
  8
0
 62
     0
 10
78.3442
 20
21.6435
 30
0.0
 11
64.3449
 21
21.6435
 31
0.0
  0
LINE
  8
0
 62
     0
 10
64.3449
 20
21.6435
 30
0.0
 11
64.3449
 21
35.6429
 31
0.0
  0
LINE
  8
0
 62
     0
 10
45.2949
 20
35.6429
 30
0.0
 11
59.2942
 21
35.6429
 31
0.0
  0
LINE
  8
0
 62
     0
 10
59.2942
 20
35.6429
 30
0.0
 11
59.2942
 21
21.6435
 31
0.0
  0
LINE
  8
0
 62
     0
 10
59.2942
 20
21.6435
 30
0.0
 11
45.2949
 21
21.6435
 31
0.0
  0
LINE
  8
0
 62
     0
 10
45.2949
 20
21.6435
 30
0.0
 11
45.2949
 21
35.6429
 31
0.0
  0
LINE
  8
0
 62
     0
 10
257.223
 20
54.6929
 30
0.0
 11
257.223
 21
49.9939
 31
0.0
  0
LINE
  8
0
 62
     0
 10
257.223
 20
49.9939
 30
0.0
 11
255.699
 21
49.9939
 31
0.0
  0
LINE
  8
0
 62
     0
 10
255.699
 20
49.9939
 30
0.0
 11
255.699
 21
53.2239
 31
0.0
  0
LINE
  8
0
 62
     0
 10
255.699
 20
53.2239
 30
0.0
 11
248.95
 21
53.2239
 31
0.0
  0
LINE
  8
0
 62
     0
 10
248.95
 20
53.2239
 30
0.0
 11
248.95
 21
49.9939
 31
0.0
  0
LINE
  8
0
 62
     0
 10
248.95
 20
49.9939
 30
0.0
 11
248.126
 21
49.9939
 31
0.0
  0
LINE
  8
0
 62
     0
 10
248.126
 20
49.9939
 30
0.0
 11
248.126
 21
47.1936
 31
0.0
  0
LINE
  8
0
 62
     0
 10
248.126
 20
47.1936
 30
0.0
 11
248.95
 21
47.1936
 31
0.0
  0
LINE
  8
0
 62
     0
 10
248.95
 20
47.1936
 30
0.0
 11
248.95
 21
40.9236
 31
0.0
  0
LINE
  8
0
 62
     0
 10
248.95
 20
40.9236
 30
0.0
 11
250.675
 21
40.9236
 31
0.0
  0
LINE
  8
0
 62
     0
 10
250.675
 20
40.9236
 30
0.0
 11
250.675
 21
39.7235
 31
0.0
  0
LINE
  8
0
 62
     0
 10
250.675
 20
39.7235
 30
0.0
 11
253.974
 21
39.7235
 31
0.0
  0
LINE
  8
0
 62
     0
 10
253.974
 20
39.7235
 30
0.0
 11
253.974
 21
40.9236
 31
0.0
  0
LINE
  8
0
 62
     0
 10
253.974
 20
40.9236
 30
0.0
 11
255.699
 21
40.9236
 31
0.0
  0
LINE
  8
0
 62
     0
 10
255.699
 20
40.9236
 30
0.0
 11
255.699
 21
45.394
 31
0.0
  0
LINE
  8
0
 62
     0
 10
255.699
 20
45.394
 30
0.0
 11
257.223
 21
45.394
 31
0.0
  0
LINE
  8
0
 62
     0
 10
257.223
 20
45.394
 30
0.0
 11
257.223
 21
40.6936
 31
0.0
  0
LINE
  8
0
 62
     0
 10
257.223
 20
40.6936
 30
0.0
 11
271.224
 21
40.6936
 31
0.0
  0
LINE
  8
0
 62
     0
 10
271.224
 20
40.6936
 30
0.0
 11
271.224
 21
45.394
 31
0.0
  0
LINE
  8
0
 62
     0
 10
271.224
 20
45.394
 30
0.0
 11
272.749
 21
45.394
 31
0.0
  0
LINE
  8
0
 62
     0
 10
272.749
 20
45.394
 30
0.0
 11
272.749
 21
40.9236
 31
0.0
  0
LINE
  8
0
 62
     0
 10
272.749
 20
40.9236
 30
0.0
 11
274.475
 21
40.9236
 31
0.0
  0
LINE
  8
0
 62
     0
 10
274.475
 20
40.9236
 30
0.0
 11
274.475
 21
39.7235
 31
0.0
  0
LINE
  8
0
 62
     0
 10
274.475
 20
39.7235
 30
0.0
 11
277.774
 21
39.7235
 31
0.0
  0
LINE
  8
0
 62
     0
 10
277.774
 20
39.7235
 30
0.0
 11
277.774
 21
40.9236
 31
0.0
  0
LINE
  8
0
 62
     0
 10
277.774
 20
40.9236
 30
0.0
 11
279.499
 21
40.9236
 31
0.0
  0
LINE
  8
0
 62
     0
 10
279.499
 20
40.9236
 30
0.0
 11
279.499
 21
47.1936
 31
0.0
  0
LINE
  8
0
 62
     0
 10
279.499
 20
47.1936
 30
0.0
 11
280.325
 21
47.1936
 31
0.0
  0
LINE
  8
0
 62
     0
 10
280.325
 20
47.1936
 30
0.0
 11
280.325
 21
49.9939
 31
0.0
  0
LINE
  8
0
 62
     0
 10
280.325
 20
49.9939
 30
0.0
 11
279.499
 21
49.9939
 31
0.0
  0
LINE
  8
0
 62
     0
 10
279.499
 20
49.9939
 30
0.0
 11
279.499
 21
53.2239
 31
0.0
  0
LINE
  8
0
 62
     0
 10
279.499
 20
53.2239
 30
0.0
 11
272.749
 21
53.2239
 31
0.0
  0
LINE
  8
0
 62
     0
 10
272.749
 20
53.2239
 30
0.0
 11
272.749
 21
49.9939
 31
0.0
  0
LINE
  8
0
 62
     0
 10
272.749
 20
49.9939
 30
0.0
 11
271.224
 21
49.9939
 31
0.0
  0
LINE
  8
0
 62
     0
 10
271.224
 20
49.9939
 30
0.0
 11
271.224
 21
54.6929
 31
0.0
  0
LINE
  8
0
 62
     0
 10
271.224
 20
54.6929
 30
0.0
 11
257.223
 21
54.6929
 31
0.0
  0
LINE
  8
0
 62
     0
 10
226.27
 20
54.6929
 30
0.0
 11
240.269
 21
54.6929
 31
0.0
  0
LINE
  8
0
 62
     0
 10
240.269
 20
54.6929
 30
0.0
 11
240.269
 21
40.6936
 31
0.0
  0
LINE
  8
0
 62
     0
 10
240.269
 20
40.6936
 30
0.0
 11
226.27
 21
40.6936
 31
0.0
  0
LINE
  8
0
 62
     0
 10
226.27
 20
40.6936
 30
0.0
 11
226.27
 21
54.6929
 31
0.0
  0
LINE
  8
0
 62
     0
 10
207.22
 20
54.6929
 30
0.0
 11
221.219
 21
54.6929
 31
0.0
  0
LINE
  8
0
 62
     0
 10
221.219
 20
54.6929
 30
0.0
 11
221.219
 21
40.6936
 31
0.0
  0
LINE
  8
0
 62
     0
 10
221.219
 20
40.6936
 30
0.0
 11
207.22
 21
40.6936
 31
0.0
  0
LINE
  8
0
 62
     0
 10
207.22
 20
40.6936
 30
0.0
 11
207.22
 21
54.6929
 31
0.0
  0
LINE
  8
0
 62
     0
 10
188.168
 20
54.6929
 30
0.0
 11
202.168
 21
54.6929
 31
0.0
  0
LINE
  8
0
 62
     0
 10
202.168
 20
54.6929
 30
0.0
 11
202.168
 21
40.6936
 31
0.0
  0
LINE
  8
0
 62
     0
 10
202.168
 20
40.6936
 30
0.0
 11
188.168
 21
40.6936
 31
0.0
  0
LINE
  8
0
 62
     0
 10
188.168
 20
40.6936
 30
0.0
 11
188.168
 21
54.6929
 31
0.0
  0
LINE
  8
0
 62
     0
 10
169.12
 20
54.6929
 30
0.0
 11
183.119
 21
54.6929
 31
0.0
  0
LINE
  8
0
 62
     0
 10
183.119
 20
54.6929
 30
0.0
 11
183.119
 21
40.6936
 31
0.0
  0
LINE
  8
0
 62
     0
 10
183.119
 20
40.6936
 30
0.0
 11
169.12
 21
40.6936
 31
0.0
  0
LINE
  8
0
 62
     0
 10
169.12
 20
40.6936
 30
0.0
 11
169.12
 21
54.6929
 31
0.0
  0
LINE
  8
0
 62
     0
 10
150.068
 20
54.6929
 30
0.0
 11
164.068
 21
54.6929
 31
0.0
  0
LINE
  8
0
 62
     0
 10
164.068
 20
54.6929
 30
0.0
 11
164.068
 21
40.6936
 31
0.0
  0
LINE
  8
0
 62
     0
 10
164.068
 20
40.6936
 30
0.0
 11
150.068
 21
40.6936
 31
0.0
  0
LINE
  8
0
 62
     0
 10
150.068
 20
40.6936
 30
0.0
 11
150.068
 21
54.6929
 31
0.0
  0
LINE
  8
0
 62
     0
 10
131.018
 20
54.6929
 30
0.0
 11
145.018
 21
54.6929
 31
0.0
  0
LINE
  8
0
 62
     0
 10
145.018
 20
54.6929
 30
0.0
 11
145.018
 21
40.6936
 31
0.0
  0
LINE
  8
0
 62
     0
 10
145.018
 20
40.6936
 30
0.0
 11
131.018
 21
40.6936
 31
0.0
  0
LINE
  8
0
 62
     0
 10
131.018
 20
40.6936
 30
0.0
 11
131.018
 21
54.6929
 31
0.0
  0
LINE
  8
0
 62
     0
 10
111.967
 20
54.6929
 30
0.0
 11
125.969
 21
54.6929
 31
0.0
  0
LINE
  8
0
 62
     0
 10
125.969
 20
54.6929
 30
0.0
 11
125.969
 21
40.6936
 31
0.0
  0
LINE
  8
0
 62
     0
 10
125.969
 20
40.6936
 30
0.0
 11
111.967
 21
40.6936
 31
0.0
  0
LINE
  8
0
 62
     0
 10
111.967
 20
40.6936
 30
0.0
 11
111.967
 21
54.6929
 31
0.0
  0
LINE
  8
0
 62
     0
 10
92.9185
 20
54.6929
 30
0.0
 11
106.918
 21
54.6929
 31
0.0
  0
LINE
  8
0
 62
     0
 10
106.918
 20
54.6929
 30
0.0
 11
106.918
 21
40.6936
 31
0.0
  0
LINE
  8
0
 62
     0
 10
106.918
 20
40.6936
 30
0.0
 11
92.9185
 21
40.6936
 31
0.0
  0
LINE
  8
0
 62
     0
 10
92.9185
 20
40.6936
 30
0.0
 11
92.9185
 21
54.6929
 31
0.0
  0
LINE
  8
0
 62
     0
 10
73.8685
 20
54.6929
 30
0.0
 11
87.8678
 21
54.6929
 31
0.0
  0
LINE
  8
0
 62
     0
 10
87.8678
 20
54.6929
 30
0.0
 11
87.8678
 21
40.6936
 31
0.0
  0
LINE
  8
0
 62
     0
 10
87.8678
 20
40.6936
 30
0.0
 11
73.8685
 21
40.6936
 31
0.0
  0
LINE
  8
0
 62
     0
 10
73.8685
 20
40.6936
 30
0.0
 11
73.8685
 21
54.6929
 31
0.0
  0
LINE
  8
0
 62
     0
 10
54.8171
 20
54.6929
 30
0.0
 11
68.8178
 21
54.6929
 31
0.0
  0
LINE
  8
0
 62
     0
 10
68.8178
 20
54.6929
 30
0.0
 11
68.8178
 21
40.6936
 31
0.0
  0
LINE
  8
0
 62
     0
 10
68.8178
 20
40.6936
 30
0.0
 11
54.8171
 21
40.6936
 31
0.0
  0
LINE
  8
0
 62
     0
 10
54.8171
 20
40.6936
 30
0.0
 11
54.8171
 21
54.6929
 31
0.0
  0
LINE
  8
0
 62
     0
 10
35.7699
 20
54.6929
 30
0.0
 11
49.7692
 21
54.6929
 31
0.0
  0
LINE
  8
0
 62
     0
 10
49.7692
 20
54.6929
 30
0.0
 11
49.7692
 21
40.6936
 31
0.0
  0
LINE
  8
0
 62
     0
 10
49.7692
 20
40.6936
 30
0.0
 11
35.7699
 21
40.6936
 31
0.0
  0
LINE
  8
0
 62
     0
 10
35.7699
 20
40.6936
 30
0.0
 11
35.7699
 21
54.6929
 31
0.0
  0
LINE
  8
0
 62
     0
 10
9.57598
 20
54.6929
 30
0.0
 11
23.5755
 21
54.6929
 31
0.0
  0
LINE
  8
0
 62
     0
 10
23.5755
 20
54.6929
 30
0.0
 11
23.5755
 21
40.6936
 31
0.0
  0
LINE
  8
0
 62
     0
 10
23.5755
 20
40.6936
 30
0.0
 11
9.57598
 21
40.6936
 31
0.0
  0
LINE
  8
0
 62
     0
 10
9.57598
 20
40.6936
 30
0.0
 11
9.57598
 21
54.6929
 31
0.0
  0
LINE
  8
0
 62
     0
 10
145.306
 20
73.7429
 30
0.0
 11
145.306
 21
59.7436
 31
0.0
  0
LINE
  8
0
 62
     0
 10
145.306
 20
59.7436
 30
0.0
 11
158.389
 21
59.7436
 31
0.0
  0
LINE
  8
0
 62
     0
 10
158.389
 20
59.7436
 30
0.0
 11
158.666
 21
59.6029
 31
0.0
  0
LINE
  8
0
 62
     0
 10
158.666
 20
59.6029
 30
0.0
 11
159.438
 21
59.4801
 31
0.0
  0
LINE
  8
0
 62
     0
 10
159.438
 20
59.4801
 30
0.0
 11
160.211
 21
59.6029
 31
0.0
  0
LINE
  8
0
 62
     0
 10
160.211
 20
59.6029
 30
0.0
 11
160.907
 21
59.9571
 31
0.0
  0
LINE
  8
0
 62
     0
 10
160.907
 20
59.9571
 30
0.0
 11
161.461
 21
60.5109
 31
0.0
  0
LINE
  8
0
 62
     0
 10
161.461
 20
60.5109
 30
0.0
 11
161.816
 21
61.2069
 31
0.0
  0
LINE
  8
0
 62
     0
 10
161.816
 20
61.2069
 30
0.0
 11
161.937
 21
61.9799
 31
0.0
  0
LINE
  8
0
 62
     0
 10
161.937
 20
61.9799
 30
0.0
 11
161.816
 21
62.7532
 31
0.0
  0
LINE
  8
0
 62
     0
 10
161.816
 20
62.7532
 30
0.0
 11
161.461
 21
63.4488
 31
0.0
  0
LINE
  8
0
 62
     0
 10
161.461
 20
63.4488
 30
0.0
 11
160.907
 21
64.0031
 31
0.0
  0
LINE
  8
0
 62
     0
 10
160.907
 20
64.0031
 30
0.0
 11
160.211
 21
64.3587
 31
0.0
  0
LINE
  8
0
 62
     0
 10
160.211
 20
64.3587
 30
0.0
 11
159.438
 21
64.4811
 31
0.0
  0
LINE
  8
0
 62
     0
 10
159.438
 20
64.4811
 30
0.0
 11
159.305
 21
64.4592
 31
0.0
  0
LINE
  8
0
 62
     0
 10
159.305
 20
64.4592
 30
0.0
 11
159.305
 21
73.7429
 31
0.0
  0
LINE
  8
0
 62
     0
 10
159.305
 20
73.7429
 30
0.0
 11
145.306
 21
73.7429
 31
0.0
  0
LINE
  8
0
 62
     0
 10
331.043
 20
73.7429
 30
0.0
 11
345.043
 21
73.7429
 31
0.0
  0
LINE
  8
0
 62
     0
 10
345.043
 20
73.7429
 30
0.0
 11
345.043
 21
59.7436
 31
0.0
  0
LINE
  8
0
 62
     0
 10
345.043
 20
59.7436
 30
0.0
 11
331.043
 21
59.7436
 31
0.0
  0
LINE
  8
0
 62
     0
 10
331.043
 20
59.7436
 30
0.0
 11
331.043
 21
73.7429
 31
0.0
  0
LINE
  8
0
 62
     0
 10
311.993
 20
73.7429
 30
0.0
 11
325.993
 21
73.7429
 31
0.0
  0
LINE
  8
0
 62
     0
 10
325.993
 20
73.7429
 30
0.0
 11
325.993
 21
59.7436
 31
0.0
  0
LINE
  8
0
 62
     0
 10
325.993
 20
59.7436
 30
0.0
 11
311.993
 21
59.7436
 31
0.0
  0
LINE
  8
0
 62
     0
 10
311.993
 20
59.7436
 30
0.0
 11
311.993
 21
73.7429
 31
0.0
  0
LINE
  8
0
 62
     0
 10
292.943
 20
73.7429
 30
0.0
 11
306.943
 21
73.7429
 31
0.0
  0
LINE
  8
0
 62
     0
 10
306.943
 20
73.7429
 30
0.0
 11
306.943
 21
59.7436
 31
0.0
  0
LINE
  8
0
 62
     0
 10
306.943
 20
59.7436
 30
0.0
 11
292.943
 21
59.7436
 31
0.0
  0
LINE
  8
0
 62
     0
 10
292.943
 20
59.7436
 30
0.0
 11
292.943
 21
73.7429
 31
0.0
  0
LINE
  8
0
 62
     0
 10
264.368
 20
73.7429
 30
0.0
 11
278.368
 21
73.7429
 31
0.0
  0
LINE
  8
0
 62
     0
 10
278.368
 20
73.7429
 30
0.0
 11
278.368
 21
59.7436
 31
0.0
  0
LINE
  8
0
 62
     0
 10
278.368
 20
59.7436
 30
0.0
 11
264.368
 21
59.7436
 31
0.0
  0
LINE
  8
0
 62
     0
 10
264.368
 20
59.7436
 30
0.0
 11
264.368
 21
73.7429
 31
0.0
  0
LINE
  8
0
 62
     0
 10
240.556
 20
73.7429
 30
0.0
 11
254.555
 21
73.7429
 31
0.0
  0
LINE
  8
0
 62
     0
 10
254.555
 20
73.7429
 30
0.0
 11
254.555
 21
59.7436
 31
0.0
  0
LINE
  8
0
 62
     0
 10
254.555
 20
59.7436
 30
0.0
 11
240.556
 21
59.7436
 31
0.0
  0
LINE
  8
0
 62
     0
 10
240.556
 20
59.7436
 30
0.0
 11
240.556
 21
73.7429
 31
0.0
  0
LINE
  8
0
 62
     0
 10
221.506
 20
73.7429
 30
0.0
 11
235.507
 21
73.7429
 31
0.0
  0
LINE
  8
0
 62
     0
 10
235.507
 20
73.7429
 30
0.0
 11
235.507
 21
59.7436
 31
0.0
  0
LINE
  8
0
 62
     0
 10
235.507
 20
59.7436
 30
0.0
 11
221.506
 21
59.7436
 31
0.0
  0
LINE
  8
0
 62
     0
 10
221.506
 20
59.7436
 30
0.0
 11
221.506
 21
73.7429
 31
0.0
  0
LINE
  8
0
 62
     0
 10
202.456
 20
73.7429
 30
0.0
 11
216.455
 21
73.7429
 31
0.0
  0
LINE
  8
0
 62
     0
 10
216.455
 20
73.7429
 30
0.0
 11
216.455
 21
59.7436
 31
0.0
  0
LINE
  8
0
 62
     0
 10
216.455
 20
59.7436
 30
0.0
 11
202.456
 21
59.7436
 31
0.0
  0
LINE
  8
0
 62
     0
 10
202.456
 20
59.7436
 30
0.0
 11
202.456
 21
73.7429
 31
0.0
  0
LINE
  8
0
 62
     0
 10
183.406
 20
73.7429
 30
0.0
 11
197.407
 21
73.7429
 31
0.0
  0
LINE
  8
0
 62
     0
 10
197.407
 20
73.7429
 30
0.0
 11
197.407
 21
59.7436
 31
0.0
  0
LINE
  8
0
 62
     0
 10
197.407
 20
59.7436
 30
0.0
 11
183.406
 21
59.7436
 31
0.0
  0
LINE
  8
0
 62
     0
 10
183.406
 20
59.7436
 30
0.0
 11
183.406
 21
73.7429
 31
0.0
  0
LINE
  8
0
 62
     0
 10
164.356
 20
73.7429
 30
0.0
 11
178.357
 21
73.7429
 31
0.0
  0
LINE
  8
0
 62
     0
 10
178.357
 20
73.7429
 30
0.0
 11
178.357
 21
59.7436
 31
0.0
  0
LINE
  8
0
 62
     0
 10
178.357
 20
59.7436
 30
0.0
 11
164.356
 21
59.7436
 31
0.0
  0
LINE
  8
0
 62
     0
 10
164.356
 20
59.7436
 30
0.0
 11
164.356
 21
73.7429
 31
0.0
  0
LINE
  8
0
 62
     0
 10
126.256
 20
73.7429
 30
0.0
 11
140.257
 21
73.7429
 31
0.0
  0
LINE
  8
0
 62
     0
 10
140.257
 20
73.7429
 30
0.0
 11
140.257
 21
59.7436
 31
0.0
  0
LINE
  8
0
 62
     0
 10
140.257
 20
59.7436
 30
0.0
 11
126.256
 21
59.7436
 31
0.0
  0
LINE
  8
0
 62
     0
 10
126.256
 20
59.7436
 30
0.0
 11
126.256
 21
73.7429
 31
0.0
  0
LINE
  8
0
 62
     0
 10
107.206
 20
73.7429
 30
0.0
 11
121.205
 21
73.7429
 31
0.0
  0
LINE
  8
0
 62
     0
 10
121.205
 20
73.7429
 30
0.0
 11
121.205
 21
59.7436
 31
0.0
  0
LINE
  8
0
 62
     0
 10
121.205
 20
59.7436
 30
0.0
 11
107.206
 21
59.7436
 31
0.0
  0
LINE
  8
0
 62
     0
 10
107.206
 20
59.7436
 30
0.0
 11
107.206
 21
73.7429
 31
0.0
  0
LINE
  8
0
 62
     0
 10
88.156
 20
73.7429
 30
0.0
 11
102.157
 21
73.7429
 31
0.0
  0
LINE
  8
0
 62
     0
 10
102.157
 20
73.7429
 30
0.0
 11
102.157
 21
59.7436
 31
0.0
  0
LINE
  8
0
 62
     0
 10
102.157
 20
59.7436
 30
0.0
 11
88.156
 21
59.7436
 31
0.0
  0
LINE
  8
0
 62
     0
 10
88.156
 20
59.7436
 30
0.0
 11
88.156
 21
73.7429
 31
0.0
  0
LINE
  8
0
 62
     0
 10
69.106
 20
73.7429
 30
0.0
 11
83.1067
 21
73.7429
 31
0.0
  0
LINE
  8
0
 62
     0
 10
83.1067
 20
73.7429
 30
0.0
 11
83.1067
 21
59.7436
 31
0.0
  0
LINE
  8
0
 62
     0
 10
83.1067
 20
59.7436
 30
0.0
 11
69.106
 21
59.7436
 31
0.0
  0
LINE
  8
0
 62
     0
 10
69.106
 20
59.7436
 30
0.0
 11
69.106
 21
73.7429
 31
0.0
  0
LINE
  8
0
 62
     0
 10
50.056
 20
73.7429
 30
0.0
 11
64.0567
 21
73.7429
 31
0.0
  0
LINE
  8
0
 62
     0
 10
64.0567
 20
73.7429
 30
0.0
 11
64.0567
 21
59.7436
 31
0.0
  0
LINE
  8
0
 62
     0
 10
64.0567
 20
59.7436
 30
0.0
 11
50.056
 21
59.7436
 31
0.0
  0
LINE
  8
0
 62
     0
 10
50.056
 20
59.7436
 30
0.0
 11
50.056
 21
73.7429
 31
0.0
  0
LINE
  8
0
 62
     0
 10
31.0059
 20
73.7429
 30
0.0
 11
45.0053
 21
73.7429
 31
0.0
  0
LINE
  8
0
 62
     0
 10
45.0053
 20
73.7429
 30
0.0
 11
45.0053
 21
59.7436
 31
0.0
  0
LINE
  8
0
 62
     0
 10
45.0053
 20
59.7436
 30
0.0
 11
31.0059
 21
59.7436
 31
0.0
  0
LINE
  8
0
 62
     0
 10
31.0059
 20
59.7436
 30
0.0
 11
31.0059
 21
73.7429
 31
0.0
  0
LINE
  8
0
 62
     0
 10
7.19473
 20
73.7429
 30
0.0
 11
21.1942
 21
73.7429
 31
0.0
  0
LINE
  8
0
 62
     0
 10
21.1942
 20
73.7429
 30
0.0
 11
21.1942
 21
59.7436
 31
0.0
  0
LINE
  8
0
 62
     0
 10
21.1942
 20
59.7436
 30
0.0
 11
7.19473
 21
59.7436
 31
0.0
  0
LINE
  8
0
 62
     0
 10
7.19473
 20
59.7436
 30
0.0
 11
7.19473
 21
73.7429
 31
0.0
  0
LINE
  8
0
 62
     0
 10
259.606
 20
92.7929
 30
0.0
 11
259.606
 21
88.0939
 31
0.0
  0
LINE
  8
0
 62
     0
 10
259.606
 20
88.0939
 30
0.0
 11
258.08
 21
88.0939
 31
0.0
  0
LINE
  8
0
 62
     0
 10
258.08
 20
88.0939
 30
0.0
 11
258.08
 21
91.3239
 31
0.0
  0
LINE
  8
0
 62
     0
 10
258.08
 20
91.3239
 30
0.0
 11
251.331
 21
91.3239
 31
0.0
  0
LINE
  8
0
 62
     0
 10
251.331
 20
91.3239
 30
0.0
 11
251.331
 21
88.0939
 31
0.0
  0
LINE
  8
0
 62
     0
 10
251.331
 20
88.0939
 30
0.0
 11
250.507
 21
88.0939
 31
0.0
  0
LINE
  8
0
 62
     0
 10
250.507
 20
88.0939
 30
0.0
 11
250.507
 21
85.2936
 31
0.0
  0
LINE
  8
0
 62
     0
 10
250.507
 20
85.2936
 30
0.0
 11
251.331
 21
85.2936
 31
0.0
  0
LINE
  8
0
 62
     0
 10
251.331
 20
85.2936
 30
0.0
 11
251.331
 21
79.0236
 31
0.0
  0
LINE
  8
0
 62
     0
 10
251.331
 20
79.0236
 30
0.0
 11
253.056
 21
79.0236
 31
0.0
  0
LINE
  8
0
 62
     0
 10
253.056
 20
79.0236
 30
0.0
 11
253.056
 21
77.8235
 31
0.0
  0
LINE
  8
0
 62
     0
 10
253.056
 20
77.8235
 30
0.0
 11
256.355
 21
77.8235
 31
0.0
  0
LINE
  8
0
 62
     0
 10
256.355
 20
77.8235
 30
0.0
 11
256.355
 21
79.0236
 31
0.0
  0
LINE
  8
0
 62
     0
 10
256.355
 20
79.0236
 30
0.0
 11
258.08
 21
79.0236
 31
0.0
  0
LINE
  8
0
 62
     0
 10
258.08
 20
79.0236
 30
0.0
 11
258.08
 21
83.494
 31
0.0
  0
LINE
  8
0
 62
     0
 10
258.08
 20
83.494
 30
0.0
 11
259.606
 21
83.494
 31
0.0
  0
LINE
  8
0
 62
     0
 10
259.606
 20
83.494
 30
0.0
 11
259.606
 21
78.7936
 31
0.0
  0
LINE
  8
0
 62
     0
 10
259.606
 20
78.7936
 30
0.0
 11
273.605
 21
78.7936
 31
0.0
  0
LINE
  8
0
 62
     0
 10
273.605
 20
78.7936
 30
0.0
 11
273.605
 21
83.494
 31
0.0
  0
LINE
  8
0
 62
     0
 10
273.605
 20
83.494
 30
0.0
 11
275.131
 21
83.494
 31
0.0
  0
LINE
  8
0
 62
     0
 10
275.131
 20
83.494
 30
0.0
 11
275.131
 21
79.0236
 31
0.0
  0
LINE
  8
0
 62
     0
 10
275.131
 20
79.0236
 30
0.0
 11
276.856
 21
79.0236
 31
0.0
  0
LINE
  8
0
 62
     0
 10
276.856
 20
79.0236
 30
0.0
 11
276.856
 21
77.8235
 31
0.0
  0
LINE
  8
0
 62
     0
 10
276.856
 20
77.8235
 30
0.0
 11
280.155
 21
77.8235
 31
0.0
  0
LINE
  8
0
 62
     0
 10
280.155
 20
77.8235
 30
0.0
 11
280.155
 21
79.0236
 31
0.0
  0
LINE
  8
0
 62
     0
 10
280.155
 20
79.0236
 30
0.0
 11
281.88
 21
79.0236
 31
0.0
  0
LINE
  8
0
 62
     0
 10
281.88
 20
79.0236
 30
0.0
 11
281.88
 21
85.2936
 31
0.0
  0
LINE
  8
0
 62
     0
 10
281.88
 20
85.2936
 30
0.0
 11
282.706
 21
85.2936
 31
0.0
  0
LINE
  8
0
 62
     0
 10
282.706
 20
85.2936
 30
0.0
 11
282.706
 21
88.0939
 31
0.0
  0
LINE
  8
0
 62
     0
 10
282.706
 20
88.0939
 30
0.0
 11
281.88
 21
88.0939
 31
0.0
  0
LINE
  8
0
 62
     0
 10
281.88
 20
88.0939
 30
0.0
 11
281.88
 21
91.3239
 31
0.0
  0
LINE
  8
0
 62
     0
 10
281.88
 20
91.3239
 30
0.0
 11
275.131
 21
91.3239
 31
0.0
  0
LINE
  8
0
 62
     0
 10
275.131
 20
91.3239
 30
0.0
 11
275.131
 21
88.0939
 31
0.0
  0
LINE
  8
0
 62
     0
 10
275.131
 20
88.0939
 30
0.0
 11
273.605
 21
88.0939
 31
0.0
  0
LINE
  8
0
 62
     0
 10
273.605
 20
88.0939
 30
0.0
 11
273.605
 21
92.7929
 31
0.0
  0
LINE
  8
0
 62
     0
 10
273.605
 20
92.7929
 30
0.0
 11
259.606
 21
92.7929
 31
0.0
  0
LINE
  8
0
 62
     0
 10
331.043
 20
92.7929
 30
0.0
 11
345.043
 21
92.7929
 31
0.0
  0
LINE
  8
0
 62
     0
 10
345.043
 20
92.7929
 30
0.0
 11
345.043
 21
78.7936
 31
0.0
  0
LINE
  8
0
 62
     0
 10
345.043
 20
78.7936
 30
0.0
 11
331.043
 21
78.7936
 31
0.0
  0
LINE
  8
0
 62
     0
 10
331.043
 20
78.7936
 30
0.0
 11
331.043
 21
92.7929
 31
0.0
  0
LINE
  8
0
 62
     0
 10
311.993
 20
92.7929
 30
0.0
 11
325.993
 21
92.7929
 31
0.0
  0
LINE
  8
0
 62
     0
 10
325.993
 20
92.7929
 30
0.0
 11
325.993
 21
78.7936
 31
0.0
  0
LINE
  8
0
 62
     0
 10
325.993
 20
78.7936
 30
0.0
 11
311.993
 21
78.7936
 31
0.0
  0
LINE
  8
0
 62
     0
 10
311.993
 20
78.7936
 30
0.0
 11
311.993
 21
92.7929
 31
0.0
  0
LINE
  8
0
 62
     0
 10
292.943
 20
92.7929
 30
0.0
 11
292.943
 21
83.2171
 31
0.0
  0
LINE
  8
0
 62
     0
 10
292.943
 20
83.2171
 30
0.0
 11
292.756
 21
83.403
 31
0.0
  0
LINE
  8
0
 62
     0
 10
292.756
 20
83.403
 30
0.0
 11
292.06
 21
83.7586
 31
0.0
  0
LINE
  8
0
 62
     0
 10
292.06
 20
83.7586
 30
0.0
 11
291.287
 21
83.881
 31
0.0
  0
LINE
  8
0
 62
     0
 10
291.287
 20
83.881
 30
0.0
 11
290.514
 21
83.7586
 31
0.0
  0
LINE
  8
0
 62
     0
 10
290.514
 20
83.7586
 30
0.0
 11
289.818
 21
83.403
 31
0.0
  0
LINE
  8
0
 62
     0
 10
289.818
 20
83.403
 30
0.0
 11
289.264
 21
82.8492
 31
0.0
  0
LINE
  8
0
 62
     0
 10
289.264
 20
82.8492
 30
0.0
 11
288.91
 21
82.1531
 31
0.0
  0
LINE
  8
0
 62
     0
 10
288.91
 20
82.1531
 30
0.0
 11
288.787
 21
81.3802
 31
0.0
  0
LINE
  8
0
 62
     0
 10
288.787
 20
81.3802
 30
0.0
 11
288.91
 21
80.6069
 31
0.0
  0
LINE
  8
0
 62
     0
 10
288.91
 20
80.6069
 30
0.0
 11
289.264
 21
79.9112
 31
0.0
  0
LINE
  8
0
 62
     0
 10
289.264
 20
79.9112
 30
0.0
 11
289.818
 21
79.357
 31
0.0
  0
LINE
  8
0
 62
     0
 10
289.818
 20
79.357
 30
0.0
 11
290.514
 21
79.0028
 31
0.0
  0
LINE
  8
0
 62
     0
 10
290.514
 20
79.0028
 30
0.0
 11
291.287
 21
78.8804
 31
0.0
  0
LINE
  8
0
 62
     0
 10
291.287
 20
78.8804
 30
0.0
 11
292.06
 21
79.0028
 31
0.0
  0
LINE
  8
0
 62
     0
 10
292.06
 20
79.0028
 30
0.0
 11
292.756
 21
79.357
 31
0.0
  0
LINE
  8
0
 62
     0
 10
292.756
 20
79.357
 30
0.0
 11
292.943
 21
79.5443
 31
0.0
  0
LINE
  8
0
 62
     0
 10
292.943
 20
79.5443
 30
0.0
 11
292.943
 21
78.7936
 31
0.0
  0
LINE
  8
0
 62
     0
 10
292.943
 20
78.7936
 30
0.0
 11
306.943
 21
78.7936
 31
0.0
  0
LINE
  8
0
 62
     0
 10
306.943
 20
78.7936
 30
0.0
 11
306.943
 21
92.7929
 31
0.0
  0
LINE
  8
0
 62
     0
 10
306.943
 20
92.7929
 30
0.0
 11
292.943
 21
92.7929
 31
0.0
  0
LINE
  8
0
 62
     0
 10
231.031
 20
92.7929
 30
0.0
 11
245.032
 21
92.7929
 31
0.0
  0
LINE
  8
0
 62
     0
 10
245.032
 20
92.7929
 30
0.0
 11
245.032
 21
78.7936
 31
0.0
  0
LINE
  8
0
 62
     0
 10
245.032
 20
78.7936
 30
0.0
 11
231.031
 21
78.7936
 31
0.0
  0
LINE
  8
0
 62
     0
 10
231.031
 20
78.7936
 30
0.0
 11
231.031
 21
92.7929
 31
0.0
  0
LINE
  8
0
 62
     0
 10
211.981
 20
92.7929
 30
0.0
 11
225.982
 21
92.7929
 31
0.0
  0
LINE
  8
0
 62
     0
 10
225.982
 20
92.7929
 30
0.0
 11
225.982
 21
78.7936
 31
0.0
  0
LINE
  8
0
 62
     0
 10
225.982
 20
78.7936
 30
0.0
 11
211.981
 21
78.7936
 31
0.0
  0
LINE
  8
0
 62
     0
 10
211.981
 20
78.7936
 30
0.0
 11
211.981
 21
92.7929
 31
0.0
  0
LINE
  8
0
 62
     0
 10
192.931
 20
92.7929
 30
0.0
 11
206.93
 21
92.7929
 31
0.0
  0
LINE
  8
0
 62
     0
 10
206.93
 20
92.7929
 30
0.0
 11
206.93
 21
78.7936
 31
0.0
  0
LINE
  8
0
 62
     0
 10
206.93
 20
78.7936
 30
0.0
 11
192.931
 21
78.7936
 31
0.0
  0
LINE
  8
0
 62
     0
 10
192.931
 20
78.7936
 30
0.0
 11
192.931
 21
92.7929
 31
0.0
  0
LINE
  8
0
 62
     0
 10
173.881
 20
92.7929
 30
0.0
 11
187.882
 21
92.7929
 31
0.0
  0
LINE
  8
0
 62
     0
 10
187.882
 20
92.7929
 30
0.0
 11
187.882
 21
78.7936
 31
0.0
  0
LINE
  8
0
 62
     0
 10
187.882
 20
78.7936
 30
0.0
 11
173.881
 21
78.7936
 31
0.0
  0
LINE
  8
0
 62
     0
 10
173.881
 20
78.7936
 30
0.0
 11
173.881
 21
92.7929
 31
0.0
  0
LINE
  8
0
 62
     0
 10
154.831
 20
92.7929
 30
0.0
 11
168.83
 21
92.7929
 31
0.0
  0
LINE
  8
0
 62
     0
 10
168.83
 20
92.7929
 30
0.0
 11
168.83
 21
78.7936
 31
0.0
  0
LINE
  8
0
 62
     0
 10
168.83
 20
78.7936
 30
0.0
 11
154.831
 21
78.7936
 31
0.0
  0
LINE
  8
0
 62
     0
 10
154.831
 20
78.7936
 30
0.0
 11
154.831
 21
92.7929
 31
0.0
  0
LINE
  8
0
 62
     0
 10
135.781
 20
92.7929
 30
0.0
 11
149.782
 21
92.7929
 31
0.0
  0
LINE
  8
0
 62
     0
 10
149.782
 20
92.7929
 30
0.0
 11
149.782
 21
78.7936
 31
0.0
  0
LINE
  8
0
 62
     0
 10
149.782
 20
78.7936
 30
0.0
 11
135.781
 21
78.7936
 31
0.0
  0
LINE
  8
0
 62
     0
 10
135.781
 20
78.7936
 30
0.0
 11
135.781
 21
92.7929
 31
0.0
  0
LINE
  8
0
 62
     0
 10
116.731
 20
92.7929
 30
0.0
 11
130.732
 21
92.7929
 31
0.0
  0
LINE
  8
0
 62
     0
 10
130.732
 20
92.7929
 30
0.0
 11
130.732
 21
78.7936
 31
0.0
  0
LINE
  8
0
 62
     0
 10
130.732
 20
78.7936
 30
0.0
 11
116.731
 21
78.7936
 31
0.0
  0
LINE
  8
0
 62
     0
 10
116.731
 20
78.7936
 30
0.0
 11
116.731
 21
92.7929
 31
0.0
  0
LINE
  8
0
 62
     0
 10
97.681
 20
92.7929
 30
0.0
 11
111.682
 21
92.7929
 31
0.0
  0
LINE
  8
0
 62
     0
 10
111.682
 20
92.7929
 30
0.0
 11
111.682
 21
78.7936
 31
0.0
  0
LINE
  8
0
 62
     0
 10
111.682
 20
78.7936
 30
0.0
 11
97.681
 21
78.7936
 31
0.0
  0
LINE
  8
0
 62
     0
 10
97.681
 20
78.7936
 30
0.0
 11
97.681
 21
92.7929
 31
0.0
  0
LINE
  8
0
 62
     0
 10
78.631
 20
92.7929
 30
0.0
 11
92.6317
 21
92.7929
 31
0.0
  0
LINE
  8
0
 62
     0
 10
92.6317
 20
92.7929
 30
0.0
 11
92.6317
 21
78.7936
 31
0.0
  0
LINE
  8
0
 62
     0
 10
92.6317
 20
78.7936
 30
0.0
 11
78.631
 21
78.7936
 31
0.0
  0
LINE
  8
0
 62
     0
 10
78.631
 20
78.7936
 30
0.0
 11
78.631
 21
92.7929
 31
0.0
  0
LINE
  8
0
 62
     0
 10
59.581
 20
92.7929
 30
0.0
 11
73.5803
 21
92.7929
 31
0.0
  0
LINE
  8
0
 62
     0
 10
73.5803
 20
92.7929
 30
0.0
 11
73.5803
 21
78.7936
 31
0.0
  0
LINE
  8
0
 62
     0
 10
73.5803
 20
78.7936
 30
0.0
 11
59.581
 21
78.7936
 31
0.0
  0
LINE
  8
0
 62
     0
 10
59.581
 20
78.7936
 30
0.0
 11
59.581
 21
92.7929
 31
0.0
  0
LINE
  8
0
 62
     0
 10
40.531
 20
92.7929
 30
0.0
 11
40.531
 21
78.7936
 31
0.0
  0
LINE
  8
0
 62
     0
 10
40.531
 20
78.7936
 30
0.0
 11
54.5317
 21
78.7936
 31
0.0
  0
LINE
  8
0
 62
     0
 10
54.5317
 20
78.7936
 30
0.0
 11
54.5317
 21
79.7952
 31
0.0
  0
LINE
  8
0
 62
     0
 10
54.5317
 20
79.7952
 30
0.0
 11
54.9674
 21
79.357
 31
0.0
  0
LINE
  8
0
 62
     0
 10
54.9674
 20
79.357
 30
0.0
 11
55.6659
 21
79.0028
 31
0.0
  0
LINE
  8
0
 62
     0
 10
55.6659
 20
79.0028
 30
0.0
 11
56.4374
 21
78.8804
 31
0.0
  0
LINE
  8
0
 62
     0
 10
56.4374
 20
78.8804
 30
0.0
 11
57.2107
 21
79.0028
 31
0.0
  0
LINE
  8
0
 62
     0
 10
57.2107
 20
79.0028
 30
0.0
 11
57.9078
 21
79.357
 31
0.0
  0
LINE
  8
0
 62
     0
 10
57.9078
 20
79.357
 30
0.0
 11
58.4606
 21
79.9112
 31
0.0
  0
LINE
  8
0
 62
     0
 10
58.4606
 20
79.9112
 30
0.0
 11
58.8148
 21
80.6069
 31
0.0
  0
LINE
  8
0
 62
     0
 10
58.8148
 20
80.6069
 30
0.0
 11
58.9372
 21
81.3802
 31
0.0
  0
LINE
  8
0
 62
     0
 10
58.9372
 20
81.3802
 30
0.0
 11
58.8148
 21
82.1531
 31
0.0
  0
LINE
  8
0
 62
     0
 10
58.8148
 20
82.1531
 30
0.0
 11
58.4606
 21
82.8492
 31
0.0
  0
LINE
  8
0
 62
     0
 10
58.4606
 20
82.8492
 30
0.0
 11
57.9078
 21
83.403
 31
0.0
  0
LINE
  8
0
 62
     0
 10
57.9078
 20
83.403
 30
0.0
 11
57.2107
 21
83.7586
 31
0.0
  0
LINE
  8
0
 62
     0
 10
57.2107
 20
83.7586
 30
0.0
 11
56.4374
 21
83.881
 31
0.0
  0
LINE
  8
0
 62
     0
 10
56.4374
 20
83.881
 30
0.0
 11
55.6659
 21
83.7586
 31
0.0
  0
LINE
  8
0
 62
     0
 10
55.6659
 20
83.7586
 30
0.0
 11
54.9674
 21
83.403
 31
0.0
  0
LINE
  8
0
 62
     0
 10
54.9674
 20
83.403
 30
0.0
 11
54.5317
 21
82.9663
 31
0.0
  0
LINE
  8
0
 62
     0
 10
54.5317
 20
82.9663
 30
0.0
 11
54.5317
 21
92.7929
 31
0.0
  0
LINE
  8
0
 62
     0
 10
54.5317
 20
92.7929
 30
0.0
 11
40.531
 21
92.7929
 31
0.0
  0
LINE
  8
0
 62
     0
 10
21.4809
 20
92.7929
 30
0.0
 11
35.4817
 21
92.7929
 31
0.0
  0
LINE
  8
0
 62
     0
 10
35.4817
 20
92.7929
 30
0.0
 11
35.4817
 21
78.7936
 31
0.0
  0
LINE
  8
0
 62
     0
 10
35.4817
 20
78.7936
 30
0.0
 11
21.4809
 21
78.7936
 31
0.0
  0
LINE
  8
0
 62
     0
 10
21.4809
 20
78.7936
 30
0.0
 11
21.4809
 21
92.7929
 31
0.0
  0
LINE
  8
0
 62
     0
 10
2.43086
 20
92.7929
 30
0.0
 11
16.4317
 21
92.7929
 31
0.0
  0
LINE
  8
0
 62
     0
 10
16.4317
 20
92.7929
 30
0.0
 11
16.4317
 21
78.7936
 31
0.0
  0
LINE
  8
0
 62
     0
 10
16.4317
 20
78.7936
 30
0.0
 11
2.43086
 21
78.7936
 31
0.0
  0
LINE
  8
0
 62
     0
 10
2.43086
 20
78.7936
 30
0.0
 11
2.43086
 21
92.7929
 31
0.0
  0
LINE
  8
0
 62
     0
 10
331.043
 20
116.605
 30
0.0
 11
345.043
 21
116.605
 31
0.0
  0
LINE
  8
0
 62
     0
 10
345.043
 20
116.605
 30
0.0
 11
345.043
 21
102.606
 31
0.0
  0
LINE
  8
0
 62
     0
 10
345.043
 20
102.606
 30
0.0
 11
331.043
 21
102.606
 31
0.0
  0
LINE
  8
0
 62
     0
 10
331.043
 20
102.606
 30
0.0
 11
331.043
 21
116.605
 31
0.0
  0
LINE
  8
0
 62
     0
 10
311.993
 20
116.605
 30
0.0
 11
325.993
 21
116.605
 31
0.0
  0
LINE
  8
0
 62
     0
 10
325.993
 20
116.605
 30
0.0
 11
325.993
 21
102.606
 31
0.0
  0
LINE
  8
0
 62
     0
 10
325.993
 20
102.606
 30
0.0
 11
311.993
 21
102.606
 31
0.0
  0
LINE
  8
0
 62
     0
 10
311.993
 20
102.606
 30
0.0
 11
311.993
 21
116.605
 31
0.0
  0
LINE
  8
0
 62
     0
 10
292.943
 20
116.605
 30
0.0
 11
306.943
 21
116.605
 31
0.0
  0
LINE
  8
0
 62
     0
 10
306.943
 20
116.605
 30
0.0
 11
306.943
 21
102.606
 31
0.0
  0
LINE
  8
0
 62
     0
 10
306.943
 20
102.606
 30
0.0
 11
292.943
 21
102.606
 31
0.0
  0
LINE
  8
0
 62
     0
 10
292.943
 20
102.606
 30
0.0
 11
292.943
 21
116.605
 31
0.0
  0
LINE
  8
0
 62
     0
 10
269.131
 20
116.605
 30
0.0
 11
283.13
 21
116.605
 31
0.0
  0
LINE
  8
0
 62
     0
 10
283.13
 20
116.605
 30
0.0
 11
283.13
 21
102.606
 31
0.0
  0
LINE
  8
0
 62
     0
 10
283.13
 20
102.606
 30
0.0
 11
269.131
 21
102.606
 31
0.0
  0
LINE
  8
0
 62
     0
 10
269.131
 20
102.606
 30
0.0
 11
269.131
 21
116.605
 31
0.0
  0
LINE
  8
0
 62
     0
 10
250.081
 20
116.605
 30
0.0
 11
264.08
 21
116.605
 31
0.0
  0
LINE
  8
0
 62
     0
 10
264.08
 20
116.605
 30
0.0
 11
264.08
 21
102.606
 31
0.0
  0
LINE
  8
0
 62
     0
 10
264.08
 20
102.606
 30
0.0
 11
250.081
 21
102.606
 31
0.0
  0
LINE
  8
0
 62
     0
 10
250.081
 20
102.606
 30
0.0
 11
250.081
 21
116.605
 31
0.0
  0
LINE
  8
0
 62
     0
 10
231.031
 20
116.605
 30
0.0
 11
245.032
 21
116.605
 31
0.0
  0
LINE
  8
0
 62
     0
 10
245.032
 20
116.605
 30
0.0
 11
245.032
 21
102.606
 31
0.0
  0
LINE
  8
0
 62
     0
 10
245.032
 20
102.606
 30
0.0
 11
231.031
 21
102.606
 31
0.0
  0
LINE
  8
0
 62
     0
 10
231.031
 20
102.606
 30
0.0
 11
231.031
 21
116.605
 31
0.0
  0
LINE
  8
0
 62
     0
 10
211.981
 20
116.605
 30
0.0
 11
225.982
 21
116.605
 31
0.0
  0
LINE
  8
0
 62
     0
 10
225.982
 20
116.605
 30
0.0
 11
225.982
 21
102.606
 31
0.0
  0
LINE
  8
0
 62
     0
 10
225.982
 20
102.606
 30
0.0
 11
211.981
 21
102.606
 31
0.0
  0
LINE
  8
0
 62
     0
 10
211.981
 20
102.606
 30
0.0
 11
211.981
 21
116.605
 31
0.0
  0
LINE
  8
0
 62
     0
 10
183.406
 20
116.605
 30
0.0
 11
197.407
 21
116.605
 31
0.0
  0
LINE
  8
0
 62
     0
 10
197.407
 20
116.605
 30
0.0
 11
197.407
 21
102.606
 31
0.0
  0
LINE
  8
0
 62
     0
 10
197.407
 20
102.606
 30
0.0
 11
183.406
 21
102.606
 31
0.0
  0
LINE
  8
0
 62
     0
 10
183.406
 20
102.606
 30
0.0
 11
183.406
 21
116.605
 31
0.0
  0
LINE
  8
0
 62
     0
 10
164.356
 20
116.605
 30
0.0
 11
178.357
 21
116.605
 31
0.0
  0
LINE
  8
0
 62
     0
 10
178.357
 20
116.605
 30
0.0
 11
178.357
 21
102.606
 31
0.0
  0
LINE
  8
0
 62
     0
 10
178.357
 20
102.606
 30
0.0
 11
164.356
 21
102.606
 31
0.0
  0
LINE
  8
0
 62
     0
 10
164.356
 20
102.606
 30
0.0
 11
164.356
 21
116.605
 31
0.0
  0
LINE
  8
0
 62
     0
 10
145.306
 20
116.605
 30
0.0
 11
159.305
 21
116.605
 31
0.0
  0
LINE
  8
0
 62
     0
 10
159.305
 20
116.605
 30
0.0
 11
159.305
 21
102.606
 31
0.0
  0
LINE
  8
0
 62
     0
 10
159.305
 20
102.606
 30
0.0
 11
145.306
 21
102.606
 31
0.0
  0
LINE
  8
0
 62
     0
 10
145.306
 20
102.606
 30
0.0
 11
145.306
 21
116.605
 31
0.0
  0
LINE
  8
0
 62
     0
 10
126.256
 20
116.605
 30
0.0
 11
140.257
 21
116.605
 31
0.0
  0
LINE
  8
0
 62
     0
 10
140.257
 20
116.605
 30
0.0
 11
140.257
 21
102.606
 31
0.0
  0
LINE
  8
0
 62
     0
 10
140.257
 20
102.606
 30
0.0
 11
126.256
 21
102.606
 31
0.0
  0
LINE
  8
0
 62
     0
 10
126.256
 20
102.606
 30
0.0
 11
126.256
 21
116.605
 31
0.0
  0
LINE
  8
0
 62
     0
 10
97.681
 20
116.605
 30
0.0
 11
111.682
 21
116.605
 31
0.0
  0
LINE
  8
0
 62
     0
 10
111.682
 20
116.605
 30
0.0
 11
111.682
 21
102.606
 31
0.0
  0
LINE
  8
0
 62
     0
 10
111.682
 20
102.606
 30
0.0
 11
97.681
 21
102.606
 31
0.0
  0
LINE
  8
0
 62
     0
 10
97.681
 20
102.606
 30
0.0
 11
97.681
 21
116.605
 31
0.0
  0
LINE
  8
0
 62
     0
 10
78.631
 20
116.605
 30
0.0
 11
92.6317
 21
116.605
 31
0.0
  0
LINE
  8
0
 62
     0
 10
92.6317
 20
116.605
 30
0.0
 11
92.6317
 21
102.606
 31
0.0
  0
LINE
  8
0
 62
     0
 10
92.6317
 20
102.606
 30
0.0
 11
78.631
 21
102.606
 31
0.0
  0
LINE
  8
0
 62
     0
 10
78.631
 20
102.606
 30
0.0
 11
78.631
 21
116.605
 31
0.0
  0
LINE
  8
0
 62
     0
 10
59.581
 20
116.605
 30
0.0
 11
73.5803
 21
116.605
 31
0.0
  0
LINE
  8
0
 62
     0
 10
73.5803
 20
116.605
 30
0.0
 11
73.5803
 21
102.606
 31
0.0
  0
LINE
  8
0
 62
     0
 10
73.5803
 20
102.606
 30
0.0
 11
59.581
 21
102.606
 31
0.0
  0
LINE
  8
0
 62
     0
 10
59.581
 20
102.606
 30
0.0
 11
59.581
 21
116.605
 31
0.0
  0
LINE
  8
0
 62
     0
 10
40.531
 20
116.605
 30
0.0
 11
54.5317
 21
116.605
 31
0.0
  0
LINE
  8
0
 62
     0
 10
54.5317
 20
116.605
 30
0.0
 11
54.5317
 21
102.606
 31
0.0
  0
LINE
  8
0
 62
     0
 10
54.5317
 20
102.606
 30
0.0
 11
40.531
 21
102.606
 31
0.0
  0
LINE
  8
0
 62
     0
 10
40.531
 20
102.606
 30
0.0
 11
40.531
 21
116.605
 31
0.0
  0
LINE
  8
0
 62
     0
 10
2.43086
 20
116.605
 30
0.0
 11
16.4317
 21
116.605
 31
0.0
  0
LINE
  8
0
 62
     0
 10
16.4317
 20
116.605
 30
0.0
 11
16.4317
 21
102.606
 31
0.0
  0
LINE
  8
0
 62
     0
 10
16.4317
 20
102.606
 30
0.0
 11
2.43086
 21
102.606
 31
0.0
  0
LINE
  8
0
 62
     0
 10
2.43086
 20
102.606
 30
0.0
 11
2.43086
 21
116.605
 31
0.0
  0
ENDSEC
  0
EOF
